<svg xmlns="http://www.w3.org/2000/svg" width="18" height="18" viewBox="0 0 18 18"><defs><style>.a{fill:#a6c8ff;}.b{fill:none;}</style></defs><g transform="translate(-24 -488)"><g transform="translate(-6 458)"><path class="a" d="M97.417,169.919a.472.472,0,0,0,0,.945h9.446a.472.472,0,0,0,0-.945Zm0-.945h9.446a1.417,1.417,0,1,1,0,2.834H97.417a1.417,1.417,0,1,1,0-2.834Zm8.5-8.266a.708.708,0,1,0,.708-.708A.708.708,0,0,0,105.919,160.708Zm-8.974,0a.708.708,0,1,0,.708-.708A.708.708,0,0,0,96.945,160.708Z" transform="translate(-63.055 -126.111)"/><path class="a" d="M480,576.472a.472.472,0,1,1,.945,0v2.362a.472.472,0,0,1-.945,0Z" transform="translate(-441.388 -535.971)"/><path class="a" d="M39.085,40.974a1.653,1.653,0,1,1,1.653-1.653A1.653,1.653,0,0,1,39.085,40.974Zm0-.945a.708.708,0,1,0-.708-.708A.708.708,0,0,0,39.085,40.029Zm5.2-1.417a.472.472,0,0,1,0-.945H45.7a.472.472,0,0,1,0,.945Zm-11.808,0a.472.472,0,0,1,0-.945h1.417a.472.472,0,0,1,0,.945Zm6.14-6.14a.472.472,0,0,1,.945,0v1.417a.472.472,0,0,1-.945,0Z"/><path class="a" d="M209.393,216.738h-.945v-4.251a4.487,4.487,0,1,1,8.974,0v4.251h-.945v-4.251a3.542,3.542,0,1,0-7.085,0Z" transform="translate(-173.844 -173.402)"/></g><rect class="b" width="18" height="18" transform="translate(24 488)"/></g></svg>