<svg xmlns="http://www.w3.org/2000/svg" width="18" height="18" viewBox="0 0 18 18"><defs><style>.a,.c{fill:none;}.b{fill:#a6c8ff;}.c{stroke:#a6c8ff;}.d{stroke:none;}</style></defs><g transform="translate(-26 -155)"><rect class="a" width="18" height="18" transform="translate(26 155)"/><g transform="translate(-2.5)"><path class="b" d="M14,10H1A1,1,0,0,1,0,9V1A1,1,0,0,1,1,0H14a1,1,0,0,1,1,1V9A1,1,0,0,1,14,10ZM.938,1V9H14.063V1Z" transform="translate(30 155)"/><rect class="b" width="1" height="4" transform="translate(35 165)"/><rect class="b" width="1" height="4" transform="translate(40 165)"/><path class="b" d="M1,0H11a1,1,0,0,1,1,1V1a0,0,0,0,1,0,0H0A0,0,0,0,1,0,1V1A1,1,0,0,1,1,0Z" transform="translate(32 168)"/><g class="c" transform="translate(32 160)"><circle class="d" cx="1.5" cy="1.5" r="1.5"/><circle class="a" cx="1.5" cy="1.5" r="1"/></g><g class="c" transform="translate(37 157)"><circle class="d" cx="1.5" cy="1.5" r="1.5"/><circle class="a" cx="1.5" cy="1.5" r="1"/></g><g class="c" transform="translate(40 159)"><circle class="d" cx="1.5" cy="1.5" r="1.5"/><circle class="a" cx="1.5" cy="1.5" r="1"/></g><path class="c" d="M34.119,161.5l3.312-1.883" transform="translate(0 -1)"/><path class="c" d="M39.4,160c.135.081,1.484,1,1.484,1" transform="translate(0 -1)"/></g></g></svg>