<svg xmlns="http://www.w3.org/2000/svg" width="18" height="18" viewBox="0 0 18 18">
  <g id="辅助服务" transform="translate(-24 -530)">
    <path id="路径_1555" data-name="路径 1555" d="M0,0H18V18H0Z" transform="translate(24 530)" fill="none"/>
    <g id="组_25344" data-name="组 25344" transform="translate(-77.578 428.1)">
      <path id="路径_1552" data-name="路径 1552" d="M114.632,115.807a.4.4,0,0,1-.263-.691,5.685,5.685,0,1,0-7.585,0,.4.4,0,1,1-.529.589,6.493,6.493,0,0,1-1.573-2.137,6.5,6.5,0,0,1-.073-5.207,6.48,6.48,0,1,1,10.288,7.353A.409.409,0,0,1,114.632,115.807Z" transform="translate(0 0)" />
      <path id="路径_1553" data-name="路径 1553" d="M295.4,247.254a.388.388,0,0,1-.2-.054.4.4,0,0,1-.144-.542,3.93,3.93,0,0,1,6.768-.054.4.4,0,1,1-.678.409,3.137,3.137,0,0,0-5.4.043A.4.4,0,0,1,295.4,247.254Zm5.588,4.643H295.9a.9.9,0,0,1-.9-.9v-1.079a.9.9,0,0,1,.9-.9h5.087a.9.9,0,0,1,.9.9V251A.9.9,0,0,1,300.984,251.9Zm-5.089-2.075a.1.1,0,0,0-.1.1V251a.1.1,0,0,0,.1.1h5.087a.1.1,0,0,0,.1-.1v-1.079a.1.1,0,0,0-.1-.1Z" transform="translate(-187.876 -138.077)" />
      <path id="路径_1554" data-name="路径 1554" d="M351.53,651.995H348.1a.9.9,0,0,1-.9-.9v-2.6a.9.9,0,0,1,.9-.9h3.436a.9.9,0,0,1,.9.9v2.6A.9.9,0,0,1,351.53,651.995Zm-3.435-3.6a.1.1,0,0,0-.1.1v2.6a.1.1,0,0,0,.1.1h3.436a.1.1,0,0,0,.1-.1V648.5a.1.1,0,0,0-.1-.1H348.1Z" transform="translate(-239.249 -534.594)" />
    </g>
  </g>
</svg>
