<svg xmlns="http://www.w3.org/2000/svg" width="18" height="18" viewBox="0 0 18 18">
  <g id="资产管理" transform="translate(-24 -830)">
    <rect id="矩形_5964" data-name="矩形 5964" width="18" height="18" transform="translate(24 830)" fill="none"/>
    <path id="联合_1230" data-name="联合 1230" d="M9042-22731.8a1.018,1.018,0,0,1,.138-.484c.628,1.113,3.385,1.951,6.689,1.951s6.062-.838,6.689-1.945a.928.928,0,0,1,.137.479c0,1.342-3.06,2.432-6.826,2.432S9042-22730.461,9042-22731.8Zm6.348.484v-1.471h-1.462a.486.486,0,0,1-.484-.486.484.484,0,0,1,.484-.484h1.462v-.959h-1.462a.49.49,0,0,1-.484-.492.484.484,0,0,1,.484-.484h.771l-1.119-1.119a.491.491,0,0,1,0-.689.49.49,0,0,1,.69,0l1.606,1.605,1.607-1.605a.483.483,0,0,1,.685,0,.481.481,0,0,1,0,.689l-1.118,1.119h.775a.485.485,0,0,1,.485.484.49.49,0,0,1-.485.492h-1.467v.959h1.467a.485.485,0,0,1,.485.484.486.486,0,0,1-.485.486h-1.467v1.477a.488.488,0,0,1-.484.486A.49.49,0,0,1,9048.345-22731.318Zm3.407-2.168c1.912-.326,3.333-.953,3.762-1.713a1,1,0,0,1,.137.48c0,.971-1.593,1.809-3.9,2.2Zm-9.755-1.232a.986.986,0,0,1,.138-.48c.434.76,1.854,1.393,3.772,1.713v.965C9043.6-22732.91,9042-22733.748,9042-22734.719Zm0-2.928a1,1,0,0,1,.138-.48c.434.76,1.854,1.393,3.772,1.713v.971C9043.6-22735.832,9042-22736.672,9042-22737.646Zm9.755,1.232c1.912-.32,3.333-.953,3.762-1.713a.935.935,0,0,1,.137.48c0,.969-1.593,1.809-3.9,2.2Zm-7.54-2.307a5.125,5.125,0,0,1-1.5-.7,1.424,1.424,0,0,1-.7-1.148,1.42,1.42,0,0,1,.7-1.152,5.029,5.029,0,0,1,1.5-.691,16.382,16.382,0,0,1,4.618-.594,16.35,16.35,0,0,1,4.617.594,5.179,5.179,0,0,1,1.5.691,1.42,1.42,0,0,1,.7,1.152,1.432,1.432,0,0,1-.7,1.154,5.13,5.13,0,0,1-1.5.689,16.508,16.508,0,0,1-4.617.588A16.54,16.54,0,0,1,9044.212-22738.721Zm.285-2.756a4.316,4.316,0,0,0-1.21.547c-.223.16-.3.291-.3.365s.074.205.3.365a4.486,4.486,0,0,0,1.21.549,15.412,15.412,0,0,0,4.333.547,15.38,15.38,0,0,0,4.332-.547,4.536,4.536,0,0,0,1.216-.549c.217-.164.3-.3.3-.365s-.08-.205-.3-.365a4.363,4.363,0,0,0-1.216-.547,15.3,15.3,0,0,0-4.332-.549A15.335,15.335,0,0,0,9044.5-22741.477Z" transform="translate(-9015.825 23575.188)" fill=""/>
  </g>
</svg>
