<svg xmlns="http://www.w3.org/2000/svg" width="88" height="87.893" viewBox="0 0 88 87.893">
  <g id="commandType" transform="translate(-52.001 -43.04)">
    <path id="路径_3946" data-name="路径 3946" d="M192.53,118.691v65.792a8.8,8.8,0,0,1-8.8,8.79H117.857a13.319,13.319,0,0,1-13.327-13.311V118.691a13.308,13.308,0,0,1,13.327-13.311H179.2A13.319,13.319,0,0,1,192.53,118.691Z" transform="translate(-52.529 -62.34)" fill="none"/>
    <path id="路径_2886" data-name="路径 2886" d="M11.579,61.251a6.483,6.483,0,0,1-6.462-6.462V0H53.536V7.319h7.871a4.98,4.98,0,0,1,4.961,4.961V23.612a4.98,4.98,0,0,1-4.961,4.961H53.536V34.76H66.368V52.553a8.744,8.744,0,0,1-8.728,8.728ZM9.742,54.789a1.843,1.843,0,0,0,1.838,1.838H49.922a8.659,8.659,0,0,1-1.011-4.1V28.543H44.624l-5.451,5.084V28.512a4.962,4.962,0,0,1-4.533-4.931v-11.3A4.98,4.98,0,0,1,39.6,7.319h9.31V4.655H9.742V54.789Zm43.794-2.726A5.318,5.318,0,0,0,54.363,55a4.109,4.109,0,0,0,7.381-2.481V39.354H53.536V52.063ZM39.6,11.944a.34.34,0,0,0-.337.337v11.3a.34.34,0,0,0,.337.337H61.407a.34.34,0,0,0,.337-.337v-11.3a.34.34,0,0,0-.337-.337H39.6ZM15.009,39.782a2.328,2.328,0,0,1,0-4.655H38.315a2.328,2.328,0,0,1,0,4.655H15.009Zm0-11.331a2.328,2.328,0,0,1,0-4.655h11.24a2.328,2.328,0,0,1,0,4.655H15.009Zm41.865-7.84a2.615,2.615,0,0,1-1.9-.8,2.685,2.685,0,0,1,1.9-4.594,2.566,2.566,0,0,1,1.9.8,2.667,2.667,0,0,1,.8,1.9A2.7,2.7,0,0,1,56.874,20.611Zm-6.309,0a2.615,2.615,0,0,1-1.9-.8,2.685,2.685,0,0,1,1.9-4.594,2.566,2.566,0,0,1,1.9.8,2.667,2.667,0,0,1,.8,1.9A2.7,2.7,0,0,1,50.566,20.611Zm-6.309,0a2.615,2.615,0,0,1-1.9-.8,2.685,2.685,0,0,1,1.9-4.594,2.566,2.566,0,0,1,1.9.8,2.667,2.667,0,0,1,.8,1.9A2.7,2.7,0,0,1,44.257,20.611ZM15.009,17.885a2.328,2.328,0,1,1,0-4.655H30.016a2.328,2.328,0,1,1,0,4.655Z" transform="translate(60.26 56.355)"/>
  </g>
</svg>
