<svg xmlns="http://www.w3.org/2000/svg" width="18" height="18" viewBox="0 0 18 18"><defs><style>.a{fill:none;}.b{fill:#a6c8ff;}</style></defs><g transform="translate(-21 -636)"><rect class="a" width="18" height="18" transform="translate(21 636)"/><g transform="translate(-32.271 492.783)"><path class="a" d="M553.623,385.658l-2.161,1.051a.509.509,0,0,1-.445,0l-2.161-1.051a.508.508,0,0,1-.286-.457v-2.613a.508.508,0,0,1,.286-.457l2.161-1.051a.509.509,0,0,1,.445,0l2.161,1.051a.508.508,0,0,1,.286.457V385.2A.508.508,0,0,1,553.623,385.658Z" transform="translate(-485.706 -230.936)"/><path class="b" d="M69.389,146.285H55.154a.3.3,0,0,0-.3.3v10.083a.3.3,0,0,0,.3.3H58.49v.89a.3.3,0,0,0,.3.3h6.969a.3.3,0,0,0,.3-.3v-.89h3.336a.3.3,0,0,0,.3-.3V146.582a.3.3,0,0,0-.3-.3Zm-3.93,11.27H59.083v-.593H65.46Zm3.633-1.186H55.45v-9.49H69.093v9.49Z"/><path class="b" d="M151.586,237.714h-5.152a.149.149,0,0,0-.148.148v7.414a.149.149,0,0,0,.148.148h5.152a.149.149,0,0,0,.148-.148v-7.414a.149.149,0,0,0-.148-.148Zm-4.707.593h4.262v.593h-4.262Zm0,6.525v-5.338h4.262v5.338h-4.262Zm11.1-4.633-2.373-1.155a.3.3,0,0,0-.261,0l-2.373,1.155a.3.3,0,0,0-.166.267v2.877a.3.3,0,0,0,.166.267l2.373,1.155a.3.3,0,0,0,.261,0l2.373-1.155a.294.294,0,0,0,.166-.267v-2.877a.3.3,0,0,0-.166-.267Zm-2.5-.559,1.739.847-1.742.859a.335.335,0,0,0-.031-.018l-1.705-.839Zm-2.076,1.343,1.779.876v2.163l-1.779-.866Zm2.373,3.04V241.86l1.779-.876v2.174l-1.779.866Z" transform="translate(-89.946 -89.946)"/><path class="b" d="M203.515,258.52h-2.076a.3.3,0,0,1,0-.593h2.076a.3.3,0,1,1,0,.593Zm-1.779,1.038h-.3a.3.3,0,1,1,0-.593h.3a.3.3,0,0,1,0,.593Z" transform="translate(-143.542 -107.564)"/><path class="b" d="M202.774,503.451h-1.335a.3.3,0,0,1,0-.593h1.335a.3.3,0,1,1,0,.593Z" transform="translate(-143.542 -350.419)"/><path class="b" d="M202.329,567.451h-.89a.3.3,0,0,1,0-.593h.89a.3.3,0,0,1,0,.593Z" transform="translate(-143.543 -413.381)"/></g></g></svg>