<svg xmlns="http://www.w3.org/2000/svg" width="88.001" height="87.892" viewBox="0 0 88.001 87.892">
  <g id="consNum" transform="translate(-52 -43.042)">
    <path id="路径_3949" data-name="路径 3949" d="M192.531,118.691v65.791a8.8,8.8,0,0,1-8.8,8.79H117.857a13.319,13.319,0,0,1-13.327-13.311V118.691a13.308,13.308,0,0,1,13.327-13.311H179.2a13.319,13.319,0,0,1,13.327,13.311Z" transform="translate(-52.53 -62.338)" fill="none"/>
    <g id="组_26762" data-name="组 26762" transform="translate(58.759 55.588)">
      <path id="路径_2891" data-name="路径 2891" d="M103.892,201.276a16.706,16.706,0,0,0,5-12.094,16.934,16.934,0,0,0-16.234-16.59,16.754,16.754,0,0,0-12.284,28.684A27.915,27.915,0,0,0,64.2,226.586q0,1.132.089,2.244a3.7,3.7,0,0,0,3.718,3.342,3.752,3.752,0,0,0,3.7-4.109,19.793,19.793,0,0,1,1.02-7.9,20.458,20.458,0,0,1,39.89,6.43q0,.737-.054,1.459a3.761,3.761,0,0,0,3.7,4.128,3.7,3.7,0,0,0,3.713-3.345q.089-1.109.09-2.244A27.911,27.911,0,0,0,103.892,201.276Zm-11.76-2.622a9.309,9.309,0,1,1,9.309-9.309A9.309,9.309,0,0,1,92.132,198.654Z" transform="translate(-64.2 -169.378)"/>
      <path id="路径_2892" data-name="路径 2892" d="M636.049,162.185a16.756,16.756,0,0,0-7.08-28.03,3.668,3.668,0,0,0-4.679,3.526v.091a3.794,3.794,0,0,0,2.765,3.588,9.309,9.309,0,0,1,.028,17.774,4.148,4.148,0,0,0-2.793,4,4.259,4.259,0,0,0,3.55,4.185,20.517,20.517,0,0,1,16.933,20.176q0,.737-.055,1.459a3.762,3.762,0,0,0,3.7,4.128,3.7,3.7,0,0,0,3.714-3.345q.089-1.11.089-2.244A27.905,27.905,0,0,0,636.049,162.185Z" transform="translate(-577.737 -134.009)"/>
    </g>
  </g>
</svg>
