<svg xmlns="http://www.w3.org/2000/svg" width="18" height="18" viewBox="0 0 18 18">
  <g id="控制事件" transform="translate(-24 -830)">
    <rect id="矩形_5964" data-name="矩形 5964" width="18" height="18" transform="translate(24 830)" fill="none"/>
    <path id="联合_1260" data-name="联合 1260" d="M23619.742-12870.713H23615V-12883h15.336v12.288h-8.082v-1.127h6.955v-10.034h-13.082v10.034h4.252v.006l2.023,3.777Zm4.787-2.574c-.209,0-.375-.1-.375-.231v-.469a2.9,2.9,0,0,1-1.76-1.014l-.4.231a.191.191,0,0,1-.082.023.4.4,0,0,1-.3-.226l-.113-.2c-.1-.178-.1-.374.018-.438l.4-.231a2.84,2.84,0,0,1-.186-1.021,2.83,2.83,0,0,1,.186-1.014l-.4-.231c-.113-.065-.119-.261-.018-.438l.113-.2a.4.4,0,0,1,.3-.226.129.129,0,0,1,.082.024l.4.231a2.9,2.9,0,0,1,1.76-1.015v-.469c0-.13.166-.237.375-.237h.225c.2,0,.367.107.367.237v.469a2.906,2.906,0,0,1,1.762,1.015l.4-.231a.129.129,0,0,1,.082-.024.382.382,0,0,1,.3.226l.113.2c.105.178.094.373-.018.438l-.4.231a2.828,2.828,0,0,1,.184,1.014,2.838,2.838,0,0,1-.184,1.021l.4.231a.2.2,0,0,1,.094.178.5.5,0,0,1-.076.261l-.113.2a.382.382,0,0,1-.3.226.191.191,0,0,1-.082-.023l-.4-.231a2.9,2.9,0,0,1-1.762,1.014v.469c0,.131-.166.231-.367.231Zm-1.756-3.57a1.867,1.867,0,0,0,1.867,1.868,1.867,1.867,0,0,0,1.863-1.868,1.866,1.866,0,0,0-1.863-1.862A1.867,1.867,0,0,0,23622.773-12876.857Zm-5.271,3.279v-.919h3.943v.919Zm0-2.639v-.919h3.09v.919Zm0-2.645v-.92h3.09v.92Z" transform="translate(-23589.666 13714.526)" fill=""/>
  </g>
</svg>
