<svg xmlns="http://www.w3.org/2000/svg" width="18" height="18" viewBox="0 0 18 18"><defs><style>.a{fill:none;}.b{}</style></defs><g transform="translate(-24 -480)"><rect class="a" width="18" height="18" transform="translate(24 480)"/><g transform="translate(-95.348 400.499)"><path class="b" d="M259.546,218.8a.391.391,0,0,0-.373-.406h-2.115a.408.408,0,0,0,0,.812h2.115A.391.391,0,0,0,259.546,218.8Zm-2.441-1.626h4.846a.406.406,0,1,0,0-.812h-4.846a.406.406,0,1,0,0,.812Zm6.13,4.6-.432.747a.865.865,0,0,1,.316,1.181l.749.432A1.728,1.728,0,0,0,263.236,221.775Zm-1.475.885a.866.866,0,0,1,.612-.253v-.864a1.728,1.728,0,0,0-1.729,1.728h.864A.866.866,0,0,1,261.761,222.661Zm-.138,1.043-.747.432a1.728,1.728,0,0,0,2.36.632l-.432-.749A.865.865,0,0,1,261.623,223.7Z" transform="translate(-132.347 -132.333)"/><path class="b" d="M134.088,90.939a4.061,4.061,0,0,0-2.031-3.512V84.042A2.044,2.044,0,0,0,130.015,82h-5.665a2.043,2.043,0,0,0-2.042,2.041V92.96A2.043,2.043,0,0,0,124.349,95h5.818a2.2,2.2,0,0,0,.37-.036A4.066,4.066,0,0,0,134.088,90.939Zm-9.739,3.25a1.23,1.23,0,0,1-1.229-1.228V84.042a1.23,1.23,0,0,1,1.23-1.228h.414a.231.231,0,0,0,.023,0h2.121c.008,0,.015,0,.023,0h3.085a1.23,1.23,0,0,1,1.23,1.228v3.022a4.058,4.058,0,0,0-3.646,7.125h-3.25Zm6.378-.078h-.109a1.778,1.778,0,0,1-.217.055l-.024,0c-.015,0-.029,0-.044,0-.1.01-.2.015-.307.015a3.258,3.258,0,1,1,.7-.078Z" transform="translate(0 0)"/></g></g></svg>