<?xml version="1.0" standalone="no"?><!DOCTYPE svg PUBLIC "-//W3C//DTD SVG 1.1//EN" "http://www.w3.org/Graphics/SVG/1.1/DTD/svg11.dtd"><svg t="1677807581059" class="icon" viewBox="0 0 1024 1024" version="1.1" xmlns="http://www.w3.org/2000/svg" p-id="6780" xmlns:xlink="http://www.w3.org/1999/xlink" width="200" height="200"><path d="M960.1728 896H64.1728v-128h896v128zM64.1728 320l448-256 448 256H64.1728z" fill="#2c2c2c" p-id="6781"></path><path d="M991.4688 323.968h0.64c15.552 0 28.8-8.96 31.552-21.44 2.752-12.416-5.952-24.704-20.544-28.992L526.8288 67.072a38.464 38.464 0 0 0-30.08 0L17.0048 275.072c-12.928 5.632-19.456 17.664-15.872 29.248 3.52 11.52 16.32 19.648 30.976 19.648h63.936v416h-32c-14.656 0-27.456 8.128-30.976 19.712l-32 104a22.336 22.336 0 0 0 5.76 22.336C12.9728 892.288 22.3168 896 32.1728 896h959.936a34.24 34.24 0 0 0 27.008-12.16 21.888 21.888 0 0 0 1.92-25.024l-30.528-99.136c-3.584-11.52-16.384-19.712-31.04-19.712h-32v-416h64zM511.7888 119.424L863.5328 272H160.0448l351.744-152.576z m351.744 204.544v416h-127.872v-416h127.872z m-191.872 0v416H543.7888v-416h127.872z m-191.808 0v416H351.9168v-416h127.936z m-319.808 0h127.936v416H160.0448v-416z m790.464 520H73.1328l16-51.968h845.44l16 51.968z" fill="#2c2c2c" p-id="6782"></path></svg>