<svg xmlns="http://www.w3.org/2000/svg" width="88.002" height="87.892" viewBox="0 0 88.002 87.892">
  <g id="endTime" transform="translate(-52 -43.042)">
    <path id="路径_3950" data-name="路径 3950" d="M192.532,118.691v65.791a8.8,8.8,0,0,1-8.8,8.79H117.857a13.319,13.319,0,0,1-13.327-13.311V118.691a13.308,13.308,0,0,1,13.327-13.311H179.2a13.319,13.319,0,0,1,13.327,13.311Z" transform="translate(-52.53 -62.338)" fill="none"/>
    <path id="路径_2893" data-name="路径 2893" d="M214.916,199.222a1.583,1.583,0,0,1-1.583-1.583v-4.748a1.587,1.587,0,0,1,1.583-1.583h2.374v-7.914a23.717,23.717,0,0,1,10.616-19.784,23.7,23.7,0,0,1-10.616-19.784v-7.914h-2.374a1.583,1.583,0,0,1-1.583-1.583v-4.748A1.587,1.587,0,0,1,214.916,128h52.229a1.587,1.587,0,0,1,1.583,1.583v4.748a1.583,1.583,0,0,1-1.583,1.583h-2.374v7.914a23.716,23.716,0,0,1-10.616,19.784,23.7,23.7,0,0,1,10.616,19.784v7.914h2.374a1.587,1.587,0,0,1,1.583,1.583v4.748a1.583,1.583,0,0,1-1.583,1.583Zm26.115-31.654-.791.02A15.827,15.827,0,0,0,225.2,183.395v7.914h31.654v-7.914l-.02-.791A15.827,15.827,0,0,0,241.031,167.568Zm0,3.957a9.892,9.892,0,0,1,9.892,9.892v5.935H231.139v-5.935a9.892,9.892,0,0,1,9.892-9.892Zm15.827-35.611H225.2v7.914a15.827,15.827,0,0,0,15.036,15.807l.791.02a15.827,15.827,0,0,0,15.807-15.036l.02-.791v-7.914Z" transform="translate(-145.03 -76.622)"/>
  </g>
</svg>
