<svg xmlns="http://www.w3.org/2000/svg" width="18" height="18" viewBox="0 0 18 18">
  <g id="icon-运行环境" transform="translate(-21 -636)">
    <rect id="矩形_308" data-name="矩形 308" width="18" height="18" transform="translate(21 636)" fill="none"/>
    <path id="联合_254" data-name="联合 254" d="M-1506.731-1117.067a6.444,6.444,0,0,1-2.278-1.841,6.459,6.459,0,0,1-1-1.823,6.456,6.456,0,0,1-.373-2.168,6.491,6.491,0,0,1,.088-1.066,1.5,1.5,0,0,1-.6-1.2,1.5,1.5,0,0,1,1.5-1.5,1.511,1.511,0,0,1,.213.015,6.461,6.461,0,0,1,1.3-1.355.49.49,0,0,1,.044-.031,6.474,6.474,0,0,1,1.951-1.029q0-.05,0-.1a1.5,1.5,0,0,1,1.5-1.5,1.5,1.5,0,0,1,1.5,1.5,1.5,1.5,0,0,1-1.5,1.5,1.5,1.5,0,0,1-1.1-.477,5.5,5.5,0,0,0-2.795,1.967,1.5,1.5,0,0,1,.391,1.01,1.5,1.5,0,0,1-1.426,1.5,5.494,5.494,0,0,0,.271,2.641l.006.015.012.031a5.515,5.515,0,0,0,2.716,3,5.51,5.51,0,0,0,4.279.241,5.506,5.506,0,0,0,2.358-1.656,1.493,1.493,0,0,1-.215-.774,1.5,1.5,0,0,1,1.339-1.492,5.475,5.475,0,0,0-1.018-4.615.5.5,0,0,1,.086-.7.5.5,0,0,1,.7.086,6.451,6.451,0,0,1,1.371,3.936.513.513,0,0,1,0,.055,6.481,6.481,0,0,1-.168,1.471,1.5,1.5,0,0,1,.685,1.259,1.5,1.5,0,0,1-1.5,1.5,1.5,1.5,0,0,1-.511-.089,6.494,6.494,0,0,1-1,.968,6.461,6.461,0,0,1-1.8.993,6.456,6.456,0,0,1-2.191.381A6.445,6.445,0,0,1-1506.731-1117.067Zm1.832-6.1a1.5,1.5,0,0,1,1.5-1.5,1.5,1.5,0,0,1,1.5,1.5,1.5,1.5,0,0,1-1.5,1.5A1.5,1.5,0,0,1-1504.9-1123.169Z" transform="translate(1533.899 1768.669)" fill="#a6c8ff"/>
  </g>
</svg>
