<svg xmlns="http://www.w3.org/2000/svg" width="18" height="18" viewBox="0 0 18 18"><defs><style>.a{fill:none;}.b{}</style></defs><g transform="translate(-24 -230)"><path class="a" d="M0,0H18V18H0Z" transform="translate(24 230)"/><path class="b" d="M220.917,209.716h-3.806c.16.246.7.608,1.9.608S220.761,209.972,220.917,209.716Zm-1.906-4.013c1.259,0,1.8-.383,1.924-.641H217.09c.132.243.657.641,1.921.641Zm2.984-3.1h-5.967l-1.189,1.226h8.349Zm1.939,7.113h-1.74c-.1.939-1.089,1.843-3.18,1.843s-3.082-.928-3.18-1.843h-1.74a.618.618,0,0,0-.618.618v2.185a.618.618,0,0,0,.618.618h9.843a.618.618,0,0,0,.618-.618v-2.185A.625.625,0,0,0,223.934,209.716Zm0-4.654H222.2c-.072.951-1.065,1.877-3.183,1.877s-3.105-.951-3.183-1.877h-1.737a.618.618,0,0,0-.618.618v2.187a.618.618,0,0,0,.618.618h9.843a.618.618,0,0,0,.618-.618V205.68A.625.625,0,0,0,223.934,205.062Zm1.851,2.8a1.837,1.837,0,0,1-.476,1.233,1.841,1.841,0,0,1,.476,1.233v2.185a1.853,1.853,0,0,1-1.851,1.851h-9.846a1.853,1.853,0,0,1-1.851-1.851v-2.185a1.836,1.836,0,0,1,.476-1.233,1.841,1.841,0,0,1-.476-1.233v-2.187a1.851,1.851,0,0,1,.53-1.3.614.614,0,0,1,.165-.37l2.389-2.459a.62.62,0,0,1,.442-.186h6.492a.616.616,0,0,1,.442.186l2.386,2.459a.614.614,0,0,1,.165.37,1.84,1.84,0,0,1,.53,1.3v2.187Z" transform="translate(-186.011 31.133)"/></g></svg>