<svg xmlns="http://www.w3.org/2000/svg" width="88" height="87.998" viewBox="0 0 88 87.998">
  <g id="finishRate" transform="translate(-54 -45.043)">
    <path id="路径_3949" data-name="路径 3949" d="M192.53,118.707v65.871a8.807,8.807,0,0,1-8.8,8.8H117.857a13.327,13.327,0,0,1-13.327-13.327V118.707a13.316,13.316,0,0,1,13.327-13.327H179.2A13.327,13.327,0,0,1,192.53,118.707Z" transform="translate(-50.53 -60.338)" fill="none"/>
    <g id="组_28243" data-name="组 28243" transform="translate(60.965 56.68)">
      <path id="路径_4063" data-name="路径 4063" d="M595.643,578.654a3.191,3.191,0,0,1-2.257-.934l-12.645-12.645a3.191,3.191,0,1,1,4.513-4.513l10.389,10.387,10.385-10.387a3.191,3.191,0,1,1,4.513,4.513L597.9,577.72A3.177,3.177,0,0,1,595.643,578.654Z" transform="translate(-537.024 -523.357)"/>
      <path id="路径_4064" data-name="路径 4064" d="M721.318,218.163a3.192,3.192,0,0,1-3.192-3.192V166.054a3.192,3.192,0,0,1,6.383,0v48.913a3.192,3.192,0,0,1-3.191,3.2Z" transform="translate(-662.702 -162.863)"/>
      <path id="路径_4065" data-name="路径 4065" d="M128.5,222.773H96.259a3.191,3.191,0,0,1,0-6.383H128.5a3.191,3.191,0,1,1,0,6.383Z" transform="translate(-93.068 -211.496)"/>
      <path id="路径_4066" data-name="路径 4066" d="M128.5,530.369H96.259a3.191,3.191,0,1,1,0-6.383H128.5a3.191,3.191,0,1,1,0,6.383Z" transform="translate(-93.068 -492.105)"/>
      <path id="路径_4067" data-name="路径 4067" d="M162.528,837.988H96.17a3.193,3.193,0,0,1,0-6.383h66.358a3.193,3.193,0,0,1,0,6.383Z" transform="translate(-93.068 -772.567)"/>
    </g>
  </g>
</svg>
