<svg xmlns="http://www.w3.org/2000/svg" width="88.004" height="87.894" viewBox="0 0 88.004 87.894">
  <g id="groupName" transform="translate(-52 -43.042)">
    <path id="路径_3948" data-name="路径 3948" d="M192.534,118.691v65.793a8.8,8.8,0,0,1-8.8,8.79H117.857a13.319,13.319,0,0,1-13.327-13.311V118.691a13.309,13.309,0,0,1,13.327-13.311h61.349a13.319,13.319,0,0,1,13.327,13.311Z" transform="translate(-52.53 -62.338)" fill="none"/>
    <path id="联合_1038" data-name="联合 1038" d="M6.848,66.008A6.832,6.832,0,0,1,0,59.156V6.844A6.832,6.832,0,0,1,6.848-.008H59.156a6.833,6.833,0,0,1,6.852,6.852V59.156a6.833,6.833,0,0,1-6.852,6.852ZM5.59,6.844V59.156a1.2,1.2,0,0,0,1.258,1.266H59.156a1.2,1.2,0,0,0,1.262-1.266V6.844a1.188,1.188,0,0,0-1.262-1.258H6.848A1.187,1.187,0,0,0,5.59,6.844ZM33,53.055A4,4,0,0,1,28.949,49V37.078H16.766a4.033,4.033,0,0,1-4.07-4.07V16.766a4.035,4.035,0,0,1,4.07-4.078H33a4.02,4.02,0,0,1,4.055,4.078V28.688H49a4,4,0,0,1,4.051,4.078V49a3.951,3.951,0,0,1-3.8,4.055Zm1.535-5.57H47.723V34.273H34.539Zm-16-16h13.2V18.531h-13.2Z" transform="translate(62.997 54.001)"/>
  </g>
</svg>
