<svg xmlns="http://www.w3.org/2000/svg" width="18" height="18" viewBox="0 0 18 18"><defs><style>.a{fill:none;}.b{fill:#616161;}</style></defs><g transform="translate(-24 -80)"><rect class="a" width="18" height="18" transform="translate(24 80)"/><g transform="translate(103.159 57.137)"><path class="b" d="M10.929,12.747H3.642V11.288h7.287v1.458Zm2.915-2.553H.728A.728.728,0,0,1,0,9.467V.725A.727.727,0,0,1,.728,0H13.844a.727.727,0,0,1,.728.725V9.467A.728.728,0,0,1,13.844,10.194Zm-7.65-5.16h0l1.67,1.673a.709.709,0,0,0,.512.211.728.728,0,0,0,.516-.211l1.974-1.976L9.836,3.7,8.377,5.159,6.706,3.488a.715.715,0,0,0-.512-.213.723.723,0,0,0-.515.213L3.7,5.459,4.735,6.491,6.193,5.034Z" transform="translate(-77.445 25.489)"/></g></g></svg>