<svg xmlns="http://www.w3.org/2000/svg" width="88" height="87.89" viewBox="0 0 88 87.89">
  <g id="loadValue" transform="translate(-52 -43.042)">
    <path id="路径_3945" data-name="路径 3945" d="M192.53,118.69v65.79a8.8,8.8,0,0,1-8.8,8.79H117.857a13.319,13.319,0,0,1-13.327-13.31V118.69a13.308,13.308,0,0,1,13.327-13.31H179.2a13.319,13.319,0,0,1,13.327,13.31Z" transform="translate(-52.53 -62.338)" fill="none"/>
    <path id="联合_1037" data-name="联合 1037" d="M8.527,63.4A8.659,8.659,0,0,1,0,54.656V8.766A8.685,8.685,0,0,1,8.527,0H52.652a8.7,8.7,0,0,1,8.633,8.766V26.3a2.5,2.5,0,0,1-5,0V8.766a3.693,3.693,0,0,0-3.633-3.781H8.527A3.7,3.7,0,0,0,5,8.766V54.656a3.712,3.712,0,0,0,3.617,3.781H34.836a2.481,2.481,0,1,1,0,4.961Zm36.148-2.516c-.516-6.359-.516-6.359-.141-6.992l12.07-19.9a1.962,1.962,0,0,1,1.266-.914,2.451,2.451,0,0,1,1.773.18l5.785,3.414a2.058,2.058,0,0,1,.938,1.289v.086a2.2,2.2,0,0,1-.215,1.68L54.117,59.594c-.426.688-.426.688-6.59,3.047a2.128,2.128,0,0,1-.766.125A2.088,2.088,0,0,1,44.676,60.883Zm3.754-5.4a13.084,13.084,0,0,0,.164,2.3l2.258-.883,10.7-17.609-2.41-1.43Zm-31.5-9.711a2.481,2.481,0,1,1,0-4.961h14.8a2.481,2.481,0,1,1,0,4.961Zm0-12.117a2.477,2.477,0,1,1,0-4.953H37.8a2.477,2.477,0,1,1,0,4.953Zm0-12.125a2.484,2.484,0,1,1,0-4.969H44.262a2.484,2.484,0,1,1,0,4.969Z" transform="translate(62.777 55.298)"/>
  </g>
</svg>
