<svg xmlns="http://www.w3.org/2000/svg" width="18" height="18" viewBox="0 0 18 18"><defs><style>.a{fill:none;}.b{}</style></defs><g transform="translate(-24 -580)"><path class="a" d="M0,0H18V18H0Z" transform="translate(24 580)"/><path class="b" d="M86.863,180.991v-6.883a3.427,3.427,0,0,1,3.441-3.441,3.535,3.535,0,0,1,3.441,3.059v4.589h4.589v-7.265a.382.382,0,1,1,.765,0v7.265a3.059,3.059,0,1,1-6.118,0v-4.589H87.627v7.265a.382.382,0,0,1-.765,0Zm13.383,1.147H85.715a.382.382,0,1,0,0,.765h14.53a.382.382,0,1,0,0-.765Z" transform="translate(-59.981 412.096)"/></g></svg>