<svg xmlns="http://www.w3.org/2000/svg" width="18" height="18" viewBox="0 0 18 18"><defs><style>.a{fill:none;}.b{}</style></defs><g transform="translate(-24 -430)"><rect class="a" width="18" height="18" transform="translate(24 430)"/><path class="b" d="M71.429,68.643h1.857l-3.714,4.736V70.5H67.714l3.714-4.55ZM77,76.536a.439.439,0,0,1-.464.464H64.464a.464.464,0,1,1,0-.929h4.179v-.929H65.857A1.863,1.863,0,0,1,64,73.286V65.857A1.863,1.863,0,0,1,65.857,64h9.286A1.863,1.863,0,0,1,77,65.857v7.429a1.863,1.863,0,0,1-1.857,1.857H72.357v.929h4.179A.439.439,0,0,1,77,76.536Zm-.929-10.679a.877.877,0,0,0-.929-.929H65.857a.877.877,0,0,0-.929.929v7.429a.877.877,0,0,0,.929.929h9.286a.877.877,0,0,0,.929-.929Z" transform="translate(-37.5 368.5)"/></g></svg>