<svg xmlns="http://www.w3.org/2000/svg" width="18" height="18" viewBox="0 0 18 18"><defs><style>.a{fill:#a6c8ff;}.b{fill:none;}</style></defs><g transform="translate(-24 -388)"><g transform="translate(22.244 321.968)"><path class="a" d="M78.164,76.8a.488.488,0,0,1-.468-.5V74.059a.47.47,0,1,1,.937,0V76.3A.487.487,0,0,1,78.164,76.8Zm9.916,5.23H80.038A2.44,2.44,0,0,1,77.7,79.509v-.326a.47.47,0,1,1,.937,0v.326a1.464,1.464,0,0,0,1.405,1.513H88.08a1.464,1.464,0,0,0,1.405-1.513V76.486a.47.47,0,1,1,.937,0v3.022A2.44,2.44,0,0,1,88.08,82.032Zm1.874-8.083a.487.487,0,0,1-.468-.5v-2.89a1.464,1.464,0,0,0-1.405-1.514H80.038a1.464,1.464,0,0,0-1.405,1.514v.24a.47.47,0,1,1-.937,0v-.24a2.441,2.441,0,0,1,2.342-2.523H88.08a2.44,2.44,0,0,1,2.342,2.523v2.89A.487.487,0,0,1,89.954,73.949Z" transform="translate(-73.784)"/><path class="a" d="M16.148,319.774a1.608,1.608,0,1,1,1.609-1.609A1.611,1.611,0,0,1,16.148,319.774Zm0-2.467a.859.859,0,1,0,.86.857.859.859,0,0,0-.86-.857ZM5.5,316.265H3.284a.468.468,0,0,1,0-.937h2.21a.468.468,0,0,1,0,.937Zm0,4.846H3.284a.468.468,0,0,1,0-.937h2.21a.468.468,0,0,1,0,.937Z" transform="translate(0 -243.174)"/><path class="a" d="M58.165,56.146l-.026.035L55.39,61.174a.216.216,0,0,0-.019.148.14.14,0,0,0,.074.1l.029.006h2.075c.057,0,.1.064.108.147l0,.042-.375,2.725a.2.2,0,0,0,.045.161.08.08,0,0,0,.118,0l.026-.034,2.749-4.994a.217.217,0,0,0,.018-.148.14.14,0,0,0-.074-.1l-.029-.006H58.06c-.057,0-.1-.064-.109-.147l0-.043.375-2.724a.2.2,0,0,0-.045-.161A.081.081,0,0,0,58.165,56.146Z" transform="translate(-47.518 14.717)"/></g><rect class="b" width="18" height="18" transform="translate(24 388)"/></g></svg>