<svg xmlns="http://www.w3.org/2000/svg" width="18" height="18" viewBox="0 0 18 18"><defs><style>.a{fill:none;}.b{}</style></defs><g transform="translate(-24 -180)"><path class="a" d="M0,0H18V18H0Z" transform="translate(24 180)"/><g transform="translate(-43.905 119.595)"><path class="b" d="M153.5,65.156a.414.414,0,0,1-.208-.773l3.93-2.269a1.264,1.264,0,0,1,1.26,0l2.5,1.446a.414.414,0,0,1-.414.718l-2.5-1.446a.432.432,0,0,0-.431,0L153.7,65.1A.413.413,0,0,1,153.5,65.156Zm6.969,8.806a.414.414,0,0,1-.208-.773l2.517-1.453a.433.433,0,0,0,.216-.374V66.877a.414.414,0,1,1,.829,0v4.485a1.264,1.264,0,0,1-.63,1.091l-2.517,1.453A.415.415,0,0,1,160.466,73.962Zm-3.822.817a.413.413,0,0,1-.207-.056l-3.927-2.267a1.264,1.264,0,0,1-.63-1.091V68.513a.414.414,0,1,1,.829,0v2.852a.432.432,0,0,0,.216.374l3.927,2.267a.414.414,0,0,1-.208.773Zm1.2-3.822a2.28,2.28,0,1,1,2.28-2.28A2.283,2.283,0,0,1,157.849,70.958Zm0-3.732a1.451,1.451,0,1,0,1.451,1.451A1.453,1.453,0,0,0,157.849,67.226Z" transform="translate(-80.943)"/><path class="b" d="M404.925,747.939a1.8,1.8,0,0,1-1.563-2.708.414.414,0,0,1,.717.415.976.976,0,1,0,.845-.488.414.414,0,1,1,0-.829,1.8,1.8,0,0,1,0,3.609Z" transform="translate(-328.018 -671.074)"/><path class="b" d="M487.414,178.516A.414.414,0,0,1,487,178.1v-4.517a.414.414,0,0,1,.829,0V178.1A.414.414,0,0,1,487.414,178.516Zm5.556-8.184a.414.414,0,0,1-.008-.829.976.976,0,1,0-.866-.488.414.414,0,0,1-.718.414,1.8,1.8,0,1,1,1.6.9Z" transform="translate(-410.508 -103.042)"/><path class="b" d="M584.9,253.665a.414.414,0,0,1-.208-.773l3.912-2.259a.414.414,0,1,1,.414.718l-3.912,2.259A.413.413,0,0,1,584.9,253.665Z" transform="translate(-506.38 -185.506)"/><path class="b" d="M71.376,170.331a1.8,1.8,0,1,1,1.526-2.774.414.414,0,1,1-.7.444.966.966,0,0,0-.336-.321.976.976,0,1,0,.357,1.333.414.414,0,0,1,.718.414,1.793,1.793,0,0,1-1.1.841A1.812,1.812,0,0,1,71.376,170.331Z" transform="translate(0 -103.04)"/><path class="b" d="M157.823,253.665a.413.413,0,0,1-.207-.056l-3.912-2.259a.414.414,0,1,1,.414-.718l3.912,2.259a.414.414,0,0,1-.208.773Z" transform="translate(-82.533 -185.506)"/><path class="b" d="M481.907,435m-.507,0a.507.507,0,1,0,.507-.507A.507.507,0,0,0,481.4,435Z" transform="translate(-405.001 -366.37)"/><path class="b" d="M481.415,435.021a.515.515,0,1,1,.515-.515A.516.516,0,0,1,481.415,435.021Zm0-1.014a.5.5,0,1,0,.5.5A.5.5,0,0,0,481.415,434.007Z" transform="translate(-404.509 -365.878)"/></g></g></svg>