<svg xmlns="http://www.w3.org/2000/svg" width="18" height="18" viewBox="0 0 18 18"><defs><style>.a,.b,.d{fill:none;}.b,.d{stroke:#a6c8ff;}.c{fill:#a6c8ff;}.d{stroke-linecap:round;stroke-width:0.8px;}.e{stroke:none;}</style></defs><g transform="translate(-24 -343)"><rect class="a" width="18" height="18" transform="translate(24 343)"/><g transform="translate(-0.5 1)"><g class="b" transform="translate(26 344)"><rect class="e" width="15" height="10" rx="1"/><rect class="a" x="0.5" y="0.5" width="14" height="9" rx="0.5"/></g><rect class="c" width="1" height="4" transform="translate(31 354)"/><rect class="c" width="1" height="4" transform="translate(36 354)"/><path class="c" d="M1,0H13a1,1,0,0,1,1,1V1a0,0,0,0,1,0,0H0A0,0,0,0,1,0,1V1A1,1,0,0,1,1,0Z" transform="translate(27 357)"/><path class="d" d="M2.083,0A2.083,2.083,0,1,1,0,2.083" transform="matrix(-0.259, 0.966, -0.966, -0.259, 35.774, 347.5)"/><circle class="c" cx="0.75" cy="0.75" r="0.75" transform="translate(34.5 346.939)"/><path class="d" d="M37.974,346.489l1.058-.9h1.952" transform="translate(-2.32 0.971)"/><path class="d" d="M37.939,350.912l.715.913h3.134" transform="translate(-3.238 -0.373)"/><path class="d" d="M33.255,346.263l-1.52-1.035H29.72" transform="translate(-1.235 1)"/><path class="d" d="M32.252,348.5h-2" transform="translate(-1.803 0.739)"/><path class="d" d="M32.252,348.5h-2" transform="translate(-1.803 3.023)"/></g></g></svg>