<svg xmlns="http://www.w3.org/2000/svg" width="88" height="87.895" viewBox="0 0 88 87.895">
  <g id="name" transform="translate(-58.001 -43.04)">
    <path id="路径_3943" data-name="路径 3943" d="M192.53,118.691v65.793a8.8,8.8,0,0,1-8.8,8.791H117.857a13.319,13.319,0,0,1-13.327-13.311V118.691a13.308,13.308,0,0,1,13.327-13.311H179.2A13.319,13.319,0,0,1,192.53,118.691Z" transform="translate(-46.529 -62.34)" fill="none"/>
    <path id="联合_1035" data-name="联合 1035" d="M50.148,65.883H4.313A4.373,4.373,0,0,1,0,61.516V4.469A4.558,4.558,0,0,1,1.25,1.3,4.22,4.22,0,0,1,4.313,0H50.148a4.144,4.144,0,0,1,3.043,1.3,4.508,4.508,0,0,1,1.266,3.172V61.516a4.373,4.373,0,0,1-4.285,4.367Zm-3.031-4.367a2.36,2.36,0,0,0,2.324-2.391V8.008a2.421,2.421,0,0,0-.676-1.7,2.25,2.25,0,0,0-1.648-.719H7.754a2.364,2.364,0,0,0-1.691.688,2.5,2.5,0,0,0-.687,1.734v51.1a2.448,2.448,0,0,0,.672,1.7,2.232,2.232,0,0,0,1.648.7H47.117ZM42.262,49.531H13.387a2.615,2.615,0,0,1-2.25-.773,2.8,2.8,0,0,1-.766-2.336,2.813,2.813,0,0,1,.75-2.336,2.579,2.579,0,0,1,2.266-.773H42.262a2.561,2.561,0,0,1,2.266.773,2.8,2.8,0,0,1,.75,2.336,2.825,2.825,0,0,1-.75,2.336,2.564,2.564,0,0,1-1.875.8A2.208,2.208,0,0,1,42.262,49.531Zm0-14.211H13.387a2.6,2.6,0,0,1-2.266-.773,2.821,2.821,0,0,1-.75-2.336,2.845,2.845,0,0,1,.766-2.32,2.65,2.65,0,0,1,2.25-.758H42.262a2.627,2.627,0,0,1,2.266.773,2.817,2.817,0,0,1,.75,2.344,2.826,2.826,0,0,1-.762,2.313,2.6,2.6,0,0,1-1.871.789A2.109,2.109,0,0,1,42.262,35.32ZM27.227,21.18H13.387a2.566,2.566,0,0,1-2.25-.8,2.718,2.718,0,0,1-.766-2.3,2.854,2.854,0,0,1,.75-2.352,2.623,2.623,0,0,1,2.266-.773h13.84a2.616,2.616,0,0,1,2.27.773,2.839,2.839,0,0,1,.746,2.352,2.7,2.7,0,0,1-.762,2.3,2.589,2.589,0,0,1-1.883.828A2.012,2.012,0,0,1,27.227,21.18Z" transform="translate(74.773 54.052)"/>
  </g>
</svg>
