<svg xmlns="http://www.w3.org/2000/svg" width="24" height="24" viewBox="0 0 24 24"><defs><style>.a{fill:none;}.b{fill:#00e5e5;}</style></defs><g transform="translate(0.497)"><rect class="a" width="24" height="24" transform="translate(-0.497)"/><path class="b" d="M130.347,52.856h-.367V51.438a4.892,4.892,0,1,0-9.784,0v1.418h-.366a2.492,2.492,0,0,0-2.488,2.489v6.987a2.491,2.491,0,0,0,2.488,2.487h10.518a2.492,2.492,0,0,0,2.488-2.488V55.344a2.491,2.491,0,0,0-2.488-2.488Zm-8.781-1.418a3.522,3.522,0,1,1,7.043,0v1.418h-7.043Zm9.9,10.893a1.119,1.119,0,0,1-1.117,1.117H119.829a1.119,1.119,0,0,1-1.117-1.117V55.344a1.119,1.119,0,0,1,1.117-1.118h10.518a1.119,1.119,0,0,1,1.117,1.118v6.987ZM126.234,58.1a1.133,1.133,0,0,1-.376.837v.967a.77.77,0,1,1-1.54,0v-.967a1.13,1.13,0,0,1-.376-.837,1.146,1.146,0,0,1,2.291,0Z" transform="translate(-112.836 -43.385)"/></g></svg>