<svg xmlns="http://www.w3.org/2000/svg" width="18" height="18" viewBox="0 0 18 18">
  <defs>
    <style>
      .cls-1 {
        fill: none;
      }

      .cls-2 {
       
      }
    </style>
  </defs>
  <g id="权限" transform="translate(-24 -780)">
    <rect id="矩形_5963" data-name="矩形 5963" class="cls-1" width="18" height="18" transform="translate(24 780)"/>
    <path id="路径_2417" data-name="路径 2417" class="cls-2" d="M15.264,12.614a1.61,1.61,0,0,0,0-2.332,1.863,1.863,0,0,0-2.443-.111,1.609,1.609,0,0,0,0,2.332,1.747,1.747,0,0,0,2.443.111ZM13.6,11.837a.55.55,0,1,1,.777,0A.537.537,0,0,1,13.6,11.837ZM5.823,20.389a.55.55,0,0,1-.777-.777l5.887-5.887-.222-.333a4.03,4.03,0,0,1,.555-4.776,3.757,3.757,0,0,1,5.442,0,3.854,3.854,0,0,1,0,5.442,3.716,3.716,0,0,1-4.665.666L11.71,14.5,9.266,16.946l1.222,1.222a.55.55,0,0,0,.777-.777l-.333-.444,1-1a4.906,4.906,0,0,0,5.664-1,4.962,4.962,0,0,0,0-7.108,5.062,5.062,0,0,0-7.108,0,5.124,5.124,0,0,0-1,5.664L4.157,18.834a1.61,1.61,0,0,0,0,2.332,1.61,1.61,0,0,0,2.332,0l1.222-1.222-.777-.666L5.823,20.389Zm4.665-.777-2-2-.777.889,2,2a.537.537,0,0,0,.777,0A.672.672,0,0,0,10.488,19.612Z" transform="translate(21.624 774.977)"/>
  </g>
</svg>
