<svg xmlns="http://www.w3.org/2000/svg" width="30" height="18" viewBox="0 0 30 18">
  <path id="联合_840" data-name="联合 840" d="M2.745,18a.493.493,0,0,1,0-.986H13.3a.493.493,0,1,1,0,.986Zm1.478-2.1a.561.561,0,0,1-.563-.558v-5.3a4.444,4.444,0,0,1,1-2.8A4.533,4.533,0,0,1,7.165,5.691a5.953,5.953,0,0,0,5.5,5.138v4.513a.561.561,0,0,1-.563.558ZM7.279,9.98,6.255,12.642a.188.188,0,0,0,.022.175.191.191,0,0,0,.158.082h1.03l-.511,1.916a.186.186,0,0,0,.031.164.2.2,0,0,0,.156.076.183.183,0,0,0,.142-.066l2.751-3.1a.186.186,0,0,0,.031-.2.19.19,0,0,0-.175-.112H8.768l.6-1.449a.19.19,0,0,0-.018-.178.193.193,0,0,0-.159-.084H7.458A.193.193,0,0,0,7.279,9.98Zm.255,4.147L7.9,12.758a.19.19,0,0,0-.185-.238h-1l.878-2.281H8.9l-.595,1.448a.19.19,0,0,0,.018.179.193.193,0,0,0,.159.084h.984l-1.93,2.179Zm-7.041-3.1a.493.493,0,1,1,0-.986H2.6a.493.493,0,0,1,0,.986Zm12.546-1.17a4.929,4.929,0,1,1,0-9.858H25.07a4.929,4.929,0,1,1,0,9.858ZM3.615,6.817,2.129,5.344a.492.492,0,0,1,0-.7.5.5,0,0,1,.7,0L4.319,6.119a.49.49,0,0,1,0,.7.5.5,0,0,1-.7,0Z" fill="#e24040"/>
</svg>
