<svg xmlns="http://www.w3.org/2000/svg" width="18" height="18" viewBox="0 0 18 18"><defs><style>.a{fill:none;}.b{}</style></defs><g transform="translate(-24 -630)"><path class="a" d="M0,0H18V18H0Z" transform="translate(24 630)"/><g transform="translate(-69.612 534.698)"><path class="b" d="M107.273,110.913H97.951A1.953,1.953,0,0,1,96,108.962V99.641a1.953,1.953,0,0,1,1.951-1.951h9.322a1.953,1.953,0,0,1,1.951,1.951v9.322a1.953,1.953,0,0,1-1.95,1.951ZM97.951,98.671a.971.971,0,0,0-.97.97v9.322a.971.971,0,0,0,.97.97h9.322a.971.971,0,0,0,.97-.97V99.641a.971.971,0,0,0-.97-.97Z" transform="translate(0 0)"/><path class="b" d="M257.556,298.453h-7.415a.49.49,0,1,1,0-.981h7.415a.49.49,0,0,1,0,.981Z" transform="translate(-151.198 -196.593)"/><path class="b" d="M551.208,253.122m-1.218,0a1.218,1.218,0,1,0,1.218-1.218A1.218,1.218,0,0,0,549.99,253.122Z" transform="translate(-446.743 -151.752)"/><path class="b" d="M257.556,676.667h-7.415a.49.49,0,1,1,0-.981h7.415a.49.49,0,1,1,0,.981Z" transform="translate(-151.198 -568.77)"/><path class="b" d="M551.208,631.336m-1.218,0a1.218,1.218,0,1,0,1.218-1.218A1.218,1.218,0,0,0,549.99,631.336Z" transform="translate(-446.743 -523.929)"/><path class="b" d="M257.556,487.688h-7.415a.49.49,0,1,1,0-.981h7.415a.49.49,0,0,1,0,.981Z" transform="translate(-151.198 -382.808)"/><path class="b" d="M323.983,442.357m-1.218,0a1.218,1.218,0,1,0,1.218-1.218A1.218,1.218,0,0,0,322.765,442.357Z" transform="translate(-223.145 -337.967)"/></g></g></svg>