<svg xmlns="http://www.w3.org/2000/svg" width="18" height="18" viewBox="0 0 18 18"><defs><style>.a{fill:none;}.b{fill:#616161;}</style></defs><g transform="translate(-24 -130)"><path class="a" d="M0,0H18V18H0Z" transform="translate(24 130)"/><path class="b" d="M131.493,89.242h-3.912a1.122,1.122,0,0,0-1.118,1.118v3.912a1.122,1.122,0,0,0,1.118,1.115h3.912a1.122,1.122,0,0,0,1.118-1.118V90.359A1.122,1.122,0,0,0,131.493,89.242Zm.169,5.029a.169.169,0,0,1-.169.169h-3.912a.169.169,0,0,1-.169-.169V90.359a.169.169,0,0,1,.169-.169h3.912a.169.169,0,0,1,.169.169Zm3.688.8a1.122,1.122,0,0,0,1.581,0l1.88-1.88a1.12,1.12,0,0,0,0-1.581l-1.88-1.88a1.122,1.122,0,0,0-1.581,0l-1.88,1.88a1.12,1.12,0,0,0,0,1.581Zm-1.208-2.789,1.88-1.88a.169.169,0,0,1,.236,0l1.88,1.88a.169.169,0,0,1,0,.237l-1.88,1.88a.169.169,0,0,1-.236,0l-1.88-1.88A.169.169,0,0,1,134.142,92.283ZM138.1,95.9h-3.911a1.122,1.122,0,0,0-1.118,1.118v3.912a1.122,1.122,0,0,0,1.118,1.118H138.1a1.122,1.122,0,0,0,1.118-1.118V97.022A1.122,1.122,0,0,0,138.1,95.9Zm.169,5.029a.169.169,0,0,1-.169.169h-3.911a.169.169,0,0,1-.169-.169V97.022a.169.169,0,0,1,.169-.169H138.1a.169.169,0,0,1,.169.169ZM131.493,95.9h-3.912a1.122,1.122,0,0,0-1.118,1.118v3.912a1.122,1.122,0,0,0,1.118,1.118h3.912a1.122,1.122,0,0,0,1.118-1.118V97.022A1.122,1.122,0,0,0,131.493,95.9Zm.169,5.029a.169.169,0,0,1-.169.169h-3.912a.169.169,0,0,1-.169-.169V97.022a.169.169,0,0,1,.169-.169h3.912a.169.169,0,0,1,.169.169Z" transform="translate(-99.84 43.759)"/></g></svg>