<svg xmlns="http://www.w3.org/2000/svg" width="88" height="87.998" viewBox="0 0 88 87.998">
  <g id="respondLoad" transform="translate(-54 -45.043)">
    <path id="路径_3949" data-name="路径 3949" d="M192.53,118.707v65.871a8.807,8.807,0,0,1-8.8,8.8H117.857a13.327,13.327,0,0,1-13.327-13.327V118.707a13.316,13.316,0,0,1,13.327-13.327H179.2A13.327,13.327,0,0,1,192.53,118.707Z" transform="translate(-50.53 -60.338)" fill="none"/>
    <path id="联合_1193" data-name="联合 1193" d="M6.8,72.351A6.92,6.92,0,0,1,0,65.11V7.246A7.061,7.061,0,0,1,6.8,0H61.247a6.928,6.928,0,0,1,6.805,7.246V32.373a2.276,2.276,0,0,1-4.552,0V7.246a2.544,2.544,0,0,0-2.253-2.715H6.8A2.538,2.538,0,0,0,4.532,7.246V65.11A2.567,2.567,0,0,0,6.8,67.84H30.766a2.256,2.256,0,1,1,0,4.511Zm34.587-.11a18.051,18.051,0,0,1-1.888-.235,11.669,11.669,0,0,1-2.409-.669,4.9,4.9,0,0,1-1.507-.948,1.615,1.615,0,0,1-.481-.838c0-.035-.02-.095-.02-.16V65.245c.255.175.486.364.716.539a6.7,6.7,0,0,0,1.888.843c.115.045.23.075.346.11.386.1.776.21,1.177.3.446.075.891.155,1.332.19.731.06,1.5.11,2.233.11a2.728,2.728,0,0,0,.285.01c.621,0,1.237-.05,1.858-.1a.488.488,0,0,0,.085,0,15.639,15.639,0,0,0,2.113-.374c.11-.025.215-.055.32-.09-.105.035-.21.065-.32.09a8.361,8.361,0,0,0,2.524-.983,8.084,8.084,0,0,1-2.2.893,7.808,7.808,0,0,0,2.188-.893c.285-.17.536-.4.826-.614a.169.169,0,0,1,.04-.025c.005-.01.01-.01.015-.01v.145c0,1.312,0,2.625.02,3.922a1.359,1.359,0,0,1-.23.793,2.851,2.851,0,0,1-.966.838,5.971,5.971,0,0,1-1.943.788,14.2,14.2,0,0,1-1.582.349c-.751.095-1.507.19-2.273.21-.245.015-.5.025-.751.025C42.319,72.3,41.848,72.276,41.387,72.242Zm1.387-4.906ZM35.8,65.784ZM59.61,72.162c-.2,0-.391-.015-.581-.015h-.04c-.5-.035-1-.08-1.5-.16a12.276,12.276,0,0,1-2.854-.744,4.651,4.651,0,0,1-1.467-.868,1.573,1.573,0,0,1-.556-.843,1.407,1.407,0,0,1-.04-.309V65.245c0-.035.02-.075.02-.135a1.506,1.506,0,0,1,.155.155,6.112,6.112,0,0,0,1.713,1.023,13.441,13.441,0,0,0,1.793.539c.5.095,1.027.21,1.542.269a.332.332,0,0,1,.12.015,18.573,18.573,0,0,0,3.37.115c.5-.035,1-.06,1.487-.13s.941-.14,1.407-.235c.561-.16,1.117-.289,1.678-.479a6.069,6.069,0,0,0,1.888-1.023.829.829,0,0,1,.065-.07.746.746,0,0,1-.065.055c.075-.08.155-.115.21-.195a.275.275,0,0,0,.08-.075v.17c0,1.253-.02,2.5,0,3.733a1.648,1.648,0,0,1-.5,1.3,4.5,4.5,0,0,1-1.467.9,1.386,1.386,0,0,1-.21.095,9.37,9.37,0,0,1-1.412.424c-.015.015-.055.015-.1.035a19.5,19.5,0,0,1-2.308.374c-.621.035-1.257.07-1.873.07A5.174,5.174,0,0,1,59.61,72.162Zm6.264-.883a9.7,9.7,0,0,1-1.407.439A13.019,13.019,0,0,0,65.874,71.278ZM43.06,67.346c.621,0,1.237-.05,1.833-.1a.778.778,0,0,0,.11,0,.488.488,0,0,1-.085,0c-.621.055-1.237.1-1.858.1Zm17.206-.1c.346,0,.691,0,1.037-.035.481-.04.981-.06,1.482-.14a7.929,7.929,0,0,0,1.392-.225,7.929,7.929,0,0,1-1.392.225c-.5.08-1,.1-1.482.14-.346.03-.691.035-1.037.035ZM57.927,67.1a21.547,21.547,0,0,0,2.339.145h0A21.547,21.547,0,0,1,57.927,67.1Zm7.281-.529c-.341.1-.686.19-1.032.274C64.527,66.747,64.877,66.662,65.208,66.567Zm.646-.21a5.508,5.508,0,0,0,1.888-1.013,5.508,5.508,0,0,1-1.888,1.013c-.21.08-.426.145-.646.21C65.423,66.5,65.639,66.438,65.854,66.358Zm-22.889-.519c-.436,0-.866-.02-1.307-.055a14.665,14.665,0,0,1-1.853-.19,3.313,3.313,0,0,0-.556-.095c-.31-.06-.616-.14-.946-.235-.1-.02-.19-.035-.29-.055a6.564,6.564,0,0,1-2.138-1,2.127,2.127,0,0,1-.671-.764,1.518,1.518,0,0,1-.135-.6V58.9c0-.03.015-.095.015-.155a1.5,1.5,0,0,1,.155.155,6.056,6.056,0,0,0,1.6.963,9.088,9.088,0,0,0,2.123.634,14.385,14.385,0,0,0,2.123.289c.826.075,1.678.075,2.5.075.175,0,.33,0,.5-.015a.958.958,0,0,0,.235-.02,1.771,1.771,0,0,0,.27-.04c.19-.02.4-.035.6-.055a12.451,12.451,0,0,0,1.4-.235,8.143,8.143,0,0,0,1.122-.269,6.725,6.725,0,0,0,1.522-.594,4.68,4.68,0,0,0,.541-.3c.25-.16.481-.364.731-.559v.15c0,1.278,0,2.525.02,3.768a1.607,1.607,0,0,1-.441,1.153,3.147,3.147,0,0,1-.811.634,4.145,4.145,0,0,0-.366.215,1.585,1.585,0,0,1,.366-.19l-.366.19c-.08.035-.175.08-.25.115a9.144,9.144,0,0,1-2.1.649c-.636.095-1.272.22-1.908.294-.25.02-.486.035-.751.055-.305.025-.621.035-.931.035Zm17.416,0c-.346,0-.686-.01-1.027-.035a.355.355,0,0,0-.135-.02c-.461-.015-.906-.06-1.367-.11-.441-.065-.9-.14-1.347-.235A8.062,8.062,0,0,1,53.535,64.3a2.189,2.189,0,0,1-.791-.843,1.074,1.074,0,0,1-.175-.634V58.732a2.34,2.34,0,0,1,.19.17,1.379,1.379,0,0,0,.135.115c-.04-.035-.075-.08-.11-.115.035.035.07.08.11.115s.085.055.12.08c.06.05.12.095.18.14.01,0,.015.015.025.015a.566.566,0,0,0,.065.05c.115.08.235.15.356.22A8.244,8.244,0,0,0,54.712,60c.315.11.641.215.961.3a4.107,4.107,0,0,0,.516.13,4.9,4.9,0,0,0,.526.1c.466.1.926.175,1.387.235a27.189,27.189,0,0,0,3.065.095c.641-.035,1.292-.095,1.928-.19a12.511,12.511,0,0,0,2.659-.614A6.6,6.6,0,0,0,67.707,59c.1-.08.19-.175.305-.269v4.092a1.323,1.323,0,0,1-.21.729,2.691,2.691,0,0,1-1.027.923,7.589,7.589,0,0,1-1.968.788c-.461.11-.921.235-1.382.309a1.487,1.487,0,0,1-.29.035,3.877,3.877,0,0,1-.461.08,1.962,1.962,0,0,1-.23.02c-.08,0-.16.015-.23.015-.305.045-.611.07-.916.085s-.616.03-.916.03Zm-6.74-6.318c-.12-.07-.24-.14-.356-.22C53.4,59.381,53.52,59.451,53.641,59.521Zm-.421-.269c-.01,0-.015-.01-.025-.015C53.2,59.241,53.21,59.251,53.22,59.251Zm10.225,6.343c.461-.095.926-.22,1.387-.329-.461.14-.926.235-1.387.329-.1.015-.2.015-.29.035C63.25,65.609,63.345,65.609,63.445,65.594ZM66.8,64.476a6.333,6.333,0,0,1-1.968.788A7.1,7.1,0,0,0,66.8,64.476Zm-16.309.754v.01a.169.169,0,0,0-.04.025A.153.153,0,0,1,50.491,65.23ZM66.8,64.476a2.68,2.68,0,0,0,1.017-.9,1.408,1.408,0,0,0,.215-.749v0a1.357,1.357,0,0,1-.215.749,2.68,2.68,0,0,1-1.017.9ZM35.068,62.825V58.887a.7.7,0,0,1,.015-.155c0,.075-.015.12-.015.155v3.937Zm9.254-2a.919.919,0,0,0-.235.02A.919.919,0,0,1,44.322,60.828Zm.846-.095A12.069,12.069,0,0,0,46.59,60.5a12.069,12.069,0,0,1-1.422.235c-.2.02-.406.035-.6.055C44.762,60.769,44.973,60.754,45.168,60.734Zm2.524-.5a7.875,7.875,0,0,1-1.1.269A10.735,10.735,0,0,0,47.692,60.23Zm11.918-.744c-.466-.045-.926-.045-1.372-.095a14.2,14.2,0,0,1-1.542-.255,9.73,9.73,0,0,1-1.407-.364A5.5,5.5,0,0,1,53.2,57.714a1.96,1.96,0,0,1-.516-.674,1.231,1.231,0,0,1-.12-.539V52.544c0-.035.02-.08.02-.13v0c.155.13.29.25.426.364a7.43,7.43,0,0,0,1.7.9c.636.21,1.272.379,1.888.519.516.08,1.042.15,1.542.21a14.972,14.972,0,0,0,2.989.095,10.75,10.75,0,0,0,1.6-.115c.616-.095,1.252-.19,1.888-.344.325-.08.676-.175,1-.284a5.41,5.41,0,0,0,.946-.394,4.167,4.167,0,0,0,.711-.4,2.628,2.628,0,0,0,.561-.424c.06-.035.135-.095.2-.13v.15c0,1.273-.02,2.54,0,3.808a1.522,1.522,0,0,1-.386,1.073,4.065,4.065,0,0,1-1.177.888,8.384,8.384,0,0,1-1.773.634c-.561.13-1.137.269-1.718.344a19.445,19.445,0,0,1-2.694.185C60.06,59.5,59.835,59.5,59.61,59.486Zm-17.2-.095c-.481-.045-1.077-.06-1.678-.12-.02-.02-.02-.02-.035-.02a12.735,12.735,0,0,1-2.929-.6,5.834,5.834,0,0,1-1.933-.938,1.969,1.969,0,0,1-.6-.649,1.2,1.2,0,0,1-.035-1.188,1.339,1.339,0,0,1,.1-.16,2.642,2.642,0,0,1,.981-.883,6.3,6.3,0,0,1,1.678-.709c.06-.02.115-.035.175-.055.5-.145,1-.25,1.5-.354-.275.06-.556.12-.831.19.275-.06.556-.12.831-.165a10.539,10.539,0,0,1,1.622-.175.683.683,0,0,1,.21-.025c.566-.035,1.122-.05,1.678-.05.641.015,1.277.075,1.913.13.521.06,1.062.14,1.577.25a8.286,8.286,0,0,1,2.954,1.153,2.762,2.762,0,0,1,.636.619,1.218,1.218,0,0,1,0,1.567,3.07,3.07,0,0,1-.966.833c-.115.055-.21.115-.33.165a6.667,6.667,0,0,1-1.482.564.416.416,0,0,1-.135.035,17.947,17.947,0,0,1-1.868.384c-.02,0-.04.025-.06.025-.366.035-.751.08-1.117.095-.06,0-.1.02-.155.02h-.135c-.406.035-.811.035-1.332.06Zm1.517-.06h0Zm6.58-.559c-.25.195-.481.4-.731.559C50.025,59.172,50.255,58.967,50.506,58.772ZM23.6,55.988l.21-1.812,3.856-15.131H20.416l-1.372-2.021.235-1.138,6.34-18.769a4.642,4.642,0,0,1,4.321-3.174H40.6a5.1,5.1,0,0,1,3.861,2.041,4.15,4.15,0,0,1,.205,4.3l-3.41,7.246h6.365l1.347,2.48-.906,1.128L26.986,57.35ZM24.712,34.3h7.036l1.367,1.572L32.884,37l-2.043,8.374L41.5,32.278H36.279l-1.347-2.266.441-1.138L40.6,18.48H29.94ZM66.565,53.368a5.41,5.41,0,0,1-.946.394A5.41,5.41,0,0,0,66.565,53.368Zm-25.313.16c-.541.04-1.082.11-1.622.19A16.322,16.322,0,0,1,41.252,53.527Zm0,0a.939.939,0,0,0,.235-.02.939.939,0,0,1-.235.02Zm19.124-.549c.406,0,.811-.01,1.217-.025-.7.015-1.387.035-2.078.015.28.01.571.01.861.01-.29,0-.576,0-.861-.01a10.336,10.336,0,0,1-1.567-.14,1.287,1.287,0,0,1-.2-.015,12.143,12.143,0,0,1-1.207-.19,8.734,8.734,0,0,1-2.839-1.033,8.948,8.948,0,0,0,2.839,1.033,8.776,8.776,0,0,1-2.839-1.058,4.391,4.391,0,0,1-.691-.559,5.2,5.2,0,0,0,.691.584,5.2,5.2,0,0,1-.691-.584,1.5,1.5,0,0,1-.391-.649,2.321,2.321,0,0,1-.055-.5c.02-1.268,0-2.515,0-3.763V45.9a3.956,3.956,0,0,0,.351.289,6.134,6.134,0,0,0,1.657.928,14.2,14.2,0,0,0,1.848.539,18.575,18.575,0,0,0,4.186.379c.656-.015,1.307-.06,1.968-.14s1.307-.19,1.963-.319a8.65,8.65,0,0,0,2.664-1.043,9.07,9.07,0,0,0,.806-.6.242.242,0,0,1,.02.08v4.017a1.278,1.278,0,0,1-.27.788,3.083,3.083,0,0,1-1.122.918,6.716,6.716,0,0,1-1.888.714c-.461.115-.941.235-1.427.314-.556.095-1.137.145-1.733.19-.4.015-.806.025-1.212.025Zm-.861-.01a12.7,12.7,0,0,1-1.567-.14A10.336,10.336,0,0,0,59.514,52.968Zm7.126-1.248A6.5,6.5,0,0,1,65,52.39a7.05,7.05,0,0,0,1.642-.654,3.083,3.083,0,0,0,1.122-.918A3.006,3.006,0,0,1,66.64,51.721Zm-8.1-5.26c-.085,0-.165-.015-.245-.025-.7-.095-1.372-.21-2.048-.344a8.023,8.023,0,0,1-2.158-.749,4.745,4.745,0,0,1-.711-.449,3.074,3.074,0,0,1-.486-.469c-.015-.025-.015-.045-.035-.045a1.247,1.247,0,0,1,0-1.6,3.257,3.257,0,0,1,.866-.744,7.64,7.64,0,0,1,1.853-.774c.441-.115.866-.225,1.292-.3.461-.08.906-.14,1.367-.19a17.71,17.71,0,0,1,2.719-.115c.556.035,1.122.07,1.678.13.421.065.811.095,1.212.195a9.212,9.212,0,0,1,3.145,1.153,2.471,2.471,0,0,1,.581.439.185.185,0,0,0,.075.1l.02.035a.852.852,0,0,1,.17.25,1.263,1.263,0,0,1,.185.6v0a1.288,1.288,0,0,1-.22.744,3.031,3.031,0,0,1-1.082.928,7.187,7.187,0,0,1-2.078.784,17.644,17.644,0,0,1-2.048.389c-.366.035-.731.07-1.1.095-.386.02-.771.035-1.142.055-.641-.035-1.237-.035-1.813-.09.576.055,1.172.065,1.813.115C59.715,46.526,59.119,46.516,58.543,46.461Zm9.294-3.5a1,1,0,0,0-.17-.269.817.817,0,0,1,.17.269,1.227,1.227,0,0,1,.185.589A1.227,1.227,0,0,0,67.837,42.958Zm-.265-.384c.015.035.055.065.075.1C67.627,42.638,67.587,42.608,67.572,42.573Z" transform="translate(63.978 52.861)"/>
  </g>
</svg>
