<svg xmlns="http://www.w3.org/2000/svg" width="18" height="18" viewBox="0 0 18 18"><defs><style>.a{fill:#a6c8ff;}.b{fill:none;}</style></defs><g transform="translate(-29 -390)"><path class="a" d="M97.479.2a16.113,16.113,0,0,1,3.454.366c.367.081.693.167.976.255.161.05.278.09.349.117a1.951,1.951,0,0,1,1.293,1.777V9.031a2.672,2.672,0,0,1-1.015,1.987L98.61,13.853a2.02,2.02,0,0,1-2.261,0l-3.927-2.835a2.681,2.681,0,0,1-1.015-1.987V2.714A1.937,1.937,0,0,1,92.7.936c.072-.027.188-.067.346-.115q.482-.147.976-.255A16.1,16.1,0,0,1,97.479.2Zm0,1.05a14.959,14.959,0,0,0-3.205.339c-.335.074-.631.152-.885.23q-.113.035-.225.074l-.066.024-.043.015a.89.89,0,0,0-.544.783V9.031a1.67,1.67,0,0,0,.579,1.151l3.927,2.835a.876.876,0,0,0,.926,0l3.927-2.835a1.661,1.661,0,0,0,.579-1.151V2.714a.9.9,0,0,0-.552-.786l-.035-.012-.066-.024c-.063-.022-.138-.047-.225-.074q-.437-.133-.885-.23a14.967,14.967,0,0,0-3.206-.339Z" transform="translate(-59.479 391.801)"/><rect class="b" width="18" height="18" transform="translate(29 390)"/><path class="a" d="M58.388,56.145l-.028.033-2.968,4.75a.184.184,0,0,0-.02.14.136.136,0,0,0,.08.1l.032.005h2.241a.134.134,0,0,1,.117.14l0,.04-.4,2.593a.171.171,0,0,0,.049.153.094.094,0,0,0,.128,0l.029-.032,2.968-4.751a.184.184,0,0,0,.02-.14.136.136,0,0,0-.08-.1l-.031-.005H58.275a.135.135,0,0,1-.117-.14l0-.041.4-2.592a.172.172,0,0,0-.049-.153A.1.1,0,0,0,58.388,56.145Z" transform="translate(-19.999 338.877)"/></g></svg>