<?xml version="1.0" standalone="no"?><!DOCTYPE svg PUBLIC "-//W3C//DTD SVG 1.1//EN" "http://www.w3.org/Graphics/SVG/1.1/DTD/svg11.dtd"><svg t="1701049191136" class="icon" viewBox="0 0 1024 1024" version="1.1" xmlns="http://www.w3.org/2000/svg" p-id="5038" xmlns:xlink="http://www.w3.org/1999/xlink" width="32" height="32"><path d="M0 0h1024v1024H0z" fill="" fill-opacity="0" p-id="5039"></path><path d="M930.133333 153.6H93.866667c-29.866667 0-51.2 21.333333-51.2 46.933333v418.133334c0 25.6 21.333333 46.933333 46.933333 46.933333h840.533333c25.6 0 46.933333-21.333333 46.933334-46.933333V200.533333c4.266667-25.6-17.066667-46.933333-46.933334-46.933333z m8.533334 465.066667c0 4.266667 0 4.266667-4.266667 4.266666H93.866667c-4.266667 0-4.266667 0-4.266667-4.266666V200.533333c0-4.266667 0-4.266667 4.266667-4.266666h840.533333c4.266667 0 4.266667 0 4.266667 4.266666v418.133334zM652.8 806.4c-4.266667-12.8-17.066667-21.333333-29.866667-17.066667s-21.333333 17.066667-17.066666 29.866667l29.866666 115.2c4.266667 12.8 17.066667 21.333333 29.866667 17.066667s21.333333-17.066667 17.066667-29.866667l-29.866667-115.2zM836.266667 759.466667c-4.266667-12.8-17.066667-17.066667-29.866667-12.8-12.8 4.266667-17.066667 17.066667-12.8 29.866666l38.4 110.933334c4.266667 12.8 17.066667 17.066667 29.866667 12.8 12.8-4.266667 17.066667-17.066667 12.8-29.866667l-38.4-110.933333zM217.6 746.666667c-12.8-4.266667-25.6 0-29.866667 12.8l-38.4 110.933333c-4.266667 12.8 0 25.6 12.8 29.866667 12.8 4.266667 25.6 0 29.866667-12.8l38.4-110.933334c8.533333-12.8 0-25.6-12.8-29.866666zM401.066667 789.333333c-12.8-4.266667-25.6 4.266667-29.866667 17.066667L341.333333 921.6c-4.266667 12.8 4.266667 25.6 17.066667 29.866667s25.6-4.266667 29.866667-17.066667l29.866666-115.2c0-12.8-4.266667-25.6-17.066666-29.866667z" fill="" p-id="5040"></path><path d="M861.866667 503.466667H162.133333c-12.8 0-21.333333 8.533333-21.333333 21.333333s8.533333 25.6 21.333333 25.6h704c12.8 0 21.333333-8.533333 21.333334-25.6 0-12.8-8.533333-21.333333-25.6-21.333333zM861.866667 384c-12.8 0-21.333333 8.533333-21.333334 21.333333v25.6c0 12.8 8.533333 21.333333 21.333334 21.333334s21.333333-8.533333 21.333333-21.333334v-25.6c4.266667-8.533333-4.266667-21.333333-21.333333-21.333333zM861.866667 268.8c-12.8 0-21.333333 8.533333-21.333334 21.333333v25.6c0 12.8 8.533333 21.333333 21.333334 21.333334s21.333333-8.533333 21.333333-21.333334v-25.6c4.266667-12.8-4.266667-21.333333-21.333333-21.333333z" fill="" p-id="5041"></path></svg>