<svg xmlns="http://www.w3.org/2000/svg" width="88" height="87.891" viewBox="0 0 88 87.891">
  <g id="startTime" transform="translate(-52 -43.042)">
    <path id="路径_3951" data-name="路径 3951" d="M192.53,118.69v65.79a8.8,8.8,0,0,1-8.8,8.79H117.857a13.319,13.319,0,0,1-13.327-13.31V118.69a13.308,13.308,0,0,1,13.327-13.31H179.2a13.319,13.319,0,0,1,13.327,13.31Z" transform="translate(-52.53 -62.338)" fill="none"/>
    <path id="联合_1178" data-name="联合 1178" d="M8919.582-16667.6a1.584,1.584,0,0,1-1.582-1.588v-4.758a1.59,1.59,0,0,1,1.582-1.588h2.376v-7.932a23.787,23.787,0,0,1,10.624-19.836,23.77,23.77,0,0,1-10.624-19.83v-7.934h-2.376a1.585,1.585,0,0,1-1.582-1.59v-4.756a1.589,1.589,0,0,1,1.582-1.59h52.257a1.588,1.588,0,0,1,1.581,1.59v4.756a1.588,1.588,0,0,1-1.581,1.59h-2.376v7.934a23.782,23.782,0,0,1-10.624,19.83,23.784,23.784,0,0,1,10.624,19.836v7.932h2.376a1.589,1.589,0,0,1,1.581,1.588v4.758a1.586,1.586,0,0,1-1.581,1.588Zm25.337-31.711a15.845,15.845,0,0,0-15.042,15.846v7.932h31.667v-7.932l-.018-.8a15.85,15.85,0,0,0-15.816-15.072Zm-15.042-23.82a15.848,15.848,0,0,0,15.042,15.844l.791.021a15.85,15.85,0,0,0,15.816-15.072l.018-.793v-7.934h-31.667Zm5.938,1.082V-16728h19.79v5.949a9.907,9.907,0,0,1-9.9,9.92A9.91,9.91,0,0,1,8935.815-16722.049Z" transform="translate(-8849.709 16790.289)"/>
  </g>
</svg>
