 <svg xmlns="http://www.w3.org/2000/svg" width="18" height="18" viewBox="0 0 18 18"><defs><style>.a,.c{fill:none;}.b{fill:#a6c8ff;}.c{stroke:#a6c8ff;stroke-linecap:round;}</style></defs><g transform="translate(-21 -588)"><rect class="a" width="18" height="18" transform="translate(21 588)"/><g transform="translate(-0.718 1.998)"><g transform="translate(26.71 592.762)"><path class="a" d="M277,330.625h6.176v2.053H277Zm.1,2.992h6.072v1.949H277.1Z" transform="translate(-276.756 -330.361)"/><path class="b" d="M257.841,310.375v1.432a.619.619,0,0,0,.624.624h5.509a.619.619,0,0,0,.624-.624v-1.432a.58.58,0,0,0-.588-.588H258.5A.58.58,0,0,0,257.841,310.375Zm6.207-.037v1.432a.117.117,0,0,1-.11.11h-5.509a.117.117,0,0,1-.11-.11v-1.432a.117.117,0,0,1,.11-.11h5.509Q264.048,310.283,264.048,310.338Zm0,0" transform="translate(-257.841 -309.784)"/><path class="b" d="M258.979,391.676h.992a.257.257,0,1,0,0-.514h-.992a.257.257,0,0,0,0,.514Zm5.582,3.416v-1.432a.58.58,0,0,0-.588-.588h-5.509a.619.619,0,0,0-.624.624v1.432a.619.619,0,0,0,.624.624h5.509A.672.672,0,0,0,264.561,395.091Zm-6.207,0v-1.432a.117.117,0,0,1,.11-.11h5.509a.079.079,0,0,1,.073.073v1.432a.117.117,0,0,1-.11.11h-5.509C258.391,395.2,258.355,395.128,258.355,395.091Zm0,0" transform="translate(-257.841 -390.13)"/><path class="b" d="M331.506,625.828h-.992a.257.257,0,0,0,0,.514h.992a.251.251,0,0,0,.257-.257A.276.276,0,0,0,331.506,625.828Zm0,0" transform="translate(-329.339 -621.821)"/></g><path class="c" d="M6,0a6,6,0,1,0,6,6" transform="translate(24.087 589)"/><path class="c" d="M1460.5,1955.088h2.388" transform="translate(-1427.104 -1363.021)"/><path class="c" d="M1460.5,1955.088h3.994" transform="translate(-1427.854 -1364.521)"/><path class="c" d="M1460.5,1955.088h5.449" transform="translate(-1428.604 -1366.088)"/></g></g></svg>