<svg xmlns="http://www.w3.org/2000/svg" width="88" height="87.998" viewBox="0 0 88 87.998">
  <g id="State" transform="translate(-54 -45.043)">
    <path id="路径_3949" data-name="路径 3949" d="M192.53,118.707v65.871a8.807,8.807,0,0,1-8.8,8.8H117.857a13.327,13.327,0,0,1-13.327-13.327V118.707a13.316,13.316,0,0,1,13.327-13.327H179.2A13.327,13.327,0,0,1,192.53,118.707Z" transform="translate(-50.53 -60.338)" fill="none"/>
    <path id="路径_4062" data-name="路径 4062" d="M187.373,174.843a34.074,34.074,0,0,0,10.092,18.1,3.115,3.115,0,0,0,4.831-.708l4.049-7.011a3.116,3.116,0,0,0-.39-3.649,20.364,20.364,0,0,1-4.508-8.185,3.116,3.116,0,0,0-3-2.283h-8.023a3.116,3.116,0,0,0-3.051,3.736Zm41.2,14.413a3.111,3.111,0,0,0-3.363-1.488,20.061,20.061,0,0,1-10.126-.4,3.119,3.119,0,0,0-3.606,1.422l-3.975,6.888a3.112,3.112,0,0,0,1.619,4.475,34.4,34.4,0,0,0,21.7.649,3.112,3.112,0,0,0,1.8-4.539l-4.046-7Zm14.312-47.567a3.111,3.111,0,0,0-1.994-.724,3.234,3.234,0,0,0-.546.05,3.115,3.115,0,0,0-2.15,1.509l-3.984,6.893a3.119,3.119,0,0,0,.571,3.834,20.033,20.033,0,0,1,5.647,9.338,3.116,3.116,0,0,0,3,2.29h8.024a3.113,3.113,0,0,0,3.051-3.73,34.211,34.211,0,0,0-11.623-19.46Zm-10.067-4.669a3.117,3.117,0,0,0-2-1.834,34.375,34.375,0,0,0-21.7.645,3.117,3.117,0,0,0-1.619,4.48l3.975,6.887a3.118,3.118,0,0,0,3.606,1.422,20.012,20.012,0,0,1,10.127-.4,3.115,3.115,0,0,0,3.363-1.485l4.046-7.006A3.11,3.11,0,0,0,232.818,137.019Zm18.639,34.087h-8.024a3.113,3.113,0,0,0-3,2.289,20.042,20.042,0,0,1-5.647,9.339,3.113,3.113,0,0,0-.571,3.83l3.984,6.9a3.111,3.111,0,0,0,2.15,1.51,3.236,3.236,0,0,0,.545.047,3.108,3.108,0,0,0,1.994-.72,34.222,34.222,0,0,0,11.623-19.459,3.113,3.113,0,0,0-3.051-3.73Zm-63.446-7.373a3.111,3.111,0,0,0,2.411,1.145h8.024a3.116,3.116,0,0,0,3-2.283,20.367,20.367,0,0,1,4.508-8.188,3.111,3.111,0,0,0,.39-3.646l-4.049-7.011a3.113,3.113,0,0,0-4.832-.708,34.067,34.067,0,0,0-10.092,18.1,3.108,3.108,0,0,0,.639,2.592Z" transform="translate(-122.94 -78.949)"/>
  </g>
</svg>
