<svg xmlns="http://www.w3.org/2000/svg" width="18" height="18" viewBox="0 0 18 18">
  <g id="上级指令" transform="translate(-24 -830)">
    <rect id="矩形_5964" data-name="矩形 5964" width="18" height="18" transform="translate(24 830)" fill="none"/>
    <path id="联合_1259" data-name="联合 1259" d="M23615-12824.655a8.352,8.352,0,0,1,8.34-8.345,8.352,8.352,0,0,1,8.344,8.345,8.351,8.351,0,0,1-8.344,8.338A8.35,8.35,0,0,1,23615-12824.655Zm6.174-4.68c.025.006.049.006.072.012a.254.254,0,0,1,.029.006h.012a.456.456,0,0,0,.055.018.364.364,0,0,1,.07.03.313.313,0,0,1,.082.035l5.273,2.752a.82.82,0,0,1,.439.735.807.807,0,0,1-.463.718l-4.834,2.307v4.633a6.825,6.825,0,0,0,1.43.153,6.728,6.728,0,0,0,6.719-6.719,6.729,6.729,0,0,0-6.719-6.726,6.731,6.731,0,0,0-6.721,6.726,6.731,6.731,0,0,0,3.672,5.983v-9.856a.643.643,0,0,1,.006-.106c.006-.03.012-.054.018-.083a.52.52,0,0,1,.041-.125.84.84,0,0,1,.043-.083.773.773,0,0,1,.059-.089c.012-.012.023-.036.047-.06a.409.409,0,0,1,.09-.083.5.5,0,0,1,.154-.095l.018-.012c.006,0,.012-.006.018-.006a.886.886,0,0,1,.113-.042l.088-.018a.748.748,0,0,1,.119-.006Zm.736,4.815,2.668-1.274-2.668-1.395Z" transform="translate(-23590.344 13663.658)" fill=""/>
  </g>
</svg>
