<svg xmlns="http://www.w3.org/2000/svg" width="18" height="18" viewBox="0 0 18 18"><defs><style>.a{fill:none;}.b{}</style></defs><g transform="translate(-24 -830)"><rect class="a" width="18" height="18" transform="translate(24 830)"/><path class="b" d="M5.672,12.133a4.842,4.842,0,0,0,1.7.847A2.869,2.869,0,0,0,7.738,13H2.6a.434.434,0,0,1,0-.867ZM9.713,4.9l.04.009a3.91,3.91,0,0,1,1.565.849l.078.071a.42.42,0,0,1,.131.353l-.081.727a.1.1,0,0,0,.063.105l.691.3a.433.433,0,0,1,.239.253l.01.034a3.655,3.655,0,0,1,.025,1.737l-.025.1a.431.431,0,0,1-.25.287l-.691.3a.1.1,0,0,0-.063.105l.081.726a.419.419,0,0,1-.106.327L11.4,11.2a3.9,3.9,0,0,1-1.541.89l-.1.03a.449.449,0,0,1-.08.014l-.041,0a.453.453,0,0,1-.261-.083l-.609-.432a.109.109,0,0,0-.125,0l-.609.432a.453.453,0,0,1-.342.075l-.039-.009a3.91,3.91,0,0,1-1.565-.849L6,11.2a.42.42,0,0,1-.131-.353l.082-.726a.1.1,0,0,0-.063-.105l-.691-.3a.433.433,0,0,1-.239-.253L4.95,9.43a3.655,3.655,0,0,1-.024-1.737l.024-.1a.432.432,0,0,1,.25-.287l.691-.3a.1.1,0,0,0,.063-.105l-.081-.726a.419.419,0,0,1,.106-.327L6,5.825a3.9,3.9,0,0,1,1.541-.891l.1-.03a.453.453,0,0,1,.381.067l.609.432a.109.109,0,0,0,.126,0l.609-.432a.452.452,0,0,1,.3-.081l.04.005ZM10.834,0A2.1,2.1,0,0,1,13,2.022V7.106a.066.066,0,0,0-.013-.02l-.007,0-.847-.36V5.861l.019-.163a.507.507,0,0,0-.018-.2V2.022a1.235,1.235,0,0,0-1.3-1.155H2.167a1.235,1.235,0,0,0-1.3,1.155V9.244a1.235,1.235,0,0,0,1.3,1.155H5.206a.126.126,0,0,1,.077.108v.02l-.083.738H2.167A2.1,2.1,0,0,1,0,9.245V2.022A2.1,2.1,0,0,1,2.167,0ZM9.712,5.791l-.428.3a1.012,1.012,0,0,1-1.169,0l-.428-.3a3.019,3.019,0,0,0-.912.511l.057.51a.952.952,0,0,1-.585.981L5.763,8a2.831,2.831,0,0,0,0,1.021l.485.207a.952.952,0,0,1,.585.981l-.058.51a3.018,3.018,0,0,0,.912.511l.428-.3a1.008,1.008,0,0,1,.528-.184l.057,0a1.01,1.01,0,0,1,.585.186l.428.3a3.016,3.016,0,0,0,.912-.511l-.057-.51a.952.952,0,0,1,.585-.981l.485-.207a2.831,2.831,0,0,0,0-1.021l-.485-.208a.952.952,0,0,1-.585-.982l.057-.51a3.017,3.017,0,0,0-.912-.511ZM8.7,6.751a1.761,1.761,0,1,1-1.816,1.76A1.791,1.791,0,0,1,8.7,6.751Zm0,.856a.9.9,0,1,0,.932.949V8.511a.918.918,0,0,0-.886-.9H8.7Z" transform="translate(26.5 833)"/></g></svg>