<svg xmlns="http://www.w3.org/2000/svg" width="88.002" height="87.899" viewBox="0 0 88.002 87.899">
  <g id="takePartType" transform="translate(-51.999 -43.038)">
    <path id="路径_3947" data-name="路径 3947" d="M192.532,118.692v65.8a8.8,8.8,0,0,1-8.8,8.791H117.857a13.319,13.319,0,0,1-13.327-13.312V118.692a13.309,13.309,0,0,1,13.327-13.312H179.2A13.32,13.32,0,0,1,192.532,118.692Z" transform="translate(-52.531 -62.342)" fill="none"/>
    <path id="联合_1036" data-name="联合 1036" d="M10.867,64.836a3.447,3.447,0,0,1,0-6.828H59.477c.824,0,1.535-.961,1.535-1.945V8.8c0-1.18-.629-1.961-1.535-1.961H10.609A3.3,3.3,0,0,1,7.9,3.438,3.2,3.2,0,0,1,10.867.008H59.477c4.246,0,7.5,3.9,7.5,8.57V56.25c0,4.68-3.34,8.586-7.5,8.586Zm24.078-13.93A2.263,2.263,0,0,1,32.9,49.633a2.893,2.893,0,0,1-.211-2.437l.211-.187,9.824-12.281L29.609,31.3a2.7,2.7,0,0,1-1.84-1.75,2.618,2.618,0,0,1,.516-2.734l.4-.289L42.434,14.047a3.454,3.454,0,0,1,2.258-.484,2.455,2.455,0,0,1,1.832,1.172,3.065,3.065,0,0,1,.313,2.156l-.117.391-6.449,9.25,11.582,3.516A2.383,2.383,0,0,1,53.59,31.68a2.638,2.638,0,0,1-.516,2.734l-.3.313L37.3,50.117a2.588,2.588,0,0,1-1.836.789Zm-31.66-2.07A3.018,3.018,0,0,1,0,45.914a3.137,3.137,0,0,1,3.289-2.93H17.32a3.016,3.016,0,0,1,3.273,2.93,3.107,3.107,0,0,1-3.18,2.922Zm0-13.539A3.346,3.346,0,0,1,0,32.375a3.136,3.136,0,0,1,3.289-2.922H17.414a3.131,3.131,0,0,1,3.273,2.922A3.126,3.126,0,0,1,17.414,35.3Zm.1-15.5A3.147,3.147,0,0,1,.094,16.891a3.145,3.145,0,0,1,3.289-2.937H17.414a3,3,0,0,1,3.273,2.938A3.129,3.129,0,0,1,17.414,19.8Z" transform="translate(62.51 54.585)"/>
  </g>
</svg>
