<svg xmlns="http://www.w3.org/2000/svg" width="88" height="87.998" viewBox="0 0 88 87.998">
  <g id="underLoad" transform="translate(-54 -45.043)">
    <path id="路径_3949" data-name="路径 3949" d="M192.53,118.707v65.871a8.807,8.807,0,0,1-8.8,8.8H117.857a13.327,13.327,0,0,1-13.327-13.327V118.707a13.316,13.316,0,0,1,13.327-13.327H179.2A13.327,13.327,0,0,1,192.53,118.707Z" transform="translate(-50.53 -60.338)" fill="none"/>
    <path id="路径_4068" data-name="路径 4068" d="M261.933,290.451H217.765a3.692,3.692,0,0,1,0-7.383h40.488V231.383H217.765a3.692,3.692,0,0,1,0-7.383h44.168a3.686,3.686,0,0,1,3.681,3.692V286.76A3.686,3.686,0,0,1,261.933,290.451Zm-29.445-18.459a3.675,3.675,0,0,1-2.613-1.071l-7.361-7.384a3.686,3.686,0,0,1,5.19-5.205l4.748,4.762L244.56,250.95a3.686,3.686,0,0,1,5.19,5.205l-14.723,14.767A3.675,3.675,0,0,1,232.488,271.993Zm-25.765-11.075H195.681a3.692,3.692,0,0,1,0-7.384h11.042a3.692,3.692,0,0,1,0,7.384Zm7.361,14.767H203.042a3.692,3.692,0,0,1,0-7.383h11.042a3.692,3.692,0,0,1,0,7.383Zm0-29.534H203.042a3.692,3.692,0,0,1,0-7.383h11.042a3.692,3.692,0,0,1,0,7.383Z" transform="translate(-130.806 -168.186)"/>
  </g>
</svg>
