<svg xmlns="http://www.w3.org/2000/svg" width="18" height="18" viewBox="0 0 18 18">
  <g id="组_25690" data-name="组 25690" transform="translate(-24 -780)">
    <rect id="矩形_5963" data-name="矩形 5963" width="18" height="18" transform="translate(24 780)" fill="none"/>
    <path id="联合_723" data-name="联合 723" d="M-1765-82.879a2,2,0,0,1-2-2v-6a2,2,0,0,1,2-2h2.5v1h-2.5a1,1,0,0,0-1,1v6a1,1,0,0,0,1,1h11a1,1,0,0,0,1-1v-6a1,1,0,0,0-1-1h-1.5v-1h1.5a2,2,0,0,1,2,2v6a2,2,0,0,1-2,2Zm1.5-3a.5.5,0,0,1-.5-.5.5.5,0,0,1,.5-.5h4a.5.5,0,0,1,.5.5.5.5,0,0,1-.5.5Zm0-3a.5.5,0,0,1-.5-.5.5.5,0,0,1,.5-.5h8a.5.5,0,0,1,.5.5.5.5,0,0,1-.5.5Zm3.5-2.5v-3.914l-1.268,1.268a.5.5,0,0,1-.707,0,.5.5,0,0,1,0-.707l2.121-2.121A.5.5,0,0,1-1759.5-97a.5.5,0,0,1,.334.129l.019.018,2.121,2.121a.5.5,0,0,1,0,.707.5.5,0,0,1-.706,0L-1759-95.293v3.914a.5.5,0,0,1-.5.5A.5.5,0,0,1-1760-91.379Z" transform="translate(1792.5 878.94)" />
  </g>
</svg>
