<svg xmlns="http://www.w3.org/2000/svg" width="24" height="24" viewBox="0 0 24 24"><defs><style>.a{fill:none;}.b{fill:#00e5e5;}</style></defs><g transform="translate(0.497)"><rect class="a" width="24" height="24" transform="translate(-0.497)"/><g transform="translate(3.218 2.577)"><path class="b" d="M79.5,59.064a5.468,5.468,0,1,1,5.458-5.479A5.466,5.466,0,0,1,79.5,59.064Zm0-9.365a3.9,3.9,0,1,0,3.887,3.907A3.882,3.882,0,0,0,79.5,49.7Zm5.313,17.428H74.212a3.556,3.556,0,0,1,0-7.112H84.817a3.556,3.556,0,0,1,0,7.112Zm-10.606-5.6a2.067,2.067,0,0,0,0,4.135H84.817a2.067,2.067,0,0,0,0-4.135Z" transform="translate(-70.656 -48.128)"/><path class="b" d="M627.307,760.355h-1.881a.786.786,0,1,1,0-1.571h1.881a.786.786,0,1,1,0,1.571Z" transform="translate(-613.456 -744.437)"/></g></g></svg>