<svg xmlns="http://www.w3.org/2000/svg" width="18" height="18" viewBox="0 0 18 18">
  <g id="业务概况" transform="translate(-24 -830)">
    <rect id="矩形_5964" data-name="矩形 5964" width="18" height="18" transform="translate(24 830)" fill="none"/>
    <path id="路径_4246" data-name="路径 4246" d="M54.164,61.531a.58.58,0,0,1,.58-.58h4.57a.58.58,0,1,1,0,1.159h-4.57a.58.58,0,0,1-.58-.58Zm.58,2.449h4.57a.58.58,0,1,0,0-1.159h-4.57a.58.58,0,1,0,0,1.159Zm8.744,3.743v3.324a1.246,1.246,0,0,1-1.244,1.244H49.279a1.246,1.246,0,0,1-1.244-1.244V67.723a1.244,1.244,0,0,1,.54-1.025V60.076a1.912,1.912,0,0,1,1.909-1.909h.739a1.905,1.905,0,0,1,1.8-1.288h8.02a1.912,1.912,0,0,1,1.909,1.91V66.7a1.248,1.248,0,0,1,.539,1.025ZM52.268,58.789v7.689h1.345A.579.579,0,0,1,54.19,67c.031.3.644.726,1.571.726S57.3,67.3,57.332,67a.579.579,0,0,1,.576-.521h3.88V58.789a.752.752,0,0,0-.75-.751H53.019a.753.753,0,0,0-.75.751Zm-2.535,1.287v6.4h1.375V59.327h-.626A.751.751,0,0,0,49.733,60.076Zm12.6,7.647a.085.085,0,0,0-.085-.086H58.329a3.268,3.268,0,0,1-5.135,0H49.279a.085.085,0,0,0-.085.086v3.324a.084.084,0,0,0,.085.085H62.244a.085.085,0,0,0,.085-.085Z" transform="translate(-22.761 774.415)" fill=""/>
  </g>
</svg>
