<svg xmlns="http://www.w3.org/2000/svg" width="18" height="18" viewBox="0 0 18 18">
  <g id="事件日历" transform="translate(-24 -830)">
    <rect id="矩形_5964" data-name="矩形 5964" width="18" height="18" transform="translate(24 830)" fill="none"/>
    <path id="联合_918" data-name="联合 918" d="M23004.582-12342.938a4.114,4.114,0,0,1-.453-.545h-6.447a.788.788,0,0,1-.779-.793v-11.772a.785.785,0,0,1,.779-.794h10.9a.789.789,0,0,1,.781.794v6.566a4.054,4.054,0,0,1,.953.72,4.127,4.127,0,0,1,1.191,2.912,4.117,4.117,0,0,1-1.191,2.912,3.994,3.994,0,0,1-2.867,1.207A4,4,0,0,1,23004.582-12342.938Zm-.023-2.912a2.919,2.919,0,0,0,2.895,2.937,2.92,2.92,0,0,0,2.893-2.937,2.922,2.922,0,0,0-2.893-2.937A2.921,2.921,0,0,0,23004.559-12345.851Zm-6.492,1.189h5.494a4.229,4.229,0,0,1-.17-1.189,4.124,4.124,0,0,1,1.191-2.912,4,4,0,0,1,2.867-1.206,4.191,4.191,0,0,1,.752.069v-5.76h-10.135Zm8.566.07v-1.659a.583.583,0,0,1,.578-.592h1.637a.587.587,0,0,1,.586.592.588.588,0,0,1-.586.59h-1.051v1.069a.592.592,0,0,1-.586.592A.585.585,0,0,1,23006.633-12344.591Zm-6.939-2.459a.59.59,0,0,1-.584-.592.589.589,0,0,1,.584-.589h2.012a.584.584,0,0,1,.58.589.588.588,0,0,1-.58.592Zm0-2.964a.586.586,0,0,1-.58-.594.585.585,0,0,1,.58-.59h4.088a.587.587,0,0,1,.582.59.588.588,0,0,1-.582.594Zm0-2.98a.585.585,0,0,1-.58-.592.586.586,0,0,1,.58-.59h5.361a.587.587,0,0,1,.584.59.586.586,0,0,1-.584.592Z" transform="translate(-22970.898 13188.288)" fill=""/>
  </g>
</svg>
