<svg xmlns="http://www.w3.org/2000/svg" width="18" height="18" viewBox="0 0 18 18">
  <g id="事件启动" transform="translate(-24 -830)">
    <rect id="矩形_5964" data-name="矩形 5964" width="18" height="18" transform="translate(24 830)" fill="none"/>
    <path id="路径_2277" data-name="路径 2277" d="M2.408,19.806a.461.461,0,0,1,.092.645,6.246,6.246,0,0,0-1.267,3.3l-.006.088.089-.006a6.215,6.215,0,0,0,3.071-1.1l.231-.167a.461.461,0,0,1,.553.737A7.2,7.2,0,0,1,.75,24.781a.461.461,0,0,1-.461-.461A7.2,7.2,0,0,1,1.763,19.9a.461.461,0,0,1,.645-.092Zm11.825-9.285a.461.461,0,0,1,.317.316c.857,3,.077,6.141-2.579,8.961l-.16.167.039-.04,0,.08a5.1,5.1,0,0,1-2.667,4.539l-.209.105-.208.094a.461.461,0,0,1-.612-.258l-.021-.076-.316-1.574-.12.006c-2.171.046-5.365-3.1-5.463-5.312l0-.154.006-.121L.659,16.943a.461.461,0,0,1-.37-.478L.3,16.382l.024-.074a5.063,5.063,0,0,1,4.737-3.083l.08,0L5.27,13.1C8.09,10.444,11.231,9.664,14.233,10.521ZM5.662,14a.461.461,0,0,1-.31.133,4.381,4.381,0,0,0-3.788,1.808l-.111.177-.023.038,1.442.287a.461.461,0,0,1,.37.47L3.232,17l-.023.074c-.637,1.57,3.037,5.288,4.692,4.825L8,21.86l.074-.023a.461.461,0,0,1,.527.277l.024.083.288,1.44.225-.139A4.172,4.172,0,0,0,10.9,20.233l.022-.269.012-.25a.461.461,0,0,1,.133-.31c2.542-2.57,3.337-5.37,2.662-8.064l-.037-.129.033.125c-2.693-.675-5.495.121-8.066,2.663Zm2.321,3.084a.461.461,0,0,1,.053.588l-.053.064L6.142,19.579a.461.461,0,0,1-.7-.588l.053-.064,1.842-1.842a.461.461,0,0,1,.652,0Zm1.978-3.818a1.842,1.842,0,1,1-1.842,1.842A1.842,1.842,0,0,1,9.961,13.266Zm0,.921a.921.921,0,1,0,.921.921.921.921,0,0,0-.921-.921Z" transform="translate(25.415 821.515)" fill=""/>
  </g>
</svg>
