<svg xmlns="http://www.w3.org/2000/svg" width="18" height="18" viewBox="0 0 18 18">
  <g id="交易申报" transform="translate(-24 -830)">
    <rect id="矩形_5964" data-name="矩形 5964" width="18" height="18" transform="translate(24 830)" fill="none"/>
    <path id="联合_1237" data-name="联合 1237" d="M22573.3-13182.912a2.038,2.038,0,0,1-1.344-1.933v-11.909a1.507,1.507,0,0,1,1.508-1.508h10.7a1.511,1.511,0,0,1,1.508,1.508v8.044h-1.207v-8.044a.306.306,0,0,0-.307-.3h-10.7a.3.3,0,0,0-.3.3v11.909a.864.864,0,0,0,.566.771.855.855,0,0,0,.924-.221,1.213,1.213,0,0,1,.926-.431h.057a1.2,1.2,0,0,1,.924.431.86.86,0,0,0,.65.289.858.858,0,0,0,.646-.289,1.206,1.206,0,0,1,.924-.431h.068a1.215,1.215,0,0,1,.924.431.871.871,0,0,0,.646.3.9.9,0,0,0,.465-.142v1.292a2.053,2.053,0,0,1-2.029-.669h-.074a2.06,2.06,0,0,1-1.57.726,2.063,2.063,0,0,1-1.564-.726h-.066a2.06,2.06,0,0,1-1.57.729A2.029,2.029,0,0,1,22573.3-13182.912Zm10.623.023a.594.594,0,0,1-.562-.578v-2.7l-.346.312a.6.6,0,0,1-.385.142.607.607,0,0,1-.437-.187.545.545,0,0,1-.152-.436.562.562,0,0,1,.215-.4l1.316-1.156a.584.584,0,0,1,.379-.136.566.566,0,0,1,.375.136l0,.006,1.328,1.162a.589.589,0,0,1,.066.8l-.01.018a.6.6,0,0,1-.443.192.6.6,0,0,1-.385-.142l-.006-.006-.34-.306v2.7a.582.582,0,0,1-.193.414.582.582,0,0,1-.4.159Zm-6.832-4.2-.057-.046-2.4-2.353a.586.586,0,0,1,.352-1l.068-.006h7.521a.6.6,0,0,1,.6.59.589.589,0,0,1-.531.584l-.068,0h-6.07l1.377,1.35a.576.576,0,0,1,.051.776l-.045.057a.605.605,0,0,1-.422.17A.622.622,0,0,1,22577.09-13187.089Zm5.482-5.068h-7.521a.589.589,0,0,1-.6-.583.58.58,0,0,1,.527-.584l.068-.006h6.07l-1.377-1.349a.575.575,0,0,1-.051-.777l.051-.057a.6.6,0,0,1,.787-.051l.057.051,2.408,2.353a.587.587,0,0,1-.355,1Z" transform="translate(-22545.813 14029.523)" fill=""/>
  </g>
</svg>
