<svg xmlns="http://www.w3.org/2000/svg" width="18" height="18" viewBox="0 0 18 18">
  <g id="企业档案" transform="translate(-24 -830)">
    <rect id="矩形_5964" data-name="矩形 5964" width="18" height="18" transform="translate(24 830)" fill="none"/>
    <path id="联合_921" data-name="联合 921" d="M23796.168-12449.155a1.254,1.254,0,0,1-1.258-1.253v-11.66a1.255,1.255,0,0,1,1.258-1.256h6.48a.465.465,0,0,1,.055.007.471.471,0,0,1,.277.134l3.441,3.439a.485.485,0,0,1,.137.324v1.871a.478.478,0,0,1-.137.335.463.463,0,0,1-.336.138.447.447,0,0,1-.332-.138.47.47,0,0,1-.137-.335v-1.39h-2.969a.473.473,0,0,1-.336-.138.471.471,0,0,1-.137-.334v-2.972h-6.008a.314.314,0,0,0-.316.313v11.656a.32.32,0,0,0,.316.314h6.48a.471.471,0,0,1,.471.471.471.471,0,0,1-.471.472Zm6.951-10.726h1.83l-1.83-1.832Zm1.248,10.608a.371.371,0,0,1-.371-.37v-3.066a.377.377,0,0,1,.377-.377.375.375,0,0,1,.373.377v2.682h.582v-1.117a1.245,1.245,0,0,1,.592-1.152,1.243,1.243,0,0,1,1.3,0,1.236,1.236,0,0,1,.586,1.152v1.117h.395v-2.682a.38.38,0,0,1,.379-.377.378.378,0,0,1,.377.377v3.059a.373.373,0,0,1-.373.375l-.008,0Zm2.684-.755v-1.117a.49.49,0,0,0-.2-.518.488.488,0,0,0-.559,0,.485.485,0,0,0-.205.518v1.117Zm-3.84-2.788a.37.37,0,0,1-.111-.268.371.371,0,0,1,.111-.267l3.027-3.022a.374.374,0,0,1,.531,0,.416.416,0,0,1,.047.056l2.973,2.967a.366.366,0,0,1,.09.41.366.366,0,0,1-.355.23.377.377,0,0,1-.268-.109l-2.76-2.75-2.756,2.753a.362.362,0,0,1-.264.106v0A.376.376,0,0,1,23803.211-12452.815Zm-1.506-.185h-4.221a.476.476,0,0,1-.43-.23.469.469,0,0,1,0-.484.469.469,0,0,1,.43-.227h4.221a.468.468,0,0,1,.432.227.487.487,0,0,1,0,.484.475.475,0,0,1-.412.231Zm-4.65-3.289a.467.467,0,0,1,0-.483.479.479,0,0,1,.43-.231h5.16a.473.473,0,0,1,.447.472.471.471,0,0,1-.447.472h-5.187A.469.469,0,0,1,23797.055-12456.289Zm5.59.229h0Zm-5.59-3.286a.474.474,0,0,1,0-.487.474.474,0,0,1,.43-.228h2.867a.474.474,0,0,1,.449.472.475.475,0,0,1-.449.471h-2.895A.475.475,0,0,1,23797.055-12459.347Zm3.3.228h0Z" transform="translate(-23769.408 13295.24)" fill=""/>
  </g>
</svg>
