<svg xmlns="http://www.w3.org/2000/svg" width="18" height="18" viewBox="0 0 18 18">
  <g id="合同档案" transform="translate(-24 -830)">
    <rect id="矩形_5964" data-name="矩形 5964" width="18" height="18" transform="translate(24 830)" fill="none"/>
    <path id="联合_908" data-name="联合 908" d="M23124.049-12373.976a1.6,1.6,0,0,1-1.551-1.648v-12.29a1.6,1.6,0,0,1,1.551-1.648h11.154a1.6,1.6,0,0,1,1.553,1.648v12.294a1.594,1.594,0,0,1-1.545,1.645Zm-.676-13.938v12.294a.754.754,0,0,0,.676.814h11.154a.757.757,0,0,0,.682-.814v-12.294a.755.755,0,0,0-.674-.814h-11.162A.754.754,0,0,0,23123.373-12387.914Zm2.979,11.508a.428.428,0,0,1-.434-.42.424.424,0,0,1,.434-.415h6.549a.423.423,0,0,1,.436.415.426.426,0,0,1-.432.42Zm0-2.493a.425.425,0,0,1-.434-.416.427.427,0,0,1,.434-.419h6.549a.426.426,0,0,1,.436.419.423.423,0,0,1-.432.416Zm1.129-2.53a.415.415,0,0,1-.176-.409l.328-1.788-1.379-1.284a.407.407,0,0,1-.105-.428.426.426,0,0,1,.35-.286l1.9-.263.838-1.631a.443.443,0,0,1,.395-.235.431.431,0,0,1,.391.231l.85,1.632,1.885.266a.432.432,0,0,1,.354.282.406.406,0,0,1-.109.43l-1.373,1.283.326,1.788a.4.4,0,0,1-.176.407.421.421,0,0,1-.252.083.459.459,0,0,1-.209-.052l-1.686-.854-1.684.859a.461.461,0,0,1-.207.049A.446.446,0,0,1,23127.48-12381.43Zm2.354-1.67,1.1.563-.213-1.161a.423.423,0,0,1,.127-.373l.906-.851-1.244-.17a.447.447,0,0,1-.328-.231l-.555-1.066-.549,1.066a.444.444,0,0,1-.328.231l-1.25.17.9.849a.412.412,0,0,1,.129.371l-.213,1.161,1.1-.562a.4.4,0,0,1,.2-.048A.45.45,0,0,1,23129.834-12383.1Z" transform="translate(-23096.627 13220.77)" fill=""/>
  </g>
</svg>
