<svg xmlns="http://www.w3.org/2000/svg" width="18" height="18" viewBox="0 0 18 18">
  <g id="地区监测" transform="translate(-24 -830)">
    <rect id="矩形_5964" data-name="矩形 5964" width="18" height="18" transform="translate(24 830)" fill="none"/>
    <path id="路径_2230" data-name="路径 2230" d="M85.024,76.8A8.224,8.224,0,1,1,76.8,85.024,8.224,8.224,0,0,1,85.024,76.8Zm0,1.451A6.773,6.773,0,1,0,91.8,85.024,6.773,6.773,0,0,0,85.024,78.251ZM88.2,80.921a.726.726,0,0,1,.929.928l-1.806,5.035a.726.726,0,0,1-.438.438l-5.035,1.8a.726.726,0,0,1-.929-.928l1.806-5.035a.726.726,0,0,1,.438-.438Zm-4.52,3.885-.872,2.436,2.434-.874Zm3.564-2-2.586.926,1.658,1.658.928-2.584Z" transform="translate(-52.024 753.976)" fill=""/>
  </g>
</svg>
