<svg xmlns="http://www.w3.org/2000/svg" width="18" height="18" viewBox="0 0 18 18">
  <g id="字典管理" transform="translate(-24 -830)">
    <rect id="矩形_5964" data-name="矩形 5964" width="18" height="18" transform="translate(24 830)" fill="none"/>
    <path id="联合_914" data-name="联合 914" d="M23100.512-12647.479a1.713,1.713,0,0,1-1.742-1.7v-11.612a1.716,1.716,0,0,1,1.742-1.7h10.156a.877.877,0,0,1,.777.378.838.838,0,0,1,.387.754v10.575a.724.724,0,0,1-.291.565,1.518,1.518,0,0,1-.578.284v.851a.855.855,0,0,0,.869.851c.291,0,.484,0,.484.281a.451.451,0,0,1-.484.472Zm-.615-1.735v.084c0,.447.373.648.832.648h9.227a1.933,1.933,0,0,1-.182-.648v-.769h-9.42C23100.174-12649.9,23099.9-12649.9,23099.9-12649.215Zm.012-11.363v9.643c.082-.1.275-.1.457-.1h10.158l.184-.177.014-9.911a.4.4,0,0,0-.279-.271h-9.7A.826.826,0,0,0,23099.908-12660.578Zm4.621,7.718-.2-.036-.338-.943a.329.329,0,0,0-.326-.188l-1.053.165-.131-.129a1.955,1.955,0,0,1-.33-.46,2.473,2.473,0,0,1-.277-.615l-.07-.165.7-.754a.281.281,0,0,0,0-.354l-.668-.78.074-.166a3.292,3.292,0,0,1,.629-1.06l.133-.133.967.179h.025a.381.381,0,0,0,.326-.2l.363-.946.182-.024a3.8,3.8,0,0,1,1.535,0l.2.024.338.922a.363.363,0,0,0,.363.213l1.027-.145.133.132a1.751,1.751,0,0,1,.34.484,2.663,2.663,0,0,1,.168.342l.07.178.074.177-.666.79a.309.309,0,0,0,0,.378l.666.742-.074.177a3.213,3.213,0,0,1-.6,1.039l-.131.13-1.027-.166a.311.311,0,0,0-.328.189l-.361.967-.17.036a3.751,3.751,0,0,1-.777.081A3.845,3.845,0,0,1,23104.529-12652.86Zm.24-1.393.18.519a2.857,2.857,0,0,0,.785,0l.207-.543a.877.877,0,0,1,.955-.553l.557.081a3.3,3.3,0,0,0,.291-.483l-.363-.411a.842.842,0,0,1-.025-1.075l.375-.436-.012-.024a1.431,1.431,0,0,0-.133-.237c-.049-.081-.094-.152-.145-.226l-.6.073a.9.9,0,0,1-.953-.576l-.18-.5a2.94,2.94,0,0,0-.764,0l-.207.519a.89.89,0,0,1-.979.557l-.559-.082a3.525,3.525,0,0,0-.287.472l.387.448a.853.853,0,0,1,0,1.074l-.387.437a1.858,1.858,0,0,0,.143.281.862.862,0,0,0,.133.2l.621-.094a.892.892,0,0,1,.1-.007A.917.917,0,0,1,23104.77-12654.253Zm-.738-1.91a1.287,1.287,0,0,1,1.3-1.276,1.305,1.305,0,0,1,1.32,1.276,1.326,1.326,0,0,1-1.32,1.272A1.284,1.284,0,0,1,23104.031-12656.163Zm.834-.013v.013a.451.451,0,0,0,.457.435.456.456,0,0,0,.463-.459.45.45,0,0,0-.463-.435A.452.452,0,0,0,23104.865-12656.176Zm-1.453.862s.006,0,.006.006-.006-.006-.006-.006l.074.069Zm.037.034.008.008Zm-.012-.012.012.012A.066.066,0,0,1,23103.438-12655.291Zm0,0,0,0Zm-.006,0,.006,0Zm-.006,0s.006,0,.006,0S23103.426-12655.3,23103.422-12655.3Zm0,0v0Zm0,0,0,0Z" transform="translate(-23072.543 13493.984)" fill=""/>
  </g>
</svg>
