<svg xmlns="http://www.w3.org/2000/svg" width="18" height="18" viewBox="0 0 18 18">
  <g id="客户档案" transform="translate(-24 -830)">
    <rect id="矩形_5964" data-name="矩形 5964" width="18" height="18" transform="translate(24 830)" fill="none"/>
    <path id="路径_2198" data-name="路径 2198" d="M9.867,8.136a2.7,2.7,0,1,1,3.8-.427,2.664,2.664,0,0,1-.427.427,3.812,3.812,0,0,1,2.124,3.417.492.492,0,0,1-.983,0,2.827,2.827,0,1,0-5.654,0,.492.492,0,0,1-.983,0A3.812,3.812,0,0,1,9.868,8.135ZM.983,11.061H6.008a.492.492,0,1,1,0,.983H.492A.492.492,0,0,1,0,11.553V.492A.492.492,0,0,1,.492,0H15.978a.492.492,0,0,1,.491.492V3.82a.492.492,0,0,1-.983,0V.983H.983Zm10.57-3.318a1.721,1.721,0,1,0-1.721-1.72,1.721,1.721,0,0,0,1.721,1.72ZM3.2,3.81H6.637a.491.491,0,0,1,.492.491v.123a.492.492,0,0,1-.492.492H3.2A.491.491,0,0,1,2.7,4.424V4.3A.49.49,0,0,1,3.2,3.81Zm0,3.318H6.637a.491.491,0,0,1,.492.491v.123a.492.492,0,0,1-.492.492H3.2A.491.491,0,0,1,2.7,7.743V7.62A.49.49,0,0,1,3.2,7.129Z" transform="translate(24.766 832.978)" fill=""/>
  </g>
</svg>
