<svg xmlns="http://www.w3.org/2000/svg" width="18" height="18" viewBox="0 0 18 18">
  <g id="数据监测" transform="translate(-24 -830)">
    <rect id="矩形_5964" data-name="矩形 5964" width="18" height="18" transform="translate(24 830)" fill="none"/>
    <path id="联合_1241" data-name="联合 1241" d="M23081.01-12584.49a.568.568,0,0,1-.545-.579.568.568,0,0,1,.545-.58h8.484a.567.567,0,0,1,.545.58.566.566,0,0,1-.545.579Zm-.834-2.318a2.172,2.172,0,0,1-2.174-2.179v-7.836a2.172,2.172,0,0,1,2.174-2.179h10.158a2.176,2.176,0,0,1,2.18,2.179v7.836a2.176,2.176,0,0,1-2.18,2.179Zm-1.014-10.015v7.836a1.015,1.015,0,0,0,1.014,1.014h10.158a1.016,1.016,0,0,0,1.016-1.014v-7.836a1.02,1.02,0,0,0-1.016-1.014h-10.158A1.018,1.018,0,0,0,23079.162-12596.823Zm3.842,6.543a.6.6,0,0,1-.516-.3l-1-1.9h-.828a.582.582,0,0,1-.58-.579.583.583,0,0,1,.58-.586h1.182a.59.59,0,0,1,.518.308l.572,1.072,1.084-2.892a.587.587,0,0,1,.5-.377.575.575,0,0,1,.551.289l1.021,1.8.84-1.246a.569.569,0,0,1,.48-.255h.006a.586.586,0,0,1,.48.249l.771,1.107h1.193a.582.582,0,0,1,.58.579.587.587,0,0,1-.58.586h-1.506a.607.607,0,0,1-.482-.25l-.457-.66-.881,1.315a.577.577,0,0,1-.5.249.566.566,0,0,1-.48-.289l-.881-1.53-1.107,2.938a.573.573,0,0,1-.5.376Z" transform="translate(-23052.256 13430.744)" fill=""/>
  </g>
</svg>
