<svg xmlns="http://www.w3.org/2000/svg" width="18" height="18" viewBox="0 0 18 18">
  <g id="测点管理" transform="translate(-24 -830)">
    <rect id="矩形_5964" data-name="矩形 5964" width="18" height="18" transform="translate(24 830)" fill="none"/>
    <path id="联合_1234" data-name="联合 1234" d="M9010-22835.25a7.775,7.775,0,0,1,7.753-7.752,7.776,7.776,0,0,1,7.754,7.752,7.781,7.781,0,0,1-7.754,7.76A7.78,7.78,0,0,1,9010-22835.25Zm8.234,4.654v2.131a6.861,6.861,0,0,0,6.306-6.3h-2.133a.457.457,0,0,1-.488-.488.455.455,0,0,1,.488-.48h2.133a6.86,6.86,0,0,0-6.306-6.3v2.133a.452.452,0,0,1-.481.48.453.453,0,0,1-.486-.48v-2.133a6.852,6.852,0,0,0-6.3,6.3h2.225a.438.438,0,0,1,.388.48.454.454,0,0,1-.479.488h-2.133a6.853,6.853,0,0,0,6.3,6.3v-2.131a.454.454,0,0,1,.486-.48A.453.453,0,0,1,9018.237-22830.6Zm-3.39-4.654a2.851,2.851,0,0,1,2.908-2.9,2.85,2.85,0,0,1,2.9,2.9,2.852,2.852,0,0,1-2.9,2.908A2.853,2.853,0,0,1,9014.848-22835.25Zm.967,0a1.951,1.951,0,0,0,1.941,1.943,1.95,1.95,0,0,0,1.936-1.943,1.942,1.942,0,0,0-1.936-1.934A1.942,1.942,0,0,0,9015.814-22835.25Z" transform="translate(-8984.754 23674.246)" fill=""/>
  </g>
</svg>
