<?xml version="1.0" standalone="no"?><!DOCTYPE svg PUBLIC "-//W3C//DTD SVG 1.1//EN" "http://www.w3.org/Graphics/SVG/1.1/DTD/svg11.dtd"><svg t="1705456168525" class="icon" viewBox="0 0 1024 1024" version="1.1" xmlns="http://www.w3.org/2000/svg" p-id="4385" xmlns:xlink="http://www.w3.org/1999/xlink" width="32" height="32"><path d="M570.432 896H102.4a38.4 38.4 0 0 1 0-76.8h78.464v-114.624a38.976 38.976 0 1 1 77.888 0V819.2H375.68V589.376a38.976 38.976 0 1 1 77.888 0V819.2h116.864v-153.024a38.976 38.976 0 1 1 77.888 0V819.2h116.928V550.976a38.976 38.976 0 0 1 77.888 0V819.2H921.6a38.4 38.4 0 0 1 0 76.8H570.432z m311.68-768v262.208a36.8 36.8 0 1 1-73.6 0v-134.4L568.32 471.232a64 64 0 0 1-88.32-2.688L389.888 377.344a38.4 38.4 0 0 0-53.76-0.832l-153.6 146.56a39.68 39.68 0 0 1-56.128-1.344 39.424 39.424 0 0 1 1.536-55.936l190.528-179.2a64 64 0 0 1 88.768 1.024l94.848 93.44a38.4 38.4 0 0 0 52.48 1.344l202.624-179.968H622.848a37.248 37.248 0 1 1 0-74.432h259.2z" p-id="4386"></path></svg>