<svg xmlns="http://www.w3.org/2000/svg" width="18" height="18" viewBox="0 0 18 18">
  <g id="用户管理" transform="translate(-24 -830)">
    <rect id="矩形_5964" data-name="矩形 5964" width="18" height="18" transform="translate(24 830)" fill="none"/>
    <path id="路径_2324" data-name="路径 2324" d="M127.05,118.808l1.218.865-3.382,4.831-1.224.424-.021-1.248,3.409-4.872m-.111-1.345a.7.7,0,0,0-.588.3l-3.743,5.346a.865.865,0,0,0-.143.428l.035,2.033a.713.713,0,0,0,.927.678l1.96-.678a.655.655,0,0,0,.357-.25l3.743-5.346a.736.736,0,0,0-.178-1l-1.96-1.39A.753.753,0,0,0,126.939,117.463ZM119.9,111a4.452,4.452,0,0,0-2.351,8.232A6.14,6.14,0,0,0,114.2,124l-.166,1.318a1.172,1.172,0,0,0,1.162,1.318h5.264c.021,0,.041,0,.062,0s.041,0,.062,0a.586.586,0,0,0,0-1.172c-.021,0-.043,0-.062,0s-.041,0-.062,0h-4.6a.586.586,0,0,1-.582-.658l.08-.638a6.092,6.092,0,0,1,.558-1.757,4.891,4.891,0,0,1,.986-1.345,4.271,4.271,0,0,1,3-1.166,4.361,4.361,0,0,1,1.669.322c.115.047.228.1.338.156a.587.587,0,0,0,.271.066.585.585,0,0,0,.269-1.105c-.068-.035-.139-.07-.211-.1A4.45,4.45,0,0,0,119.9,111Zm0,7.732a3.28,3.28,0,1,1,2.32-.961A3.26,3.26,0,0,1,119.9,118.732Z" transform="translate(-88.817 720.18)" fill=""/>
  </g>
</svg>
