<svg xmlns="http://www.w3.org/2000/svg" width="18" height="18" viewBox="0 0 18 18">
  <g id="用户邀约" transform="translate(-24 -830)">
    <rect id="矩形_5964" data-name="矩形 5964" width="18" height="18" transform="translate(24 830)" fill="none"/>
    <path id="路径_4249" data-name="路径 4249" d="M59.871,88.176a4.854,4.854,0,0,1,3.287,1.277l.008.008.009-.008a4.854,4.854,0,0,1,3.242-1.277h.045a4.867,4.867,0,0,1,3.247,8.493l-.029.026-.029.033-.025.028q-.268.3-.643.691a1.4,1.4,0,0,1-.968,2.241,1.4,1.4,0,0,1-1.255,1.245,1.4,1.4,0,0,1-1.371,1.263,1.4,1.4,0,0,1-2.374.745.6.6,0,0,1-.114-.158,1.4,1.4,0,0,1-1.6-1.192,1.4,1.4,0,0,1-1.313-1.261,1.4,1.4,0,0,1-1.255-1.245,1.4,1.4,0,0,1-1.251-1.443l-.079-.082-.053-.055q-.543-.566-.883-.966l-.011-.013-.074-.089-.007-.009-.015-.016a4.87,4.87,0,0,1-.973-1.476l0-.007,0,0A3.468,3.468,0,0,1,55,93.341v-.017q0-.021,0-.041v-.01l0-.036q0-.077,0-.154v-.039a4.867,4.867,0,0,1,4.867-4.867Zm-3.588,4.867q0,.129.009.257a.643.643,0,0,1-.007.152v.018a2.341,2.341,0,0,0,.251.9l.008.017.014.031a3.592,3.592,0,0,0,.75,1.131q.019.02.037.041l.087.1.03.035.032.037q.254.295.631.693l1.689-1.689a1.4,1.4,0,0,1,2.387.841,1.4,1.4,0,0,1,1.245,1.255,1.4,1.4,0,0,1,1.261,1.462,1.4,1.4,0,0,1,1.075,1.23.6.6,0,0,1,.694.1l.007.007a.2.2,0,0,0,.28-.273l0,0a.6.6,0,0,1-.176-.4l-1.821-1.821a.6.6,0,0,1,.847-.861l.007.007,2.11,2.11a.2.2,0,0,0,.28-.273l0,0L63.31,93.462l-.247.247a1.409,1.409,0,0,1-2-1.969l.015-.016,1.273-1.273a3.588,3.588,0,0,0-6.07,2.592Zm9.175,7.56,0,0q-.03.035-.062.068l-.016.017-.2.2q.02.017.039.035l.007.007a.2.2,0,0,0,.28-.273l0,0A.608.608,0,0,1,65.457,100.6Zm-1.267,1.274-.252.252a.2.2,0,0,0,.252-.252ZM63.9,90.53l0,0a.6.6,0,0,1-.135.217l-.007.007-1.823,1.823h0v0a.1.1,0,0,0,0,.037.29.29,0,0,0,.241.241.1.1,0,0,0,.037,0h0l.818-.818a.6.6,0,0,1,1.03.465l4.031,4.031.048-.05q.365-.382.609-.662a.638.638,0,0,1,.063-.063A3.588,3.588,0,1,0,63.92,90.51l-.02.02Zm.346,9.03-1.7,1.7a.2.2,0,0,0,.273.28l0,0,1.7-1.7a.2.2,0,0,0-.276-.276Zm-1.08-1.432-1.922,1.922a.2.2,0,0,0,.273.28l0,0L63.442,98.4a.2.2,0,0,0-.276-.276ZM61.91,96.872l-1.922,1.922a.2.2,0,0,0,.273.28l0,0,1.922-1.922a.2.2,0,0,0-.276-.276Zm-1.244-1.243-1.922,1.922a.2.2,0,0,0,.273.28l0,0,1.922-1.922a.2.2,0,1,0-.276-.276Z" transform="translate(-30.166 743.237)" fill=""/>
  </g>
</svg>
