<svg xmlns="http://www.w3.org/2000/svg" width="18" height="18" viewBox="0 0 18 18">
  <g id="用户监测" transform="translate(-24 -830)">
    <rect id="矩形_5964" data-name="矩形 5964" width="18" height="18" transform="translate(24 830)" fill="none"/>
    <path id="联合_920" data-name="联合 920" d="M22975.967-12114.76a4.1,4.1,0,0,1,4.016-4.177,4.1,4.1,0,0,1,4.018,4.177,4.1,4.1,0,0,1-4.018,4.176A4.1,4.1,0,0,1,22975.967-12114.76Zm3.3-1.619-2.3,2.027a.43.43,0,0,0-.129.436.426.426,0,0,0,.324.311l2.969.559a.451.451,0,0,0,.066.007.41.41,0,0,0,.271-.1l2.3-2.03a.433.433,0,0,0,.131-.434.408.408,0,0,0-.324-.307l-2.971-.562a.278.278,0,0,0-.07-.006A.388.388,0,0,0,22979.271-12116.379Zm-10.895,5.246a3.8,3.8,0,0,1-.807-2.3c.113-.895,2.5-5.039,3.492-5.561s1.715-.69,3.99-.69c.551,0,1.023,0,1.41.028a5.216,5.216,0,0,0-2.52,4.493v.261a4.021,4.021,0,0,0-3.49,3.655v.116Zm3.188-.027v-.089a2.464,2.464,0,0,1,.73-1.694,3.6,3.6,0,0,1,1.813-.982,4.967,4.967,0,0,0,1.689,2.762v0Zm6.6-3.123,1.111-.985.324,1.252Zm1.893-1.246,1.527.292-1.184,1.039Zm-8.494-8.277a3.454,3.454,0,0,1,3.494-3.455,3.478,3.478,0,0,1,3.488,3.486,3.471,3.471,0,0,1-3.488,3.455A3.48,3.48,0,0,1,22971.559-12123.807Z" transform="translate(-22942.781 12957.924)" fill=""/>
  </g>
</svg>
