<svg xmlns="http://www.w3.org/2000/svg" width="18" height="18" viewBox="0 0 18 18">
  <g id="用户负荷" transform="translate(-24 -830)">
    <rect id="矩形_5964" data-name="矩形 5964" width="18" height="18" transform="translate(24 830)" fill="none"/>
    <path id="联合_1246" data-name="联合 1246" d="M22549.514-12782.818a.416.416,0,0,1-.072-.373l.713-2.706h-1.342a.442.442,0,0,1-.361-.187.436.436,0,0,1-.053-.408l1.535-4.019a.435.435,0,0,1,.406-.283h2.588a.443.443,0,0,1,.361.192.445.445,0,0,1,.041.413l-.8,1.981h1.455a.429.429,0,0,1,.4.255.432.432,0,0,1-.068.47l-4.115,4.692a.44.44,0,0,1-.328.147A.438.438,0,0,1,22549.514-12782.818Zm-.072-3.956h1.285a.44.44,0,0,1,.344.175.42.42,0,0,1,.074.374l-.385,1.46,2.252-2.569h-1.137a.441.441,0,0,1-.363-.192.439.439,0,0,1-.045-.408l.811-1.98h-1.637Zm-2.77,3.832h-5.473a1.2,1.2,0,0,1-1.189-1.354l.17-1.353a6.29,6.29,0,0,1,3.441-4.9,4.575,4.575,0,0,1-2.156-3.883,4.57,4.57,0,0,1,4.568-4.573,4.575,4.575,0,0,1,4.574,4.573,4.58,4.58,0,0,1-2.174,3.889c.072.034.146.068.215.107a.606.606,0,0,1,.2.906.605.605,0,0,1-.475.226.611.611,0,0,1-.277-.067c-.113-.057-.232-.113-.346-.158a4.494,4.494,0,0,0-1.715-.334,4.4,4.4,0,0,0-3.08,1.2,5.165,5.165,0,0,0-1.012,1.382,6.416,6.416,0,0,0-.572,1.806l-.086.65a.609.609,0,0,0,.6.68h4.721a.255.255,0,0,1,.066.006.213.213,0,0,1,.063-.006.6.6,0,0,1,.6.6.6.6,0,0,1-.6.6Zm-3.021-13.868a3.347,3.347,0,0,0-.984,2.383,3.357,3.357,0,0,0,.984,2.383,3.361,3.361,0,0,0,2.383.985,3.361,3.361,0,0,0,2.383-.985,3.357,3.357,0,0,0,.984-2.383,3.347,3.347,0,0,0-.984-2.383,3.361,3.361,0,0,0-2.383-.985A3.361,3.361,0,0,0,22543.65-12796.811Z" transform="translate(-22514.209 13629.822)" fill=""/>
  </g>
</svg>
