<svg xmlns="http://www.w3.org/2000/svg" width="18" height="18" viewBox="0 0 18 18">
  <g id="用户档案" transform="translate(-24 -830)">
    <rect id="矩形_5964" data-name="矩形 5964" width="18" height="18" transform="translate(24 830)" fill="none"/>
    <path id="联合_919" data-name="联合 919" d="M23234.27-12371.45a1.62,1.62,0,0,1-1.586-1.676v-12.258a1.619,1.619,0,0,1,1.586-1.673h7.137a1.413,1.413,0,0,1,1.117.492l2.379,2.51a1.4,1.4,0,0,1,.465,1.133v9.8a1.619,1.619,0,0,1-1.584,1.676Zm-.512-13.983v12.308a.529.529,0,0,0,.512.541h9.514a.573.573,0,0,0,.561-.541v-8.909h-2.66a1.115,1.115,0,0,1-1.072-1.131v-2.809h-6.342A.5.5,0,0,0,23233.758-12385.434Zm7.926,2.268h2.52c0-.051,0-.051-.047-.148l-2.379-2.561a.161.161,0,0,0-.094-.05Zm-4.121,9.2h-2.24a.679.679,0,0,1-.662-.7.68.68,0,0,1,.662-.7h7.557a.682.682,0,0,1,.664.7.681.681,0,0,1-.664.7h-5.316Zm2.344-2.342h-4.584a.682.682,0,0,1-.662-.7.682.682,0,0,1,.662-.7h7.557a.683.683,0,0,1,.664.7.682.682,0,0,1-.664.7Zm-5.074-3.141a.26.26,0,0,1-.254-.268,2.422,2.422,0,0,1,.2-.963,2.4,2.4,0,0,1,.539-.783,2.408,2.408,0,0,1,1.756-.623,2.415,2.415,0,0,1,1.758.623,2.468,2.468,0,0,1,.541.783,2.438,2.438,0,0,1,.2.963.26.26,0,0,1-.252.268Zm1.244-3.105a1.5,1.5,0,0,1,0-2.046,1.315,1.315,0,0,1,1.938,0,1.5,1.5,0,0,1,0,2.046,1.332,1.332,0,0,1-.971.426A1.33,1.33,0,0,1,23236.076-12382.553Z" transform="translate(-23206.025 13218.254)" fill=""/>
  </g>
</svg>
