<svg xmlns="http://www.w3.org/2000/svg" width="18" height="18" viewBox="0 0 18 18">
  <g id="离线清单" transform="translate(-24 -830)">
    <rect id="矩形_5964" data-name="矩形 5964" width="18" height="18" transform="translate(24 830)" fill="none"/>
    <path id="联合_1245" data-name="联合 1245" d="M22551.719-12583.218l-.01-.006-.494-.492-.5.5a.458.458,0,0,1-.311.113.445.445,0,0,1-.3-.119.449.449,0,0,1-.135-.322.421.421,0,0,1,.141-.3l.488-.487-.494-.492a.43.43,0,0,1-.135-.312.438.438,0,0,1,.141-.312.452.452,0,0,1,.307-.118.433.433,0,0,1,.3.124l.492.487.494-.487a.447.447,0,0,1,.311-.124.433.433,0,0,1,.3.124.4.4,0,0,1,.137.306.436.436,0,0,1-.141.317l-.482.481.5.5a.436.436,0,0,1,.006.611l-.006,0-.006.006a.479.479,0,0,1-.3.113A.441.441,0,0,1,22551.719-12583.218Zm-10.789.018a.926.926,0,0,1-.928-.929v-12.923a.929.929,0,0,1,.928-.929h1.252v-.091a.928.928,0,0,1,.928-.928.929.929,0,0,1,.934.928v.091h1.648v-.091a.929.929,0,0,1,.934-.928.933.933,0,0,1,.934.928v.091h1.643v-.091a.933.933,0,0,1,.934-.928.929.929,0,0,1,.934.928v.091h1.24a.936.936,0,0,1,.939.929v7.075a4.912,4.912,0,0,0-1.24-.283v-6.486h-.939v.142a.933.933,0,0,1-.934.928.937.937,0,0,1-.934-.928v-.142h-1.643v.142a.937.937,0,0,1-.934.928.933.933,0,0,1-.934-.928v-.142h-1.648v.142a.933.933,0,0,1-.934.928.932.932,0,0,1-.928-.928v-.142h-.939v12.312h5.807a4.877,4.877,0,0,0,.527,1.234Zm12.047-2.474a2.16,2.16,0,0,0-1.744-.866,2.209,2.209,0,0,0-1.754.866v0h-.006a.43.43,0,0,1-.34.164.427.427,0,0,1-.266-.09.374.374,0,0,1-.17-.267.435.435,0,0,1,.09-.339,2.919,2.919,0,0,1,1.059-.878,3.11,3.11,0,0,1,1.387-.334,3.128,3.128,0,0,1,1.393.334,3.166,3.166,0,0,1,1.059.878.422.422,0,0,1,.074.345.388.388,0,0,1-.164.261.405.405,0,0,1-.268.09A.445.445,0,0,1,22552.977-12585.674Zm-9.143-.55-.447-.231a.138.138,0,0,0-.062-.018.1.1,0,0,0-.062.018l-.447.231a.138.138,0,0,1-.061.018.138.138,0,0,1-.1-.051.11.11,0,0,1-.027-.108l.084-.492a.144.144,0,0,0-.039-.113l-.361-.351a.136.136,0,0,1-.035-.131.128.128,0,0,1,.107-.09l.5-.074a.123.123,0,0,0,.1-.067l.225-.453a.134.134,0,0,1,.119-.073.132.132,0,0,1,.119.073l.227.453a.114.114,0,0,0,.1.067l.5.074a.114.114,0,0,1,.1.09.118.118,0,0,1-.029.131l-.361.351a.139.139,0,0,0-.041.113l.092.492a.14.14,0,0,1-.029.108.129.129,0,0,1-.1.051A.141.141,0,0,1,22543.834-12586.224Zm3.861-.158a.421.421,0,0,1-.17-.266.487.487,0,0,1,.072-.352,4.675,4.675,0,0,1,1.557-1.318,4.593,4.593,0,0,1,2.057-.487,4.56,4.56,0,0,1,2.043.487,4.663,4.663,0,0,1,1.551,1.3.437.437,0,0,1,.09.34.431.431,0,0,1-.176.277.406.406,0,0,1-.26.09.469.469,0,0,1-.357-.175,3.591,3.591,0,0,0-2.891-1.449,3.61,3.61,0,0,0-2.9,1.46.414.414,0,0,1-.346.176A.461.461,0,0,1,22547.7-12586.382Zm-1.693.034a.621.621,0,0,1-.623-.623.62.62,0,0,1,.623-.617h1.336a4.693,4.693,0,0,0-.379,1.24Zm-2.168-2.813-.447-.232a.15.15,0,0,0-.062-.017.509.509,0,0,0-.062.017l-.447.232a.118.118,0,0,1-.061.017.131.131,0,0,1-.1-.045.112.112,0,0,1-.027-.107l.084-.492a.136.136,0,0,0-.039-.113l-.361-.352a.134.134,0,0,1-.035-.13.145.145,0,0,1,.107-.1l.5-.067a.126.126,0,0,0,.1-.073l.225-.447a.127.127,0,0,1,.119-.074.137.137,0,0,1,.119.074l.227.447a.127.127,0,0,0,.1.073l.5.067a.139.139,0,0,1,.107.1.125.125,0,0,1-.033.13l-.361.352a.125.125,0,0,0-.041.113l.092.492a.123.123,0,0,1-.035.107.119.119,0,0,1-.1.045A.125.125,0,0,1,22543.834-12589.161Zm2.168-.249a.62.62,0,0,1-.623-.617.62.62,0,0,1,.623-.617h2.564a.62.62,0,0,1,.623.617.62.62,0,0,1-.623.617Zm-2.168-2.684-.447-.226a.1.1,0,0,0-.062-.018.1.1,0,0,0-.062.018l-.447.226a.088.088,0,0,1-.061.018.123.123,0,0,1-.1-.046.111.111,0,0,1-.027-.107l.084-.492a.136.136,0,0,0-.039-.113l-.361-.351a.142.142,0,0,1-.035-.136.146.146,0,0,1,.107-.091l.5-.068a.117.117,0,0,0,.1-.073l.225-.447a.134.134,0,0,1,.119-.073.132.132,0,0,1,.119.073l.227.447a.11.11,0,0,0,.1.073l.5.068a.128.128,0,0,1,.1.091.123.123,0,0,1-.029.136l-.361.351a.132.132,0,0,0-.041.113l.092.492a.138.138,0,0,1-.029.107.141.141,0,0,1-.1.046A.092.092,0,0,1,22543.834-12592.094Zm2.168-.282a.615.615,0,0,1-.623-.611.625.625,0,0,1,.623-.623h4.432a.625.625,0,0,1,.623.623.615.615,0,0,1-.623.611Z" transform="translate(-22514.4 13430.201)" fill=""/>
  </g>
</svg>
