<svg xmlns="http://www.w3.org/2000/svg" width="18" height="18" viewBox="0 0 18 18">
  <g id="空调控制" transform="translate(-24 -830)">
    <rect id="矩形_5964" data-name="矩形 5964" width="18" height="18" transform="translate(24 830)" fill="none"/>
    <path id="联合_932" data-name="联合 932" d="M22728.078-11951.164a1.468,1.468,0,0,1-1.465-1.467v-12.289a1.466,1.466,0,0,1,1.465-1.467h12.293a1.465,1.465,0,0,1,1.465,1.467v12.289a1.467,1.467,0,0,1-1.465,1.467Zm-.289-13.756v12.289a.292.292,0,0,0,.289.292h12.293a.293.293,0,0,0,.295-.292v-12.289a.3.3,0,0,0-.295-.3h-12.293A.294.294,0,0,0,22727.789-11964.92Zm8.729,10.087a1.65,1.65,0,0,1,1.65-1.65,1.649,1.649,0,0,1,1.652,1.65,1.652,1.652,0,0,1-1.652,1.652A1.653,1.653,0,0,1,22736.518-11954.833Zm1.174,0a.478.478,0,0,0,.477.477.476.476,0,0,0,.477-.477.478.478,0,0,0-.477-.479A.478.478,0,0,0,22737.691-11954.833Zm-5.115,0a1.648,1.648,0,0,1,1.65-1.65,1.652,1.652,0,0,1,1.652,1.65,1.655,1.655,0,0,1-1.652,1.652A1.651,1.651,0,0,1,22732.576-11954.833Zm1.172,0a.479.479,0,0,0,.479.477.478.478,0,0,0,.477-.477.48.48,0,0,0-.477-.479A.479.479,0,0,0,22733.748-11954.833Zm-5.113,0a1.647,1.647,0,0,1,1.646-1.65,1.649,1.649,0,0,1,1.652,1.65,1.652,1.652,0,0,1-1.652,1.652A1.65,1.65,0,0,1,22728.635-11954.833Zm1.17,0a.48.48,0,0,0,.477.477.479.479,0,0,0,.48-.477.481.481,0,0,0-.48-.479A.48.48,0,0,0,22729.8-11954.833Zm.846-2.386a1.537,1.537,0,0,1-1.467-1.467l-.549-4.218a1.463,1.463,0,0,1,1.465-1.467h8.254a1.465,1.465,0,0,1,1.467,1.467l-.551,4.218a1.526,1.526,0,0,1-1.467,1.467Zm-.842-5.732.541,4.135c.018.17.115.426.3.426h7.152c.25,0,.3-.413.3-.446l.535-4.114a.29.29,0,0,0-.289-.247h-8.254A.3.3,0,0,0,22729.809-11962.951Z" transform="translate(-22701.225 12797.775)" fill=""/>
  </g>
</svg>
