<svg xmlns="http://www.w3.org/2000/svg" width="18" height="18" viewBox="0 0 18 18">
  <g id="系统监测" transform="translate(-24 -830)">
    <rect id="矩形_5964" data-name="矩形 5964" width="18" height="18" transform="translate(24 830)" fill="none"/>
    <path id="联合_1258" data-name="联合 1258" d="M23914.08-12868.933a1.123,1.123,0,0,1-1.082-1.129v-1.61a.588.588,0,0,1,.6-.588h.432v-9.514a1.188,1.188,0,0,1,1.178-1.226h13.375a1.216,1.216,0,0,1,1.176,1.226v9.514h.434a.586.586,0,0,1,.594.588v1.61a1.081,1.081,0,0,1-1.08,1.129Zm.1-1.184h15.465v-.961h-5.178l-.414.337a.319.319,0,0,1-.072.084.259.259,0,0,1-.119.09.445.445,0,0,1-.264.072h-3.412a.407.407,0,0,1-.18-.048h-.217v-.049h-.049v-.132l-.559-.354h-5Zm1.027-2.192h4.2l.049.049h.035l.535.438h2.848l.539-.438h.018a.293.293,0,0,1,.17-.049h.1l4.828.061v-3.651l-2.168-.055-.822,1.075a.307.307,0,0,1-.09.126.292.292,0,0,1-.234.108h-.59l-.2-.192v-.036a.312.312,0,0,1-.049-.168v-.054l-.475-1.46-.883,2.871v.061c0,.21-.1.294-.18.324a.374.374,0,0,1-.217.072h-.191a.305.305,0,0,1-.229-.078.286.286,0,0,1-.168-.271v-.066l-1.08-4.426-.859,3.3v.174l-.246.24h-.037a.282.282,0,0,1-.162.049h-.2a.316.316,0,0,1-.187-.061.3.3,0,0,1-.209-.288v-.054l-.727-2.066-.336.612-.025.03v.006a.327.327,0,0,1-.24.162.468.468,0,0,1-.229.048h-2.287Zm6.27-8.618.055.055a.3.3,0,0,1,.168.27v.019l1.184,4.576.8-2.631v-.113l.174-.181a.308.308,0,0,1,.27-.162h.4l.18.174a.307.307,0,0,1,.162.271v.012l.68,2.187.367-.475a.294.294,0,0,1,.27-.168h2.336v-4.679a.355.355,0,0,0-.006-.042h-13.3a.072.072,0,0,0-.012.042v4.679h2.1l.822-1.417.078-.078a.316.316,0,0,1,.078-.1.3.3,0,0,1,.24-.114h.24a.3.3,0,0,1,.258.139.3.3,0,0,1,.139.258v.006l.5,1.478c.463-1.7.943-3.453,1.1-3.88a.294.294,0,0,1,.295-.246h.156l.053.024.049.023.115-.023Z" transform="translate(-23888.891 13714.965)" fill=""/>
  </g>
</svg>
