<svg xmlns="http://www.w3.org/2000/svg" width="18" height="18" viewBox="0 0 18 18">
  <g id="结算管理" transform="translate(-24 -830)">
    <rect id="矩形_5964" data-name="矩形 5964" width="18" height="18" transform="translate(24 830)" fill="none"/>
    <path id="联合_917" data-name="联合 917" d="M22777.045-12346.426a1.646,1.646,0,0,1-1.645-1.643v-11.427a1.648,1.648,0,0,1,1.645-1.644h7.879a1.646,1.646,0,0,1,1.643,1.644v11.427a1.644,1.644,0,0,1-1.643,1.643Zm-.461-12.71v10.709a.824.824,0,0,0,.822.82h7.16a.826.826,0,0,0,.818-.82v-10.709a.827.827,0,0,0-.818-.82h-7.16A.825.825,0,0,0,22776.584-12359.136Zm-4.137,12.71a.523.523,0,0,1-.592-.592.521.521,0,0,1,.592-.589h1.178a.52.52,0,0,1,.594.589.523.523,0,0,1-.594.592Zm0-3.372a.521.521,0,0,1-.592-.589.524.524,0,0,1,.592-.593h1.178a.523.523,0,0,1,.594.593.52.52,0,0,1-.594.589Zm8.531-.174a.586.586,0,0,1-.586-.585v-1.122h-1.971a.591.591,0,0,1-.59-.593.588.588,0,0,1,.59-.589h1.971v-1.182h-1.971a.592.592,0,0,1-.59-.593.588.588,0,0,1,.59-.589h5.123a.589.589,0,0,1,.594.589.593.593,0,0,1-.594.593h-1.971v1.182h1.971a.589.589,0,0,1,.594.589.592.592,0,0,1-.594.593h-1.971v1.122a.583.583,0,0,1-.582.585Zm-8.531-3.208a.521.521,0,0,1-.592-.589.524.524,0,0,1,.592-.594h1.178a.524.524,0,0,1,.594.594.52.52,0,0,1-.594.589Zm8.113-2.218-1.178-1.184a.593.593,0,0,1,0-.837.589.589,0,0,1,.834,0l.771.774.771-.774a.585.585,0,0,1,.83,0,.587.587,0,0,1,0,.826l-1.193,1.194a.592.592,0,0,1-.416.174A.609.609,0,0,1,22780.561-12355.4Zm-8.113-1.165a.521.521,0,0,1-.592-.589.524.524,0,0,1,.592-.593h1.178a.523.523,0,0,1,.594.593.52.52,0,0,1-.594.589Zm0-3.394a.521.521,0,0,1-.592-.59.525.525,0,0,1,.592-.593h1.178a.524.524,0,0,1,.594.593.52.52,0,0,1-.594.59Z" transform="translate(-22746.211 13192.783)" fill=""/>
  </g>
</svg>
