<svg xmlns="http://www.w3.org/2000/svg" width="18" height="18" viewBox="0 0 18 18">
  <g id="群控事件" transform="translate(-24 -830)">
    <rect id="矩形_5964" data-name="矩形 5964" width="18" height="18" transform="translate(24 830)" fill="none"/>
    <path id="联合_924" data-name="联合 924" d="M22634.5-12167.867a1,1,0,0,1-1.008-1v-11.708a1,1,0,0,1,1.008-1h2.01v-1.551a.5.5,0,0,1,.5-.5.5.5,0,0,1,.5.5v1.551h7.934v-1.448a.5.5,0,0,1,.5-.5.5.5,0,0,1,.5.5v1.448h2.014a1,1,0,0,1,1.008,1v11.708a1,1,0,0,1-1.008,1Zm0-1h13.893v-11.708h-2.016v.5a.509.509,0,0,1-.5.5.5.5,0,0,1-.5-.5v-.5h-7.854v.4a.5.5,0,0,1-.5.5.515.515,0,0,1-.5-.5v-.4h-2.01Zm9.934-.829v-.939a1.629,1.629,0,0,1-1.205-1.565,1.61,1.61,0,0,1,1.205-1.562v-5.783a.415.415,0,0,1,.422-.42.418.418,0,0,1,.424.42v5.783a1.609,1.609,0,0,1,1.2,1.562,1.612,1.612,0,0,1-1.2,1.565v.939a.42.42,0,0,1-.424.424A.418.418,0,0,1,22644.438-12169.7Zm-.359-2.5a.775.775,0,0,0,.781.772.771.771,0,0,0,.775-.772.771.771,0,0,0-.775-.774A.778.778,0,0,0,22644.078-12172.2Zm-6.383,2.5v-2.132a1.613,1.613,0,0,1-1.2-1.564,1.615,1.615,0,0,1,1.2-1.565v-4.588a.416.416,0,0,1,.422-.42.418.418,0,0,1,.426.42v4.571a1.612,1.612,0,0,1,1.2,1.564,1.613,1.613,0,0,1-1.2,1.564v2.149a.421.421,0,0,1-.426.424A.419.419,0,0,1,22637.7-12169.7Zm-.373-3.7a.785.785,0,0,0,.781.772h.031a.758.758,0,0,0,.748-.772.788.788,0,0,0-.779-.775A.776.776,0,0,0,22637.322-12173.392Zm3.828,3.683v-5.3a1.629,1.629,0,0,1-1.2-1.565,1.609,1.609,0,0,1,1.2-1.562v-1.43a.417.417,0,0,1,.422-.421.418.418,0,0,1,.426.421v1.43a1.62,1.62,0,0,1,1.2,1.562,1.611,1.611,0,0,1-1.2,1.565v5.3a.42.42,0,0,1-.426.42A.419.419,0,0,1,22641.15-12169.709Zm-.357-6.845a.773.773,0,0,0,.779.772.773.773,0,0,0,.779-.772.773.773,0,0,0-.779-.772A.776.776,0,0,0,22640.793-12176.554Z" transform="translate(-22608.49 13014.744)" fill=""/>
  </g>
</svg>
