<svg xmlns="http://www.w3.org/2000/svg" width="18" height="18" viewBox="0 0 18 18">
  <g id="群控下发" transform="translate(-24 -830)">
    <rect id="矩形_5964" data-name="矩形 5964" width="18" height="18" transform="translate(24 830)" fill="none"/>
    <path id="减去_348" data-name="减去 348" d="M23386.6-12635.421h-6.668a.554.554,0,0,1-.57-.546.556.556,0,0,1,.57-.54h6.668a.56.56,0,0,1,.576.54A.556.556,0,0,1,23386.6-12635.421Zm3.512-2.5h-13.691a1.1,1.1,0,0,1-1.121-1.062v-8.658a1.1,1.1,0,0,1,1.121-1.063h13.691a1.1,1.1,0,0,1,1.121,1.063v8.658A1.1,1.1,0,0,1,23390.109-12637.916Zm-13.027-9.868a.888.888,0,0,0-.9.875v7.2a.888.888,0,0,0,.9.875h12.363a.89.89,0,0,0,.9-.875v-7.2a.89.89,0,0,0-.9-.875Z" transform="translate(-23350.262 13481.062)" fill=""/>
    <path id="路径_2317" data-name="路径 2317" d="M126.947,115.438v-3.1a.3.3,0,0,0-.6,0v3.112a1.087,1.087,0,0,0,0,2.12v1.448a.3.3,0,0,0,.6,0v-1.459a1.087,1.087,0,0,0,0-2.12Zm-.286,1.6h-.024a.543.543,0,0,1-.548-.524.535.535,0,0,1,.548-.524.543.543,0,0,1,.548.524A.521.521,0,0,1,126.661,117.034Zm5.031-.775v-3.921a.3.3,0,0,0-.6,0v3.921a1.087,1.087,0,0,0,0,2.12v.638a.3.3,0,0,0,.6,0v-.638a1.087,1.087,0,0,0,0-2.12Zm-.3,1.584a.525.525,0,1,1,.548-.524A.535.535,0,0,1,131.393,117.843Zm-2.015-4.548v-.969a.3.3,0,0,0-.6,0v.969a1.087,1.087,0,0,0,0,2.12v3.591a.3.3,0,0,0,.6,0v-3.591a1.087,1.087,0,0,0,0-2.12Zm-.3,1.6a.525.525,0,1,1,.548-.524A.535.535,0,0,1,129.081,114.891Zm0,0" transform="translate(-96.018 721.929)" fill=""/>
  </g>
</svg>
