<svg xmlns="http://www.w3.org/2000/svg" width="18" height="18" viewBox="0 0 18 18">
  <g id="群组管理" transform="translate(-24 -830)">
    <rect id="矩形_5964" data-name="矩形 5964" width="18" height="18" transform="translate(24 830)" fill="none"/>
    <path id="联合_933" data-name="联合 933" d="M22591.283-12047.953a1.29,1.29,0,0,1-1.3-1.273v-13.15a1.29,1.29,0,0,1,1.3-1.273h11.369a1.289,1.289,0,0,1,1.3,1.273v13.15a1.289,1.289,0,0,1-1.3,1.273Zm-.234-14.176v12.654a.45.45,0,0,0,.451.441h10.938a.445.445,0,0,0,.445-.441v-12.654a.445.445,0,0,0-.445-.44H22591.5A.451.451,0,0,0,22591.049-12062.129Zm4.471,12.347a.437.437,0,0,1-.441-.435.435.435,0,0,1,.441-.432h2.879a.438.438,0,0,1,.441.432.44.44,0,0,1-.441.435Zm-1.426-1.344a.419.419,0,0,1-.424-.416.419.419,0,0,1,.424-.416h5.539a.419.419,0,0,1,.424.416.419.419,0,0,1-.424.416Zm-.633-2.235a1.312,1.312,0,0,1-1.2-1.2,1.306,1.306,0,0,1,1-1.357c.6-1.539,2.451-2,3.279-2.125v-.367a1.808,1.808,0,0,1-1.406-1.969,1.83,1.83,0,0,1,1.832-1.6,1.835,1.835,0,0,1,1.836,1.6,1.809,1.809,0,0,1-1.408,1.969l.006.356c.795.115,2.74.56,3.348,2.148a1.3,1.3,0,0,1,.959,1.386,1.316,1.316,0,0,1-1.23,1.163,1.323,1.323,0,0,1-1.385-.981,1.291,1.291,0,0,1,.748-1.5,3.5,3.5,0,0,0-2.437-1.359l.008,1.315a1.3,1.3,0,0,1,.887,1.444,1.319,1.319,0,0,1-1.312,1.089,1.32,1.32,0,0,1-1.312-1.086,1.3,1.3,0,0,1,.881-1.447l-.006-1.308a3.447,3.447,0,0,0-2.387,1.366,1.294,1.294,0,0,1,.707,1.528,1.326,1.326,0,0,1-1.277.948A1.05,1.05,0,0,1,22593.461-12053.361Zm6.453-1.294a.47.47,0,0,0,.479.462.469.469,0,0,0,.471-.462.468.468,0,0,0-.473-.465A.469.469,0,0,0,22599.914-12054.655Zm-3.4,0a.467.467,0,0,0,.471.462.47.47,0,0,0,.479-.462.47.47,0,0,0-.479-.465A.467.467,0,0,0,22596.518-12054.655Zm-3.4,0a.471.471,0,0,0,.475.462.47.47,0,0,0,.477-.462.469.469,0,0,0-.477-.465A.47.47,0,0,0,22593.117-12054.655Zm2.865-5.512a.979.979,0,0,0,.992.966.978.978,0,0,0,.99-.966.979.979,0,0,0-.99-.968A.981.981,0,0,0,22595.982-12060.167Z" transform="translate(-22563.967 12894.803)" fill=""/>
  </g>
</svg>
