<svg xmlns="http://www.w3.org/2000/svg" width="18" height="18" viewBox="0 0 18 18">
  <g id="行业监测" transform="translate(-24 -830)">
    <rect id="矩形_5964" data-name="矩形 5964" width="18" height="18" transform="translate(24 830)" fill="none"/>
    <path id="联合_901" data-name="联合 901" d="M23496.432-12327.751a.837.837,0,0,1-.811-.861v-12.772a.839.839,0,0,1,.811-.863h11.176a.839.839,0,0,1,.811.863v9.662a3.864,3.864,0,0,1-3.734,3.972Zm.164-1.036h8.088a2.855,2.855,0,0,0,2.76-2.936v-9.488H23496.6Zm2.035-1.988a.5.5,0,0,1-.486-.517.5.5,0,0,1,.486-.518h4.059a.5.5,0,0,1,.488.518.5.5,0,0,1-.488.517Zm0-1.812a.5.5,0,0,1-.486-.516.5.5,0,0,1,.486-.519h6.777a.5.5,0,0,1,.486.519.5.5,0,0,1-.486.516Zm3.7-2.969-3.494-.676a.487.487,0,0,1-.379-.37.537.537,0,0,1,.15-.522l2.713-2.44a.449.449,0,0,1,.395-.111l3.494.671a.493.493,0,0,1,.383.371.537.537,0,0,1-.154.525l-2.711,2.44a.477.477,0,0,1-.312.12A.489.489,0,0,1,23502.326-12335.556Zm-2.316-1.487,1.689.323-.381-1.5Zm2.631.1,1.391-1.251-1.795-.346Z" transform="translate(-23469.02 13174)" fill=""/>
  </g>
</svg>
