<svg xmlns="http://www.w3.org/2000/svg" width="18" height="18" viewBox="0 0 18 18">
  <g id="角色管理" transform="translate(-24 -830)">
    <rect id="矩形_5964" data-name="矩形 5964" width="18" height="18" transform="translate(24 830)" fill="none"/>
    <path id="路径_2335" data-name="路径 2335" d="M139.235,137.964a1.506,1.506,0,1,0,1.508,1.506A1.508,1.508,0,0,0,139.235,137.964Zm0,2.237a.716.716,0,1,1,.731-.731A.732.732,0,0,1,139.235,140.2Zm3.987-1.517a.533.533,0,0,0-.494-.493h-.034a.853.853,0,0,1-.853-.852.983.983,0,0,1,.074-.323.624.624,0,0,0-.232-.763l-1-.552a.678.678,0,0,0-.73.145.788.788,0,0,1-1.367-.006.676.676,0,0,0-.728-.152l-.019.008-1.016.558-.024.015a.617.617,0,0,0-.211.746.971.971,0,0,1,.076.325.855.855,0,0,1-.855.852h-.04a.532.532,0,0,0-.489.493,3.768,3.768,0,0,0,0,1.584.532.532,0,0,0,.494.491h.034a.855.855,0,0,1,.855.853.988.988,0,0,1-.075.323.623.623,0,0,0,.231.762l.98.545a.665.665,0,0,0,.734-.153.792.792,0,0,1,1.4.008.665.665,0,0,0,.486.209.633.633,0,0,0,.272-.062l.99-.545.024-.016a.615.615,0,0,0,.21-.745.994.994,0,0,1-.075-.325.855.855,0,0,1,.853-.853h.04a.531.531,0,0,0,.489-.491,5.308,5.308,0,0,0,.084-.792A5.065,5.065,0,0,0,143.222,138.684ZM142.48,140a1.6,1.6,0,0,0-1.33,2.109l-.715.394a2.828,2.828,0,0,0-.293-.251,1.347,1.347,0,0,0-1.812-.008,2.932,2.932,0,0,0-.292.247l-.683-.381a1.6,1.6,0,0,0-1.33-2.11,2.788,2.788,0,0,1,0-1.042,1.63,1.63,0,0,0,1.417-1.615,1.614,1.614,0,0,0-.087-.493l.738-.4a2.719,2.719,0,0,0,.292.242,1.351,1.351,0,0,0,1.768.006,2.735,2.735,0,0,0,.291-.235l.707.392a1.6,1.6,0,0,0-.087.493,1.63,1.63,0,0,0,1.417,1.615,2.8,2.8,0,0,1,0,1.043ZM129.008,142.2v-.853a5.611,5.611,0,0,1,5.092-5.562h.006c.175-.016.352-.026.531-.026l.08,0a3.878,3.878,0,0,0,2.084-.642l.245-.191a3.853,3.853,0,0,0,1.5-3.05,3.912,3.912,0,0,0-7.823,0,3.85,3.85,0,0,0,1.5,3.05l.244.191-.288.114A6.559,6.559,0,0,0,128,141.35V142.7a.5.5,0,0,0,.5.5h7.364a5.1,5.1,0,0,1-.609-1Zm2.726-10.323a2.9,2.9,0,1,1,2.9,2.883A2.9,2.9,0,0,1,131.734,131.88Z" transform="translate(-102.654 703.347)" fill=""/>
  </g>
</svg>
