<svg xmlns="http://www.w3.org/2000/svg" width="18" height="18" viewBox="0 0 18 18">
  <g id="设备档案" transform="translate(-24 -830)">
    <rect id="矩形_5964" data-name="矩形 5964" width="18" height="18" transform="translate(24 830)" fill="none"/>
    <path id="联合_891" data-name="联合 891" d="M23815.762-12531a2.154,2.154,0,0,1-2.232-2.067v-10.862a2.155,2.155,0,0,1,2.232-2.067h10.055a2.157,2.157,0,0,1,2.236,2.067v10.862a2.157,2.157,0,0,1-2.236,2.067Zm-1.115-2.067a1.079,1.079,0,0,0,1.115,1.034h10.055a1.079,1.079,0,0,0,1.117-1.034v-4.654h-12.287Zm12.287-5.687v-5.175a1.079,1.079,0,0,0-1.117-1.033h-10.055a1.078,1.078,0,0,0-1.115,1.033v5.175Zm-5.256,4.137a1.539,1.539,0,0,1,1.523-1.553,1.542,1.542,0,0,1,1.529,1.553,1.541,1.541,0,0,1-1.529,1.551A1.538,1.538,0,0,1,23821.678-12534.621Zm0-7.24a1.539,1.539,0,0,1,1.523-1.555,1.542,1.542,0,0,1,1.529,1.555,1.539,1.539,0,0,1-1.529,1.551A1.537,1.537,0,0,1,23821.678-12541.861Z" transform="translate(-23787.791 13377.502)" fill=""/>
  </g>
</svg>
