<svg xmlns="http://www.w3.org/2000/svg" width="18" height="18" viewBox="0 0 18 18">
  <g id="设备模板" transform="translate(-24 -830)">
    <rect id="矩形_5964" data-name="矩形 5964" width="18" height="18" transform="translate(24 830)" fill="none"/>
    <path id="联合_1235" data-name="联合 1235" d="M9012-22877a2,2,0,0,1-2-2v-12a2,2,0,0,1,2-2h10a2,2,0,0,1,2,2v12a2,2,0,0,1-2,2Zm-1-14v12a1,1,0,0,0,1,1h10a1,1,0,0,0,1.006-1v-12a1,1,0,0,0-1.006-1h-10A1,1,0,0,0,9011-22891Zm1.5,10a.5.5,0,0,1-.5-.5.5.5,0,0,1,.5-.5h9a.5.5,0,0,1,.5.5.5.5,0,0,1-.5.5Zm.5-4a1,1,0,0,1-1-1v-2a1,1,0,0,1,1-1h8a1,1,0,0,1,1,1v2a1,1,0,0,1-1,1Zm0-1h8v-2h-8Z" transform="translate(-8984.002 23724)" fill=""/>
  </g>
</svg>
