<svg xmlns="http://www.w3.org/2000/svg" width="18" height="18" viewBox="0 0 18 18">
  <g id="设备管理" transform="translate(-24 -830)">
    <rect id="矩形_5964" data-name="矩形 5964" width="18" height="18" transform="translate(24 830)" fill="none"/>
    <path id="联合_931" data-name="联合 931" d="M22698.2-12170.138a1.594,1.594,0,0,1-1.535-1.644v-10.954a1.592,1.592,0,0,1,1.535-1.643h11.268a1.592,1.592,0,0,1,1.537,1.643v10.954a1.6,1.6,0,0,1-1.537,1.644Zm-.51-1.644a.529.529,0,0,0,.51.546h11.268a.53.53,0,0,0,.512-.546v-10.954a.532.532,0,0,0-.512-.549H22698.2a.53.53,0,0,0-.51.549v2.737h10.752a.528.528,0,0,1,.512.548.531.531,0,0,1-.512.549h-10.752v3.286h10.752a.528.528,0,0,1,.512.545.528.528,0,0,1-.512.549h-10.752Zm5.121-.549a.53.53,0,0,1-.514-.548.533.533,0,0,1,.514-.549h5.631a.531.531,0,0,1,.512.549.528.528,0,0,1-.512.548Zm-3.33,0a.53.53,0,0,1-.512-.548.532.532,0,0,1,.512-.549h1.023a.533.533,0,0,1,.514.549.53.53,0,0,1-.514.548Zm3.33-4.382a.53.53,0,0,1-.514-.546.531.531,0,0,1,.514-.549h5.631a.529.529,0,0,1,.512.549.528.528,0,0,1-.512.546Zm-3.33,0a.53.53,0,0,1-.512-.546.53.53,0,0,1,.512-.549h1.023a.531.531,0,0,1,.514.549.53.53,0,0,1-.514.546Zm3.33-4.38a.533.533,0,0,1-.514-.55.531.531,0,0,1,.514-.549h5.631a.529.529,0,0,1,.512.549.531.531,0,0,1-.512.55Zm-3.33,0a.533.533,0,0,1-.512-.55.53.53,0,0,1,.512-.549h1.023a.531.531,0,0,1,.514.549.533.533,0,0,1-.514.55Z" transform="translate(-22670.834 13016.259)" fill=""/>
  </g>
</svg>
