<svg xmlns="http://www.w3.org/2000/svg" width="18" height="18" viewBox="0 0 18 18">
  <g id="负荷曲线" transform="translate(-24 -830)">
    <rect id="矩形_5964" data-name="矩形 5964" width="18" height="18" transform="translate(24 830)" fill="none"/>
    <path id="联合_1238" data-name="联合 1238" d="M22540-12204.842a1.688,1.688,0,0,1,1.709-1.67,1.693,1.693,0,0,1,1.711,1.67,1.727,1.727,0,0,1-1.711,1.71A1.723,1.723,0,0,1,22540-12204.842Zm1.127,0a.6.6,0,0,0,.582.583.6.6,0,0,0,.584-.583.6.6,0,0,0-.584-.583A.6.6,0,0,0,22541.127-12204.842Zm2.525,1.358a2.141,2.141,0,0,0,.463-.934h10.258a.428.428,0,0,0,.426-.425v-8.276h.008a1.876,1.876,0,0,0,.965-.154v8.39a1.394,1.394,0,0,1-1.4,1.4Zm6.018-4.234a1.729,1.729,0,0,1,1.709-1.709,1.726,1.726,0,0,1,1.709,1.709,1.722,1.722,0,0,1-1.709,1.71A1.726,1.726,0,0,1,22549.67-12207.718Zm1.131,0a.6.6,0,0,0,.578.583.6.6,0,0,0,.582-.583.6.6,0,0,0-.582-.583A.6.6,0,0,0,22550.8-12207.718Zm-8.123.51,2.1-2.684a2.011,2.011,0,0,0,.895.583l-2.139,2.718A2.6,2.6,0,0,0,22542.678-12207.208Zm-2.135-7.852a1.338,1.338,0,0,1,1.4-1.359h10.875a1.909,1.909,0,0,0-.271.935h-10.6a.427.427,0,0,0-.424.425h-.039v7.732a1.973,1.973,0,0,0-.936.271Zm7.072,5.6a2.388,2.388,0,0,0,.775-.742l1.516,1.087a2.634,2.634,0,0,0-.621.855Zm-2.838-1.6a1.724,1.724,0,0,1,1.711-1.71,1.727,1.727,0,0,1,1.709,1.71,1.726,1.726,0,0,1-1.709,1.71A1.723,1.723,0,0,1,22544.777-12211.058Zm1.127-.04a.6.6,0,0,0,.584.584.6.6,0,0,0,.582-.584.6.6,0,0,0-.582-.583A.6.6,0,0,0,22545.9-12211.1Zm5.514,1.4,2.1-3.844a2.225,2.225,0,0,0,.967.431l-2.016,3.686A2.39,2.39,0,0,0,22551.418-12209.7Zm1.67-5.593a1.727,1.727,0,0,1,1.711-1.71,1.723,1.723,0,0,1,1.709,1.71,1.723,1.723,0,0,1-1.709,1.71A1.727,1.727,0,0,1,22553.088-12215.292Zm1.127,0a.6.6,0,0,0,.584.583.6.6,0,0,0,.582-.583.6.6,0,0,0-.582-.583A.6.6,0,0,0,22554.215-12215.292Z" transform="translate(-22515.254 13049.066)" fill=""/>
  </g>
</svg>
