<svg xmlns="http://www.w3.org/2000/svg" width="18" height="18" viewBox="0 0 18 18">
  <g id="资源总览" transform="translate(-24 -830)">
    <rect id="矩形_5964" data-name="矩形 5964" width="18" height="18" transform="translate(24 830)" fill="none"/>
    <path id="联合_1236" data-name="联合 1236" d="M23914.045-12102.907a.518.518,0,0,1,.523-.522l11.469-.011a.518.518,0,0,1,.523.522.523.523,0,0,1-.523.523l-11.469.011A.522.522,0,0,1,23914.045-12102.907Zm4.592-1.674a1.356,1.356,0,0,1-.826-.956h-3.766a1.041,1.041,0,0,1-1.045-1.039v-9.382a1.04,1.04,0,0,1,1.045-1.039h12.51a1.042,1.042,0,0,1,1.047,1.039v9.382a1.043,1.043,0,0,1-1.047,1.039h-3.775a1.383,1.383,0,0,1-.826.956,3.806,3.806,0,0,1-1.658.348A3.782,3.782,0,0,1,23918.637-12104.581Zm1.658-.473a2.319,2.319,0,0,0,1.605-.483h-3.213A2.314,2.314,0,0,0,23920.295-12105.054Zm-6.25-10.9v9.376h12.51l.006-.007v-9.369l-.006-.006h-12.51Zm3.346,6.892c-.131-.254-.266-.585-.4-.906-.1-.258-.215-.517-.314-.73-.039-.078-.068-.141-.1-.19a2.382,2.382,0,0,0-.32.319,4.817,4.817,0,0,0-.338.41.523.523,0,0,1-.73.125.528.528,0,0,1-.117-.731,5.911,5.911,0,0,1,.471-.573,1.721,1.721,0,0,1,1.146-.69h.006a.738.738,0,0,1,.574.3,2.013,2.013,0,0,1,.258.4c.141.27.287.625.428.962.057.146.146.354.23.539.135-.275.287-.617.4-.871.715-1.6,1.086-2.377,1.7-2.377.561,0,1.029.562,1.73,1.478.119.157.283.371.4.518a9.843,9.843,0,0,0,1.182-1.394c.527-.72.982-1.406.988-1.411a.52.52,0,0,1,.727-.146.532.532,0,0,1,.146.726c-.023.027-.535.8-1.131,1.591-.354.472-.668.849-.92,1.124-.439.46-.742.651-1.047.651a.978.978,0,0,1-.7-.421c-.146-.169-.309-.377-.477-.607-.2-.253-.4-.518-.592-.731a3.044,3.044,0,0,0-.234-.241,4.179,4.179,0,0,0-.266.473c-.18.349-.369.78-.557,1.191s-.359.82-.521,1.124a2.608,2.608,0,0,1-.248.416.725.725,0,0,1-.578.343C23917.736-12108.393,23917.508-12108.843,23917.391-12109.061Z" transform="translate(-23887.301 12948.69)" fill=""/>
  </g>
</svg>
