<svg xmlns="http://www.w3.org/2000/svg" width="18" height="18" viewBox="0 0 18 18">
  <g id="资源管理" transform="translate(-24 -830)">
    <rect id="矩形_5964" data-name="矩形 5964" width="18" height="18" transform="translate(24 830)" fill="none"/>
    <path id="联合_929" data-name="联合 929" d="M22421.6-12472.658l-.674-4.858a1.473,1.473,0,0,1,.43-1.061,1.37,1.37,0,0,1,.941-.392l.521-4.969a2.08,2.08,0,0,1,2.074-1.887h7.93a2.076,2.076,0,0,1,2.051,1.887l.246,2.334a.608.608,0,0,1-.527.638.6.6,0,0,1-.65-.5l-.227-2.3a.873.873,0,0,0-.893-.812h-7.93a.873.873,0,0,0-.9.812l-.5,4.8h11.8l.037-.04a1.369,1.369,0,0,1,1.051.41,1.459,1.459,0,0,1,.4,1.079l-.691,4.858a1.429,1.429,0,0,1-1.459,1.214h-11.559c-.027,0-.053,0-.08,0A1.435,1.435,0,0,1,22421.6-12472.658Zm.527-4.95.662,4.778a.289.289,0,0,0,.287.152h11.559a.321.321,0,0,0,.279-.122l.67-4.889a.55.55,0,0,0-.275-.094l-.016.05h-12.916A.312.312,0,0,0,22422.131-12477.608Zm9.443,3h.014Zm-5.439,0a.6.6,0,0,1-.6-.618.6.6,0,0,1,.6-.614h5.439a.606.606,0,0,1,.6.614.607.607,0,0,1-.6.618Zm5.439-5.32h.014Zm-5.439,0a.6.6,0,0,1-.6-.618.6.6,0,0,1,.6-.614h5.439a.606.606,0,0,1,.6.614.607.607,0,0,1-.6.618Zm.574-2.167a.605.605,0,0,1-.594-.618.6.6,0,0,1,.594-.614h4.3a.606.606,0,0,1,.6.614.607.607,0,0,1-.6.618Z" transform="translate(-22395.863 13317.633)" fill=""/>
  </g>
</svg>
