<svg xmlns="http://www.w3.org/2000/svg" width="18" height="18" viewBox="0 0 18 18">
  <g id="路由管理" transform="translate(-24 -830)">
    <rect id="矩形_5964" data-name="矩形 5964" width="18" height="18" transform="translate(24 830)" fill="none"/>
    <path id="联合_930" data-name="联合 930" d="M22649.076-12402.39a1.846,1.846,0,0,1-1.844-1.846v-2.788l1.227-8.6a1.877,1.877,0,0,1,1.846-1.607h8.7a1.88,1.88,0,0,1,1.842,1.607l1.23,8.6v2.788a1.847,1.847,0,0,1-1.844,1.846Zm-.947-1.846a.948.948,0,0,0,.947.948h11.156a.95.95,0,0,0,.947-.948l-.051-1.841h-13Zm1.277-11.248-1.229,8.506h12.951l-1.227-8.506a.883.883,0,0,0-.9-.8h-8.7A.914.914,0,0,0,22649.406-12415.483Zm5.529,11.109v-.947h.945v.947Zm-1.795,0v-.947h.943v.947Zm-1.844,0v-.947h.945v.947Zm-1.8,0v-.947h.949v.947Zm7.283,0v-.943h.943v.943Zm-2.7-3.636v-2.65a1.222,1.222,0,0,1-.8-1.133,1.218,1.218,0,0,1,.852-1.041v-.661h.854v.661a1.206,1.206,0,0,1,.848,1.041,1.152,1.152,0,0,1-.8,1.133l.094,2.65Zm-.094-3.736a.519.519,0,0,0,.143.332.458.458,0,0,0,.424.188.719.719,0,0,0,.43-.187.512.512,0,0,0,.139-.332.538.538,0,0,0-.568-.521A.537.537,0,0,0,22653.99-12411.75Zm-3.541,3.736.094-.9a1.187,1.187,0,0,1-.713-1.278,1.634,1.634,0,0,1,1.043-1.183l.279-2.126h.8l-.186,2.126a1.222,1.222,0,0,1,.8,1.183,1.482,1.482,0,0,1-.992,1.278l-.1.9Zm.094-2.177a.645.645,0,0,0,.139.425.46.46,0,0,0,.426.191.64.64,0,0,0,.664-.616.545.545,0,0,0-.145-.379.5.5,0,0,0-.424-.187A.659.659,0,0,0,22650.543-12410.19Zm8.221-2.411v-.047a2.454,2.454,0,0,0-2.312-2.362h-.049l.049-.664h.047a3.3,3.3,0,0,1,3.119,3.026v.047Zm-1.418,0v-.047a1,1,0,0,0-.943-1.039h-.049l.1-.8a1.9,1.9,0,0,1,1.748,1.844v.047Z" transform="translate(-22621.654 13248.811)" fill=""/>
  </g>
</svg>
