<svg xmlns="http://www.w3.org/2000/svg" width="18" height="18" viewBox="0 0 18 18">
  <g id="运行商管理" transform="translate(-24 -830)">
    <rect id="矩形_5964" data-name="矩形 5964" width="18" height="18" transform="translate(24 830)" fill="none"/>
    <path id="联合_926" data-name="联合 926" d="M22650.127-12057.989l-.186-.033-.332-.915a.312.312,0,0,0-.311-.184l-1.018.16-.129-.126a2.023,2.023,0,0,1-.314-.445,2.45,2.45,0,0,1-.268-.6l-.068-.16.674-.732a.263.263,0,0,0,0-.342l-.641-.753.07-.164a3.159,3.159,0,0,1,.605-1.026l.129-.125.932.171h.027a.356.356,0,0,0,.311-.2l.354-.912.174-.022a3.577,3.577,0,0,1,1.482,0l.188.022.324.893a.343.343,0,0,0,.352.205l.992-.137.125.125a1.609,1.609,0,0,1,.33.469,2.055,2.055,0,0,1,.162.331l.07.171.07.174-.645.765a.3.3,0,0,0,0,.365l.645.721-.07.172a3.124,3.124,0,0,1-.584,1.007l-.131.125-.99-.159a.3.3,0,0,0-.316.183l-.348.938-.162.033a3.607,3.607,0,0,1-.75.078A3.715,3.715,0,0,1,22650.127-12057.989Zm.232-1.348.174.5a2.827,2.827,0,0,0,.76,0l.2-.525a.847.847,0,0,1,.922-.538l.537.079a3.2,3.2,0,0,0,.279-.468l-.35-.4a.812.812,0,0,1-.021-1.041l.359-.423-.012-.025a1.562,1.562,0,0,0-.129-.229c-.047-.079-.094-.148-.139-.217l-.572.068a.869.869,0,0,1-.922-.559l-.178-.481a2.629,2.629,0,0,0-.732,0l-.2.5a.862.862,0,0,1-.945.535l-.537-.079a3.363,3.363,0,0,0-.279.456l.375.438a.837.837,0,0,1,0,1.041l-.375.422a1.808,1.808,0,0,0,.141.272.7.7,0,0,0,.127.2l.594-.092a.911.911,0,0,1,.1-.006A.878.878,0,0,1,22650.359-12059.337Zm-3.209.213h0Zm-6.465,0a.622.622,0,0,1-.582-.385.6.6,0,0,1,.135-.676l4.8-4.7a.639.639,0,0,1,.443-.183.645.645,0,0,1,.449.183l1.094,1.07a3.661,3.661,0,0,0-.775,2.265,3.713,3.713,0,0,0,.9,2.424Zm8.889-2.173a1.267,1.267,0,0,1,1.277-1.256,1.269,1.269,0,0,1,1.279,1.256,1.267,1.267,0,0,1-1.279,1.252A1.266,1.266,0,0,1,22649.574-12061.3Zm.768,0a.5.5,0,0,0,.51.5.5.5,0,0,0,.51-.5.5.5,0,0,0-.51-.5A.5.5,0,0,0,22650.342-12061.3Zm-10.074-1.376a6.721,6.721,0,0,1-1.74-4.509,6.7,6.7,0,0,1,2.037-4.821,6.973,6.973,0,0,1,4.918-2,6.967,6.967,0,0,1,4.914,2,6.709,6.709,0,0,1,2.037,4.821,6.694,6.694,0,0,1-.436,2.376,3.838,3.838,0,0,0-1.184-.434,5.446,5.446,0,0,0,.357-1.942,5.641,5.641,0,0,0-5.689-5.576,5.641,5.641,0,0,0-5.689,5.576,5.479,5.479,0,0,0,1.42,3.688.591.591,0,0,1,.156.447.617.617,0,0,1-.211.429.648.648,0,0,1-.42.153A.633.633,0,0,1,22640.268-12062.673Zm1.916-1.617a4.272,4.272,0,0,1-1.127-3.054,4.286,4.286,0,0,1,1.355-2.962,4.449,4.449,0,0,1,3.07-1.212,4.46,4.46,0,0,1,3.07,1.212,4.3,4.3,0,0,1,1.293,2.409,4.235,4.235,0,0,1-.4,2.641,3.848,3.848,0,0,0-1.738.753.6.6,0,0,1,.125-.61,3.061,3.061,0,0,0,.533-3.335,3.171,3.171,0,0,0-2.887-1.834,3.171,3.171,0,0,0-2.887,1.834,3.054,3.054,0,0,0,.533,3.335.611.611,0,0,1,.158.444.635.635,0,0,1-.211.428.646.646,0,0,1-.422.157A.643.643,0,0,1,22642.184-12064.29Z" transform="translate(-22613.379 12904.955)" fill=""/>
  </g>
</svg>
