<svg xmlns="http://www.w3.org/2000/svg" width="18" height="18" viewBox="0 0 18 18">
  <g id="需求分解" transform="translate(-24 -830)">
    <rect id="矩形_5964" data-name="矩形 5964" width="18" height="18" transform="translate(24 830)" fill="none"/>
    <path id="路径_4262" data-name="路径 4262" d="M88.487,93.219h9.462V90.065H94.8V86.911H88.487Zm-1.577,0v-7.1a.784.784,0,0,1,.785-.785h7.888l3.942,3.942v3.942H101.1V94.8H85.333V93.219H86.91Zm-.788,3.154H87.7V101.1H86.122Zm12.616,0h1.577V101.1H98.738Zm-3.154,0h1.577V101.1H95.584Zm-3.154,0h1.577V101.1H92.43Zm-3.154,0h1.577V101.1H89.276V96.373Z" transform="translate(-60.218 745.781)" fill=""/>
  </g>
</svg>
