<svg xmlns="http://www.w3.org/2000/svg" width="18" height="18" viewBox="0 0 18 18">
  <g id="需求日历" transform="translate(-24 -830)">
    <rect id="矩形_5964" data-name="矩形 5964" width="18" height="18" transform="translate(24 830)" fill="none"/>
    <path id="联合_1239" data-name="联合 1239" d="M22544.311-12251.681l-1.768-1.494-1.324,1.409a.685.685,0,0,1-.775.17.686.686,0,0,1-.441-.64v-13.217a1.544,1.544,0,0,1,1.545-1.545h10.783a1.544,1.544,0,0,1,1.551,1.545v13.188a.7.7,0,0,1-.441.668.685.685,0,0,1-.775-.2l-1.244-1.381-1.744,1.466a.646.646,0,0,1-.5.192.623.623,0,0,1-.465-.192l-1.771-1.494-1.658,1.522a.68.68,0,0,1-.5.192A.775.775,0,0,1,22544.311-12251.681Zm3.072-2.241,1.795,1.522,1.8-1.522a.692.692,0,0,1,.967.057l1.1,1.217v-12.8a.712.712,0,0,0-.719-.719h-10.783a.717.717,0,0,0-.719.719v12.889l1.189-1.273a.707.707,0,0,1,.5-.221.728.728,0,0,1,.5.192l1.795,1.466,1.715-1.545a.675.675,0,0,1,.418-.142A.646.646,0,0,1,22547.383-12253.922Zm-4.84-1.737a.429.429,0,0,1-.418-.419.428.428,0,0,1,.418-.414h8.293a.43.43,0,0,1,.42.414.412.412,0,0,1-.42.419Zm3.346-1.359a.635.635,0,0,1-.3-.107.419.419,0,0,1-.107-.391l.355-1.766a.582.582,0,0,1,.113-.227l3.76-3.729a.4.4,0,0,1,.582,0l1.438,1.438a.407.407,0,0,1,0,.583l-3.764,3.729a.325.325,0,0,1-.221.113l-1.766.356Zm.748-1.992-.221,1.053,1.047-.221,3.379-3.373-.832-.826Zm-4.094-.521a.432.432,0,0,1-.418-.413.428.428,0,0,1,.418-.419h2.045a.428.428,0,0,1,.418.419.432.432,0,0,1-.418.413Zm0-3.068a.432.432,0,0,1-.418-.418.428.428,0,0,1,.418-.414h3.346a.425.425,0,0,1,.414.414.409.409,0,0,1-.414.418Z" transform="translate(-22513.939 13098.242)" fill=""/>
  </g>
</svg>
