<svg xmlns="http://www.w3.org/2000/svg" width="18" height="18" viewBox="0 0 18 18">
  <g id="项目管理" transform="translate(-24 -830)">
    <rect id="矩形_5964" data-name="矩形 5964" width="18" height="18" transform="translate(24 830)" fill="none"/>
    <path id="联合_1242" data-name="联合 1242" d="M22809.758-12484.7a.748.748,0,0,1-.756-.75v-12.8a.752.752,0,0,1,.756-.755h5.98a.776.776,0,0,1,.6.3l1.824,2.415h5.73a.754.754,0,0,1,.752.749v10.093a.751.751,0,0,1-.752.75Zm.461-1.21h13.207v-9.167h-13.207Zm0-10.382h6.424l-1.137-1.5h-5.287Zm6.1,9.745a.948.948,0,0,1-.723-.509l-.387-.745-.836-.037a.965.965,0,0,1-.764-.444,3.387,3.387,0,0,1-.316-.611.948.948,0,0,1,.084-.878l.453-.7-.381-.739a.931.931,0,0,1,0-.883,3.568,3.568,0,0,1,.375-.578.963.963,0,0,1,.8-.364l.84.037.453-.7a.962.962,0,0,1,.77-.438,4.979,4.979,0,0,1,.689.031.974.974,0,0,1,.721.515l.383.739.836.037a.962.962,0,0,1,.768.443,3.944,3.944,0,0,1,.318.61.961.961,0,0,1-.086.879l-.451.7.381.739a.943.943,0,0,1,0,.878,3.378,3.378,0,0,1-.377.578.947.947,0,0,1-.807.369l-.836-.037-.451.7a.95.95,0,0,1-.766.438,1.609,1.609,0,0,1-.166.006A3.492,3.492,0,0,1,22816.32-12486.543Zm-1.73-5.1.391.751a.964.964,0,0,1-.045.958l-.463.712c.031.064.064.123.1.182l.85.043a.965.965,0,0,1,.809.52l.387.749c.07.006.141.012.211.012l.457-.713a.976.976,0,0,1,.855-.433l.848.037c.041-.06.08-.112.117-.178l-.393-.749a.952.952,0,0,1,.049-.958l.457-.707c-.027-.064-.059-.123-.092-.187l-.85-.038a.958.958,0,0,1-.809-.519l-.389-.75c-.07,0-.139-.011-.209-.011l-.457.707a.974.974,0,0,1-.857.439l-.85-.037C22814.666-12491.759,22814.629-12491.7,22814.59-12491.642Zm1.311,1.323a.939.939,0,0,1,.947-.942.939.939,0,0,1,.943.942.943.943,0,0,1-.943.942A.943.943,0,0,1,22815.9-12490.318Z" transform="translate(-22783.824 13330.849)" fill=""/>
  </g>
</svg>
