<svg xmlns="http://www.w3.org/2000/svg" width="18" height="18" viewBox="0 0 18 18">
  <g id="预测配置" transform="translate(-24 -830)">
    <rect id="矩形_5964" data-name="矩形 5964" width="18" height="18" transform="translate(24 830)" fill="none"/>
    <path id="联合_1252" data-name="联合 1252" d="M23917.672-12533.276l-.559-.883,3.076-2.018.066-.048v-.823h-6.8a.454.454,0,0,1-.451-.45v-9.705a.454.454,0,0,1,.451-.45h6.8V-12549h1.045v1.346h6.791a.454.454,0,0,1,.451.45v6.45a4.211,4.211,0,0,0-1.045-.637v-5.219h-13.447v8.516h7.016a4.455,4.455,0,0,0-.1.955,4.626,4.626,0,0,0,.668,2.4l-.775-.51-.084-.055-3.094,2.03Zm7.705-.162a4.555,4.555,0,0,1-.559-.036.306.306,0,0,1-.27-.265l-.084-.588a2.884,2.884,0,0,1-.51-.217l-.463.349a.316.316,0,0,1-.379,0l-.006-.006a3.684,3.684,0,0,1-.408-.366l-.035-.03a5.194,5.194,0,0,1-.367-.414.317.317,0,0,1-.006-.385l.359-.469a3.1,3.1,0,0,1-.209-.516l-.57-.078a.316.316,0,0,1-.266-.271,4.919,4.919,0,0,1-.035-.559v-.048a4.62,4.62,0,0,1,.035-.553.3.3,0,0,1,.266-.271l.588-.084a2.776,2.776,0,0,1,.217-.51l-.35-.463a.325.325,0,0,1,0-.385h.006a3.918,3.918,0,0,1,.367-.414l.029-.03a3.734,3.734,0,0,1,.416-.366v-.006a.322.322,0,0,1,.383,0l.475.36a3.078,3.078,0,0,1,.512-.21l.078-.577a.316.316,0,0,1,.27-.264,4.766,4.766,0,0,1,.559-.036h.049a4.626,4.626,0,0,1,.557.036.306.306,0,0,1,.266.264l.084.589a3.786,3.786,0,0,1,.51.217l.463-.349a.308.308,0,0,1,.379.006h.006c.066.054.24.2.414.366l.029.036c.211.2.367.414.373.414a.316.316,0,0,1,0,.379l-.355.475a3.023,3.023,0,0,1,.205.51l.576.084a.312.312,0,0,1,.264.271,3.881,3.881,0,0,1,.031.559v.042a5.208,5.208,0,0,1-.031.559.318.318,0,0,1-.27.271l-.582.078a3.6,3.6,0,0,1-.217.51l.35.469a.328.328,0,0,1-.008.378,5.466,5.466,0,0,1-.371.415l-.031.03a3.792,3.792,0,0,1-.408.366l-.006.006a.325.325,0,0,1-.385,0l-.467-.36a3.21,3.21,0,0,1-.518.21l-.078.576a.31.31,0,0,1-.27.265,4.766,4.766,0,0,1-.559.036Zm-1.242-1.718a2.468,2.468,0,0,0,.691.282.322.322,0,0,1,.232.265l.078.54c.078.006.162.006.24.006h.043c.078,0,.162,0,.246-.006l.078-.534a.315.315,0,0,1,.234-.265,2.5,2.5,0,0,0,.732-.294.32.32,0,0,1,.234-.036.3.3,0,0,1,.125.066l.428.318a1.669,1.669,0,0,0,.174-.162l.035-.03c.061-.061.115-.126.162-.181l-.324-.432a.308.308,0,0,1-.012-.349,2.221,2.221,0,0,0,.295-.709.319.319,0,0,1,.27-.252l.541-.078c.006-.066.006-.15.006-.24v-.042c0-.078,0-.162-.006-.246l-.535-.072a.313.313,0,0,1-.258-.24,2.648,2.648,0,0,0-.287-.721.13.13,0,0,1-.037-.065.308.308,0,0,1,.049-.295l.33-.438c-.061-.065-.115-.12-.168-.174l-.031-.03c-.053-.054-.107-.108-.174-.168l-.437.324a.308.308,0,0,1-.367.006,2.228,2.228,0,0,0-.709-.294.336.336,0,0,1-.234-.265l-.072-.54c-.07-.006-.154-.012-.238-.012h-.049c-.078,0-.162.006-.24.012l-.078.534a.313.313,0,0,1-.264.265,2.483,2.483,0,0,0-.7.288.312.312,0,0,1-.24.036.258.258,0,0,1-.127-.066l-.42-.318c-.072.061-.125.114-.18.168l-.031.03c-.053.048-.107.108-.168.175l.324.432a.312.312,0,0,1,.02.349.09.09,0,0,1-.02.03,2.5,2.5,0,0,0-.293.7.316.316,0,0,1-.258.24l-.541.072c-.006.078-.012.162-.012.24v.048c0,.078.006.162.012.24l.533.078a.306.306,0,0,1,.266.265v.012a2.522,2.522,0,0,0,.287.69.314.314,0,0,1,.031.265.31.31,0,0,1-.061.1l-.318.421c.043.048.1.107.168.174l.029.036c.055.048.109.1.182.168l.432-.33a.31.31,0,0,1,.184-.06A.317.317,0,0,1,23924.135-12535.156Zm-.336-2.132a1.622,1.622,0,0,1,1.621-1.621,1.623,1.623,0,0,1,1.627,1.621,1.627,1.627,0,0,1-1.627,1.621A1.622,1.622,0,0,1,23923.8-12537.288Zm.623,0a1,1,0,0,0,1,1,1,1,0,0,0,1-1,1,1,0,0,0-1-1A1,1,0,0,0,23924.422-12537.288Zm-7.283-2.57-.68-.685,2.686-2.69h.006l1.711,1.712,3.531-3.538h.012l.68.686-4.229,4.228-1.6-1.609-.1-.1-2.006,2.006A.006.006,0,0,1,23917.139-12539.858Z" transform="translate(-23887.617 13380.142)" fill=""/>
  </g>
</svg>
