<svg xmlns="http://www.w3.org/2000/svg" width="18" height="18" viewBox="0 0 18 18">
  <g id="用户预测" transform="translate(-24 -830)">
    <rect id="矩形_5964" data-name="矩形 5964" width="18" height="18" transform="translate(24 830)" fill="none"/>
    <path id="路径_2209" data-name="路径 2209" d="M49.913,74.884V70.869l.5.063a3.99,3.99,0,0,1,3.47,3.457l.063.5Zm.886-2.97V74h2.092A3.1,3.1,0,0,0,50.8,71.915ZM52.211,68.7a.554.554,0,0,1-.542-.538V65.37a.553.553,0,0,0-.538-.538h-3.31a.556.556,0,0,1-.034-1.109h3.306a1.622,1.622,0,0,1,1.655,1.647v2.755a.554.554,0,0,1-.538.571Zm-4.137.68a2.48,2.48,0,1,1-2.482-2.47A2.48,2.48,0,0,1,48.073,69.378ZM42.823,64.8H40.055a.55.55,0,0,0-.542.533v2.755a.623.623,0,0,1-.575.609.553.553,0,0,1-.538-.538V65.37a1.67,1.67,0,0,1,1.655-1.647h2.768a.538.538,0,1,1,0,1.075Zm-3.885,8.3a.554.554,0,0,1,.542.538v2.755a.553.553,0,0,0,.538.538h2.768a.551.551,0,0,1,.542.538.532.532,0,0,1-.5.571H40.055A1.646,1.646,0,0,1,38.4,76.388V73.633A.553.553,0,0,1,38.938,73.095Zm2.2,1.756c0-1.432,1.437-2.646,3.415-2.97.323,0,.685,1,1.042,1s.718-1,1.046-1c.105.017.206.042.311.063a4.2,4.2,0,0,0-.987,2.705c0,.067.008.134.008.2Zm8.2-3.491.26.848a2.744,2.744,0,0,0-1.907,2.676,2.682,2.682,0,0,0,5.334.374l.878.143a3.57,3.57,0,0,1-7.1-.517A3.638,3.638,0,0,1,49.338,71.36Z" transform="translate(-13.171 767.912)" fill=""/>
  </g>
</svg>
