<svg xmlns="http://www.w3.org/2000/svg" width="18" height="18" viewBox="0 0 18 18">
  <g id="预测日志" transform="translate(-24 -830)">
    <rect id="矩形_5964" data-name="矩形 5964" width="18" height="18" transform="translate(24 830)" fill="none"/>
    <path id="联合_1240" data-name="联合 1240" d="M23921.426-12583.422a.631.631,0,0,1-.24-.463.616.616,0,0,1,.182-.486l.883-.883.648-.648a3.031,3.031,0,0,1-.48-1.633,3,3,0,0,1,.666-1.892,3.007,3.007,0,0,1,1.742-1.069,2.993,2.993,0,0,1,.617-.06,3.025,3.025,0,0,1,1.279.282,3.031,3.031,0,0,1,1.6,1.813,3.024,3.024,0,0,1-.186,2.306,3.033,3.033,0,0,1-1.471,1.388,3.023,3.023,0,0,1-1.221.252,3.032,3.032,0,0,1-.936-.145,2.949,2.949,0,0,1-.7-.33c-.348.354-.7.7-1.051,1.051l-.385.385a.14.14,0,0,0-.029.036.981.981,0,0,1-.2.155.636.636,0,0,1-.318.085A.641.641,0,0,1,23921.426-12583.422Zm3.8-5.831a1.726,1.726,0,0,0-1.219.757,1.728,1.728,0,0,0-.234,1.405,1.736,1.736,0,0,0,.816,1.057,1.7,1.7,0,0,0,.857.229,1.812,1.812,0,0,0,.4-.042,1.749,1.749,0,0,0,1.184-.979,1.768,1.768,0,0,0,.107-1.1,1.768,1.768,0,0,0-.629-.973,1.691,1.691,0,0,0-1.059-.366C23925.365-12589.265,23925.295-12589.259,23925.223-12589.253Zm-4.686,5.807h-5.2a2.583,2.583,0,0,1-.42-.023,2.2,2.2,0,0,1-1.467-.865,2.176,2.176,0,0,1-.449-1.272v-11.23a2.244,2.244,0,0,1,.559-1.417,2.271,2.271,0,0,1,1.609-.745h10.334a2.3,2.3,0,0,1,1.033.24,2.236,2.236,0,0,1,1.123,1.34,2.128,2.128,0,0,1,.1.637v5.6a.68.68,0,0,1-.09.414.637.637,0,0,1-.559.318.763.763,0,0,1-.162-.018.655.655,0,0,1-.48-.6v-5.591a1.523,1.523,0,0,0-.006-.234.954.954,0,0,0-.359-.613.944.944,0,0,0-.59-.2h-10.215a1,1,0,0,0-.287.029.96.96,0,0,0-.535.354.933.933,0,0,0-.18.589v11.025a.907.907,0,0,0,.168.57.943.943,0,0,0,.773.4h5.34a.659.659,0,0,1,.4.156.642.642,0,0,1,.186.685.639.639,0,0,1-.611.45Zm.266-3.272h-4.211a.642.642,0,0,1-.51-.294.655.655,0,0,1,.012-.715.639.639,0,0,1,.367-.265.987.987,0,0,1,.191-.023h4.191a.659.659,0,0,1,.48.21.625.625,0,0,1,.162.547.643.643,0,0,1-.42.5.533.533,0,0,1-.223.036Zm3.65-3.976h-7.824a.643.643,0,0,1-.541-.288.646.646,0,0,1-.041-.643.64.64,0,0,1,.521-.36h7.992a.64.64,0,0,1,.518.265.65.65,0,0,1,.1.546.641.641,0,0,1-.449.456.659.659,0,0,1-.211.024Zm-.125-3.97h-7.873a.741.741,0,0,1-.266-.042.635.635,0,0,1-.42-.612.65.65,0,0,1,.469-.618,1.089,1.089,0,0,1,.156-.024h7.957a.653.653,0,0,1,.6.433.66.66,0,0,1-.09.606.661.661,0,0,1-.521.258Zm.012-.246h0Z" transform="translate(-23887.732 13430.14)" fill=""/>
  </g>
</svg>
