<svg xmlns="http://www.w3.org/2000/svg" width="20" height="20" viewBox="0 0 20 20">
  <g id="削峰" transform="translate(-311 -557)">
    <path id="联合_965" data-name="联合 965" d="M23920.621-578.367c-1-2.822-1.562-2.852-1.58-2.852h-.006c-.379,0-.631,1.159-.8,1.921l-.006.018c-.252,1.177-.486,2.281-1.326,2.341a.1.1,0,0,1-.043.006c-.275,0-.492-.192-.654-.564a5.35,5.35,0,0,1-.287-1.015c-.168-.847-.324-2.053-.463-3.122l-.018-.126c-.115-.895-.223-1.705-.348-2.516h.785c.139.925.258,1.843.35,2.546l.006.03v.012c.131,1.021.258,1.987.4,2.732a5.323,5.323,0,0,0,.3,1.195,1.188,1.188,0,0,0,.193-.348,8.4,8.4,0,0,0,.318-1.195v-.012l.029-.12a9.674,9.674,0,0,1,.443-1.615c.266-.624.643-.943,1.111-.943h.023c.469.018.895.39,1.352,1.183a13.72,13.72,0,0,1,.949,2.191c.432,1.213.773,2.462.936,3.1v.018c.006.006.006.006.006.012l-.756.18C23921.539-575.323,23921.154-576.86,23920.621-578.367Zm-14.848,2.978-.775-.03v-.048c.055-.943.156-1.921.277-2.744.307-2.047.744-3.278,1.35-3.764a1.116,1.116,0,0,1,.7-.258,1.274,1.274,0,0,1,.15.012c1.152.18,1.6,1.555,1.957,2.666l.018.042c.168.516.426,1.285.637,1.351a3.627,3.627,0,0,0,.336-1.243c.115-.72.211-1.639.33-2.756.072-.642.15-1.393.24-2.113h.775c-.078.654-.145,1.291-.223,2l-.018.2-.02.138c-.113,1.087-.221,2.113-.365,2.888-.168.931-.379,1.567-.883,1.651a1.229,1.229,0,0,1-.15.012,1.053,1.053,0,0,1-.912-.648,7.039,7.039,0,0,1-.48-1.219v-.012l-.018-.048v-.006c-.312-.955-.666-2.035-1.346-2.137a.125.125,0,0,0-.047-.006.276.276,0,0,0-.187.084c-.811.66-1.254,4.023-1.338,5.992Zm1.086-9.27a.379.379,0,0,1-.383-.384.383.383,0,0,1,.383-.384h13.191a.383.383,0,0,1,.383.384.379.379,0,0,1-.383.384Zm4.113-1.147c.4-2.678,1-5.169,2.359-5.193,1.314-.03,2.023,2.462,2.516,5.193Z" transform="translate(-23592.648 1150.155)" fill="#666"/>
    <path id="路径_2400" data-name="路径 2400" d="M0,0H20V20H0Z" transform="translate(311 557)" fill="none"/>
  </g>
</svg>
