<svg xmlns="http://www.w3.org/2000/svg" width="20" height="20" viewBox="0 0 20 20">
  <g id="填谷" transform="translate(-326 -560)">
    <path id="联合_966" data-name="联合 966" d="M23921.535-576.074a30.247,30.247,0,0,0-.822-3.164,1.052,1.052,0,0,0-.041-.126h.822c.42,1.333.7,2.618.8,3.11l.006.024-.764.156Zm-4.713,0c-1.057-.012-1.182-2.341-1.9-3.758h2.953c-.258,2.107-.521,3.758-1.051,3.758Zm-7.955-3.758h2.955c-.258,2.107-.518,3.758-1.051,3.758C23909.709-576.086,23909.588-578.415,23908.867-579.832ZM23905-576.17v-.042c.053-.955.15-1.957.275-2.828.012-.114.031-.216.049-.324h.785a27.606,27.606,0,0,0-.336,3.23Zm.4-4.053a.4.4,0,0,1-.4-.4.4.4,0,0,1,.4-.4h16.168a.394.394,0,0,1,.389.4.394.394,0,0,1-.389.4Zm13.67-1.909h-.006c-.09,0-.27.006-.451.414h-.816a2.239,2.239,0,0,1,.072-.216,1.3,1.3,0,0,1,1.164-.985h.043c.516,0,.99.39,1.447,1.195l-.926.006C23919.32-582.1,23919.135-582.132,23919.068-582.132Zm-3.77-.871a47.76,47.76,0,0,0-.787-5.061c-.463-1.939-.943-2.149-1.129-2.149s-.7.234-1.129,2.233a47.132,47.132,0,0,0-.666,5.1c-.043.5-.078.846-.107,1.165h-.781c.041-.42.084-.865.119-1.243a49.6,49.6,0,0,1,.68-5.187c.258-1.213.732-2.822,1.855-2.852h.029c1.092,0,1.6,1.567,1.885,2.75a47.8,47.8,0,0,1,.793,5.151l.055.408v.012c.041.324.078.648.119.955l-.781.006C23915.395-582.192,23915.334-582.678,23915.3-583Zm-7.949.624a.081.081,0,0,0-.037-.006.32.32,0,0,0-.191.084,1.627,1.627,0,0,0-.391.582h-.84a2.769,2.769,0,0,1,.738-1.189,1.054,1.054,0,0,1,.689-.264,1.446,1.446,0,0,1,.156.012c.607.1,1.068.552,1.436,1.435l-.854.006C23907.842-582.12,23907.613-582.336,23907.35-582.378Z" transform="translate(-23577.652 1153.536)" fill="#666"/>
    <rect id="矩形_7219" data-name="矩形 7219" width="20" height="20" transform="translate(326 560)" fill="none"/>
  </g>
</svg>
