<svg xmlns="http://www.w3.org/2000/svg" width="20" height="20" viewBox="0 0 20 20">
  <g id="当前负荷" transform="translate(-306 -404)">
    <rect id="矩形_7211" data-name="矩形 7211" width="20" height="20" transform="translate(306 404)" fill="none"/>
    <path id="路径_2394" data-name="路径 2394" d="M87.073,182.411v-7.83a3.9,3.9,0,0,1,3.915-3.915,4.021,4.021,0,0,1,3.915,3.48v5.22h5.22V171.1a.435.435,0,0,1,.87,0v8.265a3.48,3.48,0,1,1-6.96,0v-5.22h-6.09v8.265a.435.435,0,0,1-.87,0Zm15.225,1.3H85.768a.435.435,0,1,0,0,.87H102.3a.435.435,0,1,0,0-.87Z" transform="translate(221.967 236.373)" fill="#666"/>
  </g>
</svg>
