<svg xmlns="http://www.w3.org/2000/svg" width="20" height="20" viewBox="0 0 20 20">
  <g id="装机容量" transform="translate(-306 -404)">
    <rect id="矩形_7211" data-name="矩形 7211" width="20" height="20" transform="translate(306 404)" fill="none"/>
    <path id="联合_973" data-name="联合 973" d="M23915-639.181a1.009,1.009,0,0,1-1.008-1V-641h-1a1,1,0,0,1-1-1v-10a.994.994,0,0,1,1-1h2v-1.5a.5.5,0,0,1,.5-.5.5.5,0,0,1,.5.5v1.5h2v-1.5a.5.5,0,0,1,.5-.5.5.5,0,0,1,.5.5v1.5h2v-1.5a.5.5,0,0,1,.5-.5.5.5,0,0,1,.5.5v1.5h2v-1.5a.5.5,0,0,1,.5-.5.5.5,0,0,1,.5.5v1.5H23927a1,1,0,0,1,1,1v10a1,1,0,0,1-1,1h-1v.793a1,1,0,0,1-1,1H23923a1,1,0,0,1-1-1V-641h-4v.817a1,1,0,0,1-1,1Zm0-1H23917V-641H23915Zm8-.024H23925V-641H23923Zm-10-1.8h14v-10h-14Zm6.318-1.832a.444.444,0,0,1-.307-.42v-1.994h-1a.436.436,0,0,1-.395-.246.432.432,0,0,1,.041-.462l2.559-3.381a.43.43,0,0,1,.516-.144.433.433,0,0,1,.277.456l-.205,1.886h1.184a.436.436,0,0,1,.4.24.439.439,0,0,1-.037.462l-2.533,3.447a.459.459,0,0,1-.355.18A.4.4,0,0,1,23919.316-643.835Zm-.775-3.117h.732a.443.443,0,0,1,.445.438v1.459l1.752-2.384h-.961a.455.455,0,0,1-.33-.144.465.465,0,0,1-.113-.348l.139-1.225Z" transform="translate(-23603.998 1061.001)" fill="#666"/>
  </g>
</svg>
