<svg xmlns="http://www.w3.org/2000/svg" width="20" height="20" viewBox="0 0 20 20">
  <g id="辅助服务用户数" transform="translate(-326 -560)">
    <rect id="矩形_7219" data-name="矩形 7219" width="20" height="20" transform="translate(326 560)" fill="none"/>
    <path id="联合_969" data-name="联合 969" d="M23643.408-1308.342l-2.338-2.006-2.338,2.006h-.16a1,1,0,0,1-1-1v-6a1,1,0,0,1,1-1h5a1.006,1.006,0,0,1,1,1v6a1.006,1.006,0,0,1-1,1Zm-1.816-2.617,2.078,1.786a.2.2,0,0,0,.1-.172v-6a.2.2,0,0,0-.2-.2h-5a.2.2,0,0,0-.2.2v6a.2.2,0,0,0,.094.172l2.605-2.231Zm-14.027,1.311a7.947,7.947,0,0,1,2.617-5.857,6.944,6.944,0,0,1,3.5-1.679,5,5,0,0,1-2.227-4.16,5,5,0,0,1,5-5,5,5,0,0,1,5,5,5,5,0,0,1-5,5,4.7,4.7,0,0,1-.824-.071,7.084,7.084,0,0,0-4.635,1.661,6.918,6.918,0,0,0-2.291,5.109Zm5.014-11.7a3.883,3.883,0,0,0,3.875,3.869,3.873,3.873,0,0,0,3.869-3.869,3.875,3.875,0,0,0-3.869-3.875A3.885,3.885,0,0,0,23632.578-1321.343Zm7.49,8a.5.5,0,0,1-.5-.5.5.5,0,0,1,.5-.5h2a.5.5,0,0,1,.5.5.5.5,0,0,1-.5.5Z" transform="translate(-23300.068 1887.341)" fill="#666"/>
  </g>
</svg>
