<svg xmlns="http://www.w3.org/2000/svg" width="20" height="20" viewBox="0 0 20 20">
  <g id="需求响应用户数" transform="translate(-326 -560)">
    <rect id="矩形_7219" data-name="矩形 7219" width="20" height="20" transform="translate(326 560)" fill="none"/>
    <path id="联合_967" data-name="联合 967" d="M23949.268-680.523l.77-2.91h-1.551a.29.29,0,0,1-.271-.391l1.547-4.034a.275.275,0,0,1,.264-.186h2.6a.286.286,0,0,1,.264.4l-.9,2.194h1.689a.29.29,0,0,1,.217.481l-4.135,4.713a.278.278,0,0,1-.213.1A.288.288,0,0,1,23949.268-680.523Zm-.361-3.487h1.5a.286.286,0,0,1,.229.114.29.29,0,0,1,.049.252l-.549,2.08,2.9-3.313h-1.479a.284.284,0,0,1-.264-.4l.895-2.194h-1.971Zm-5.656,3.469a3.334,3.334,0,0,1-3.252-3.4V-693.6a3.335,3.335,0,0,1,3.252-3.4h8.242a3.331,3.331,0,0,1,3.246,3.4v4.545a.5.5,0,0,1-.5.5.5.5,0,0,1-.5-.5V-693.6a2.331,2.331,0,0,0-2.248-2.4h-8.242a2.327,2.327,0,0,0-2.248,2.4v9.661a2.327,2.327,0,0,0,2.248,2.4h2.9a.5.5,0,0,1,.5.5.5.5,0,0,1-.5.5Zm-.252-4.96a.5.5,0,0,1-.5-.5.5.5,0,0,1,.5-.5h3a.5.5,0,0,1,.5.5.5.5,0,0,1-.5.5Zm0-4a.5.5,0,0,1-.5-.5.507.507,0,0,1,.5-.505h8a.5.5,0,0,1,.5.505.5.5,0,0,1-.5.5Zm0-3a.5.5,0,0,1-.5-.5.507.507,0,0,1,.5-.5h8a.5.5,0,0,1,.5.5.5.5,0,0,1-.5.5Z" transform="translate(-23610.5 1258.5)" fill="#666"/>
  </g>
</svg>
