<svg xmlns="http://www.w3.org/2000/svg" width="20" height="20" viewBox="0 0 20 20">
  <g id="非工用户数" transform="translate(-326 -560)">
    <rect id="矩形_7219" data-name="矩形 7219" width="20" height="20" transform="translate(326 560)" fill="none"/>
    <path id="路径_2415" data-name="路径 2415" d="M102.414,117.813h15.412a.524.524,0,0,1,0,1.048H102.414a.491.491,0,0,1-.514-.524A.519.519,0,0,1,102.414,117.813Zm8.734,1.1h-7.192a.978.978,0,0,1-1.027-1.046V105.736a1.136,1.136,0,0,1,.718-1.046l7.245-2.2a1.047,1.047,0,0,1,1.232.68l.05.1v14.588A.977.977,0,0,1,111.147,118.911Zm-7.192-13.175v12.129h7.192V103.541Zm2.055,1.622h3.082a.523.523,0,0,1,0,1.046H106.01a.489.489,0,0,1-.514-.522A.518.518,0,0,1,106.01,107.358Zm3.08,1.046h-3.08a.523.523,0,0,1,0-1.046h3.082a.523.523,0,0,1,0,1.046Zm-3.08-.437h0Zm0,2.529h3.082a.523.523,0,0,1,0,1.046H106.01a.49.49,0,0,1-.514-.524A.517.517,0,0,1,106.01,110.494Zm3.08,1.046h-3.08a.523.523,0,0,1,0-1.046h3.082a.523.523,0,0,1,0,1.046Zm-3.08-.437h0Zm0,2.529h3.082a.522.522,0,0,1,0,1.044H106.01a.489.489,0,0,1-.514-.522A.517.517,0,0,1,106.01,113.631Zm3.08,1.046h-3.08a.523.523,0,0,1,0-1.046h3.082a.523.523,0,0,1,0,1.046Zm-3.08-.437h0Zm7.706-.608h1.027a.523.523,0,0,1,0,1.046h-1.027a.489.489,0,0,1-.514-.522A.519.519,0,0,1,113.716,113.631Zm1.027,1.046h-1.027a.523.523,0,0,1,0-1.046h1.027a.523.523,0,0,1,0,1.046Zm-1.03-.437h0Zm3.6,4.672h-5.137a.978.978,0,0,1-1.027-1.046V107.41l5.651,3.765a.975.975,0,0,1,.514.889v6.847Zm-5.135-9.619v8.573h4.11v-5.856Zm0,0" transform="translate(225.88 459.31)" fill="#666"/>
  </g>
</svg>
